<?xml version="1.0" encoding="utf-8" standalone="no"?>
<!DOCTYPE svg PUBLIC "-//W3C//DTD SVG 1.1//EN"
  "http://www.w3.org/Graphics/SVG/1.1/DTD/svg11.dtd">
<svg xmlns:xlink="http://www.w3.org/1999/xlink" width="513.003834pt" height="307.193pt" viewBox="0 0 513.003834 307.193" xmlns="http://www.w3.org/2000/svg" version="1.1">
 <metadata>
  <rdf:RDF xmlns:dc="http://purl.org/dc/elements/1.1/" xmlns:cc="http://creativecommons.org/ns#" xmlns:rdf="http://www.w3.org/1999/02/22-rdf-syntax-ns#">
   <cc:Work>
    <dc:type rdf:resource="http://purl.org/dc/dcmitype/StillImage"/>
    <dc:date>2026-06-14T13:56:59.659636</dc:date>
    <dc:format>image/svg+xml</dc:format>
    <dc:creator>
     <cc:Agent>
      <dc:title>Matplotlib v3.11.0, https://matplotlib.org/</dc:title>
     </cc:Agent>
    </dc:creator>
   </cc:Work>
  </rdf:RDF>
 </metadata>
 <defs>
  <style type="text/css">*{stroke-linejoin: round; stroke-linecap: butt}</style>
 </defs>
 <g id="figure_1">
  <g id="patch_1">
   <path d="M 0 307.193 
L 513.003834 307.193 
L 513.003834 0 
L 0 0 
z
" style="fill: #fafafa"/>
  </g>
  <g id="axes_1">
   <g id="patch_2">
    <path d="M 40.795313 259.698 
L 442.555313 259.698 
L 442.555313 26.85 
L 40.795313 26.85 
z
" style="fill: #fafafa"/>
   </g>
   <g id="matplotlib.axis_1">
    <g id="xtick_1">
     <g id="line2d_1">
      <path d="M 59.057131 259.698 
L 59.057131 26.85 
" clip-path="url(#pdeafa84f46)" style="fill: none; stroke: #e5e5e5; stroke-width: 0.8; stroke-linecap: round"/>
     </g>
     <g id="text_1">
      <!-- $\mathdefault{10^{0}}$ -->
      <g style="fill: #525252" transform="translate(50.587131 279.67)">
       <text>
        <tspan x="0" y="-0.999188" style="font-size: 11px; font-family: 'Helvetica Neue'; fill: #525252">1</tspan>
        <tspan x="6.115952" y="-0.999188" style="font-size: 11px; font-family: 'Helvetica Neue'; fill: #525252">0</tspan>
        <tspan x="12.337177" y="-5.542188" style="font-size: 7.7px; font-family: 'Helvetica Neue'; fill: #525252">0</tspan>
       </text>
      </g>
     </g>
    </g>
    <g id="xtick_2">
     <g id="line2d_2">
      <path d="M 169.700283 259.698 
L 169.700283 26.85 
" clip-path="url(#pdeafa84f46)" style="fill: none; stroke: #e5e5e5; stroke-width: 0.8; stroke-linecap: round"/>
     </g>
     <g id="text_2">
      <!-- $\mathdefault{10^{1}}$ -->
      <g style="fill: #525252" transform="translate(161.230283 279.67)">
       <text>
        <tspan x="0" y="-0.999188" style="font-size: 11px; font-family: 'Helvetica Neue'; fill: #525252">1</tspan>
        <tspan x="6.115952" y="-0.999188" style="font-size: 11px; font-family: 'Helvetica Neue'; fill: #525252">0</tspan>
        <tspan x="12.337177" y="-5.542188" style="font-size: 7.7px; font-family: 'Helvetica Neue'; fill: #525252">1</tspan>
       </text>
      </g>
     </g>
    </g>
    <g id="xtick_3">
     <g id="line2d_3">
      <path d="M 280.343435 259.698 
L 280.343435 26.85 
" clip-path="url(#pdeafa84f46)" style="fill: none; stroke: #e5e5e5; stroke-width: 0.8; stroke-linecap: round"/>
     </g>
     <g id="text_3">
      <!-- $\mathdefault{10^{2}}$ -->
      <g style="fill: #525252" transform="translate(271.873435 279.67)">
       <text>
        <tspan x="0" y="-0.999188" style="font-size: 11px; font-family: 'Helvetica Neue'; fill: #525252">1</tspan>
        <tspan x="6.115952" y="-0.999188" style="font-size: 11px; font-family: 'Helvetica Neue'; fill: #525252">0</tspan>
        <tspan x="12.337177" y="-5.542188" style="font-size: 7.7px; font-family: 'Helvetica Neue'; fill: #525252">2</tspan>
       </text>
      </g>
     </g>
    </g>
    <g id="xtick_4">
     <g id="line2d_4">
      <path d="M 390.986587 259.698 
L 390.986587 26.85 
" clip-path="url(#pdeafa84f46)" style="fill: none; stroke: #e5e5e5; stroke-width: 0.8; stroke-linecap: round"/>
     </g>
     <g id="text_4">
      <!-- $\mathdefault{10^{3}}$ -->
      <g style="fill: #525252" transform="translate(382.516587 279.67)">
       <text>
        <tspan x="0" y="-0.999188" style="font-size: 11px; font-family: 'Helvetica Neue'; fill: #525252">1</tspan>
        <tspan x="6.115952" y="-0.999188" style="font-size: 11px; font-family: 'Helvetica Neue'; fill: #525252">0</tspan>
        <tspan x="12.337177" y="-5.542188" style="font-size: 7.7px; font-family: 'Helvetica Neue'; fill: #525252">3</tspan>
       </text>
      </g>
     </g>
    </g>
    <g id="xtick_5"/>
    <g id="xtick_6"/>
    <g id="xtick_7"/>
    <g id="xtick_8"/>
    <g id="xtick_9"/>
    <g id="xtick_10"/>
    <g id="xtick_11"/>
    <g id="xtick_12"/>
    <g id="xtick_13"/>
    <g id="xtick_14"/>
    <g id="xtick_15"/>
    <g id="xtick_16"/>
    <g id="xtick_17"/>
    <g id="xtick_18"/>
    <g id="xtick_19"/>
    <g id="xtick_20"/>
    <g id="xtick_21"/>
    <g id="xtick_22"/>
    <g id="xtick_23"/>
    <g id="xtick_24"/>
    <g id="xtick_25"/>
    <g id="xtick_26"/>
    <g id="xtick_27"/>
    <g id="xtick_28"/>
    <g id="xtick_29"/>
    <g id="xtick_30"/>
    <g id="xtick_31"/>
    <g id="xtick_32"/>
    <g id="text_5">
     <text style="font-size: 12px; font-family: 'Geist', 'Inter', 'Helvetica Neue', 'Arial', 'DejaVu Sans', sans-serif; text-anchor: middle; fill: #0a0a0a" x="241.675313" y="297.437" transform="rotate(-0 241.675313 297.437)">number of samples  (log scale)</text>
    </g>
   </g>
   <g id="matplotlib.axis_2">
    <g id="ytick_1">
     <g id="line2d_5">
      <path d="M 40.795313 259.698 
L 442.555313 259.698 
" clip-path="url(#pdeafa84f46)" style="fill: none; stroke: #e5e5e5; stroke-width: 0.8; stroke-linecap: round"/>
     </g>
     <g id="text_6">
      <text style="font-size: 11px; font-family: 'Geist', 'Inter', 'Helvetica Neue', 'Arial', 'DejaVu Sans', sans-serif; text-anchor: end; fill: #525252" x="31.295313" y="264.934" transform="rotate(-0 31.295313 264.934)">1</text>
     </g>
    </g>
    <g id="ytick_2">
     <g id="line2d_6">
      <path d="M 40.795313 213.1284 
L 442.555313 213.1284 
" clip-path="url(#pdeafa84f46)" style="fill: none; stroke: #e5e5e5; stroke-width: 0.8; stroke-linecap: round"/>
     </g>
     <g id="text_7">
      <text style="font-size: 11px; font-family: 'Geist', 'Inter', 'Helvetica Neue', 'Arial', 'DejaVu Sans', sans-serif; text-anchor: end; fill: #525252" x="31.295313" y="218.3644" transform="rotate(-0 31.295313 218.3644)">2</text>
     </g>
    </g>
    <g id="ytick_3">
     <g id="line2d_7">
      <path d="M 40.795313 166.5588 
L 442.555313 166.5588 
" clip-path="url(#pdeafa84f46)" style="fill: none; stroke: #e5e5e5; stroke-width: 0.8; stroke-linecap: round"/>
     </g>
     <g id="text_8">
      <text style="font-size: 11px; font-family: 'Geist', 'Inter', 'Helvetica Neue', 'Arial', 'DejaVu Sans', sans-serif; text-anchor: end; fill: #525252" x="31.295313" y="171.7948" transform="rotate(-0 31.295313 171.7948)">3</text>
     </g>
    </g>
    <g id="ytick_4">
     <g id="line2d_8">
      <path d="M 40.795313 119.9892 
L 442.555313 119.9892 
" clip-path="url(#pdeafa84f46)" style="fill: none; stroke: #e5e5e5; stroke-width: 0.8; stroke-linecap: round"/>
     </g>
     <g id="text_9">
      <text style="font-size: 11px; font-family: 'Geist', 'Inter', 'Helvetica Neue', 'Arial', 'DejaVu Sans', sans-serif; text-anchor: end; fill: #525252" x="31.295313" y="125.2252" transform="rotate(-0 31.295313 125.2252)">4</text>
     </g>
    </g>
    <g id="ytick_5">
     <g id="line2d_9">
      <path d="M 40.795313 73.4196 
L 442.555313 73.4196 
" clip-path="url(#pdeafa84f46)" style="fill: none; stroke: #e5e5e5; stroke-width: 0.8; stroke-linecap: round"/>
     </g>
     <g id="text_10">
      <text style="font-size: 11px; font-family: 'Geist', 'Inter', 'Helvetica Neue', 'Arial', 'DejaVu Sans', sans-serif; text-anchor: end; fill: #525252" x="31.295313" y="78.6556" transform="rotate(-0 31.295313 78.6556)">5</text>
     </g>
    </g>
    <g id="ytick_6">
     <g id="line2d_10">
      <path d="M 40.795313 26.85 
L 442.555313 26.85 
" clip-path="url(#pdeafa84f46)" style="fill: none; stroke: #e5e5e5; stroke-width: 0.8; stroke-linecap: round"/>
     </g>
     <g id="text_11">
      <text style="font-size: 11px; font-family: 'Geist', 'Inter', 'Helvetica Neue', 'Arial', 'DejaVu Sans', sans-serif; text-anchor: end; fill: #525252" x="31.295313" y="32.086" transform="rotate(-0 31.295313 32.086)">6</text>
     </g>
    </g>
    <g id="text_12">
     <text style="font-size: 12px; font-family: 'Geist', 'Inter', 'Helvetica Neue', 'Arial', 'DejaVu Sans', sans-serif; text-anchor: middle; fill: #0a0a0a" x="18.624" y="143.274" transform="rotate(-90 18.624 143.274)">running average of rolls</text>
    </g>
   </g>
   <g id="line2d_11">
    <path d="M 59.057131 26.85 
L 92.364038 73.4196 
L 111.84733 88.9428 
L 125.670946 119.9892 
L 136.393375 138.61704 
L 145.154238 158.7972 
L 152.561442 173.2116 
L 158.977853 184.0224 
L 164.63753 187.2564 
L 169.700283 175.87272 
L 174.2801 170.7924 
L 178.461145 158.7972 
L 182.307334 155.811969 
L 185.868349 153.2532 
L 189.183575 144.82632 
L 192.284761 140.3634 
L 197.944437 138.0996 
L 200.54246 137.146421 
L 203.00719 131.6316 
L 205.351641 135.5124 
L 209.722991 130.113026 
L 211.768053 135.5124 
L 213.72962 136.754256 
L 215.614242 132.527169 
L 217.427729 132.0628 
L 219.175257 136.6212 
L 222.490482 132.40776 
L 224.066089 129.002671 
L 225.591669 131.6316 
L 227.070299 135.5124 
L 228.504785 132.316447 
L 229.897686 135.95592 
L 231.251345 135.5124 
L 232.567912 138.868768 
L 233.849367 140.822968 
L 237.50062 142.706078 
L 240.893915 150.6828 
L 241.973774 153.10536 
L 243.029898 151.373061 
L 245.07496 150.0654 
L 246.065753 151.3524 
L 247.036527 150.725136 
L 247.988077 149.209341 
L 249.836448 149.864038 
L 250.734637 147.586 
L 251.616344 146.23752 
L 252.482164 144.1056 
L 253.332659 144.499516 
L 254.168362 143.274 
L 254.989779 141.300712 
L 255.79739 140.94552 
L 256.591651 139.075102 
L 258.141841 136.9908 
L 258.898576 137.4528 
L 259.643579 135.751218 
L 260.377207 137.6292 
L 261.099803 137.365916 
L 261.811693 136.425529 
L 262.51319 134.837478 
L 263.204594 134.62536 
L 263.88619 135.075127 
L 264.558252 136.1592 
L 265.87482 136.980811 
L 266.519819 136.133328 
L 267.156275 134.695389 
L 267.784411 136.3188 
L 268.404441 134.915354 
L 269.016573 134.726415 
L 269.621005 135.12432 
L 270.217929 134.362533 
L 270.807528 134.187249 
L 271.965456 136.0668 
L 272.534122 135.329774 
L 273.651654 134.977117 
L 274.200823 135.336 
L 274.743786 134.64031 
L 275.280682 134.99496 
L 275.811645 135.853569 
L 276.336806 134.668748 
L 277.370216 136.338102 
L 277.878704 135.675802 
L 278.381868 135.5124 
L 279.37266 138.0468 
L 279.860499 138.3348 
L 280.343435 137.685648 
L 280.821565 137.971521 
L 281.294985 137.338659 
L 282.228057 138.796154 
L 282.687886 138.17352 
L 283.143355 137.123298 
L 284.041544 139.3932 
L 284.48442 138.787938 
L 284.923252 139.0404 
L 285.358112 138.868768 
L 285.789072 139.9476 
L 286.216201 138.946736 
L 286.639567 139.188947 
L 287.059235 138.212087 
L 287.887733 137.104523 
L 288.296687 137.748793 
L 288.702189 137.208212 
L 289.104297 138.22896 
L 289.503069 138.078218 
L 289.898559 138.311666 
L 290.29082 137.405473 
L 290.679904 138.016142 
L 291.065864 137.126813 
L 291.448748 138.0996 
L 292.205484 137.816625 
L 292.579429 136.956419 
L 292.950486 137.542357 
L 293.318701 136.697377 
L 293.684115 136.218 
L 294.046771 135.395684 
L 294.40671 135.975779 
L 294.763974 135.5124 
L 295.1186 134.713412 
L 295.470629 135.625708 
L 295.820098 135.849861 
L 296.167043 135.735755 
L 296.511501 136.6212 
L 297.193097 136.386946 
L 297.530304 135.946615 
L 297.86516 135.189 
L 298.855952 135.8292 
L 299.181728 135.092854 
L 299.505309 135.616583 
L 299.826727 135.822864 
L 300.146008 136.643229 
L 300.463182 136.840042 
L 300.778277 136.121153 
L 301.091318 136.0164 
L 301.402334 136.213448 
L 301.711349 135.5124 
L 302.01839 135.413526 
L 302.323481 134.726415 
L 302.626647 135.5124 
L 302.927913 135.70644 
L 303.227302 135.030313 
L 303.524836 134.65 
L 304.406544 135.23016 
L 304.696887 135.138347 
L 304.985487 135.605353 
L 305.272364 135.2352 
L 305.557538 135.971666 
L 305.84103 136.151591 
L 306.122859 136.601747 
L 306.958562 135.5124 
L 307.50773 134.2776 
L 307.779979 134.723085 
L 308.319891 136.119453 
L 308.587589 135.77112 
L 309.643713 133.656365 
L 309.904157 133.079034 
L 310.420847 134.433247 
L 310.677123 133.860996 
L 310.93204 134.5268 
L 311.688776 133.0869 
L 311.938395 133.26033 
L 312.186725 133.91207 
L 312.433778 133.840671 
L 312.679568 133.2948 
L 312.924106 133.463653 
L 313.167406 132.9252 
L 313.409481 133.094213 
L 313.650342 132.79584 
L 313.890002 133.195504 
L 314.128473 133.360669 
L 314.601892 134.142706 
L 315.070693 133.327095 
L 315.30339 133.937583 
L 315.765429 132.912821 
L 315.994793 133.2948 
L 316.223068 133.452449 
L 316.676389 133.326034 
L 316.901456 133.481327 
L 317.125474 134.068381 
L 317.5704 133.2948 
L 317.791328 133.874631 
L 318.230159 133.32504 
L 318.448081 133.686141 
L 318.880983 133.563299 
L 319.095979 134.1264 
L 319.523109 133.383112 
L 319.946474 134.286884 
L 320.156767 134.834531 
L 320.366143 134.56751 
L 320.57461 135.1092 
L 320.782177 135.044028 
L 321.194641 134.119292 
L 321.806773 135.119408 
L 322.009096 134.664494 
L 322.210571 134.603091 
L 322.411205 135.12432 
L 322.611004 135.061519 
L 322.809977 135.191673 
L 323.205466 135.639639 
L 323.597727 134.755171 
L 323.792663 135.261012 
L 323.986812 135.199432 
L 324.180179 134.95132 
L 324.94596 136.187322 
L 325.135513 135.75686 
L 325.699728 136.841234 
L 325.886336 137.317423 
L 326.072223 137.070714 
L 326.257394 137.363243 
L 326.991022 136.5708 
L 327.353678 136.095979 
L 327.533985 136.558908 
L 327.713618 136.497081 
L 327.892582 136.608834 
L 328.248522 137.001711 
L 328.601845 137.218246 
L 329.646488 136.013148 
L 329.818409 136.12224 
L 329.989716 136.562011 
L 330.160415 136.503243 
L 330.33051 136.774003 
L 330.500005 136.714901 
L 330.668904 137.146421 
L 331.004931 136.377805 
L 331.172068 136.806 
L 331.338625 136.58667 
L 331.504607 136.690022 
L 331.670017 137.11273 
L 331.99914 136.360083 
L 332.16286 136.7796 
L 332.326023 136.722683 
L 332.650698 136.2964 
L 332.812217 136.397952 
L 333.133634 135.822864 
L 333.611765 137.04935 
L 333.77009 137.146421 
L 334.24196 138.192301 
L 334.553985 138.074482 
L 334.709241 138.316591 
L 335.018257 137.751323 
L 335.172022 137.694575 
L 335.478085 137.13864 
L 335.782211 137.911885 
L 335.933555 137.562634 
L 336.084424 137.653531 
L 336.384748 138.123779 
L 336.831744 138.387067 
L 337.127448 138.702751 
L 337.27462 138.787938 
L 337.567619 138.249013 
L 337.713451 138.05256 
L 338.003795 138.645094 
L 338.148311 138.309373 
L 338.292395 138.533382 
L 338.436047 138.478026 
L 338.864446 137.762805 
L 339.006401 138.122496 
L 339.289058 138.016142 
L 339.429766 138.0996 
L 339.570063 138.0468 
L 339.849435 137.537165 
L 340.403351 138.536978 
L 340.540838 138.217872 
L 340.677933 138.431292 
L 340.814638 138.2466 
L 340.950955 138.45873 
L 342.160712 136.71309 
L 342.293269 136.410436 
L 342.42546 136.6212 
L 342.55729 136.575633 
L 342.819868 137.246599 
L 342.950621 137.073157 
L 343.081019 137.405473 
L 343.340759 137.060536 
L 343.470104 137.265019 
L 343.599102 137.093852 
L 343.727754 137.172635 
L 344.111658 136.54179 
L 344.238948 136.498 
L 344.618805 136.12355 
L 344.74476 136.325133 
L 345.120655 135.95592 
L 345.245303 135.914555 
L 345.617318 136.390319 
L 345.740686 136.109446 
L 345.863738 136.425529 
L 345.986475 136.3836 
L 346.1089 136.460382 
L 346.231014 136.773168 
L 346.474314 136.5708 
L 347.077229 135.783379 
L 347.19691 135.975779 
L 347.316293 135.820553 
L 347.554173 136.087333 
L 347.790882 135.893805 
L 347.9088 136.083106 
L 348.143772 136.004599 
L 348.610297 135.174939 
L 348.841872 135.773608 
L 349.301701 135.62328 
L 349.529975 135.990603 
L 349.643707 135.842681 
L 349.757171 135.915125 
L 349.870367 135.658501 
L 349.983297 135.949673 
L 350.208364 135.657477 
L 350.65536 136.3748 
L 350.877308 135.870077 
L 351.098236 136.117662 
L 351.20832 136.080755 
L 351.318152 135.83137 
L 351.427734 136.113526 
L 351.646152 135.7236 
L 351.754989 135.47728 
L 352.510026 136.895313 
L 352.723589 136.510566 
L 352.830016 136.474014 
L 352.936208 136.232019 
L 353.042165 136.298818 
L 353.358643 137.006975 
L 353.463674 136.868138 
L 353.67305 137.098466 
L 353.777397 137.364409 
L 353.881518 137.226 
L 354.089085 137.553166 
L 354.501549 137.104523 
L 355.113681 138.066851 
L 355.517479 137.623295 
L 355.6179 137.586481 
L 355.818116 137.319675 
L 356.017501 137.633583 
L 356.116884 137.404691 
L 356.216062 137.656842 
L 356.413806 137.48866 
L 356.512374 137.54823 
L 356.708905 137.19144 
L 356.904635 137.216166 
L 357.099571 137.052151 
L 357.196743 137.11176 
L 357.390501 136.668051 
L 357.58348 136.881179 
L 357.679679 136.661117 
L 357.871503 136.965767 
L 357.967128 136.932017 
L 358.062563 137.0832 
L 358.442421 136.673584 
L 358.725356 137.213573 
L 358.819299 137.270887 
L 358.913058 137.509537 
L 359.10003 137.079791 
L 359.193244 137.317423 
L 359.379131 137.070714 
L 359.471805 137.21726 
L 359.840726 136.640281 
L 359.932516 136.78625 
L 360.11557 136.633848 
L 360.206836 136.513897 
L 360.4796 136.771829 
L 360.660586 136.708737 
L 360.840893 136.733326 
L 360.930793 136.702028 
L 361.020525 136.931499 
L 361.110091 136.726505 
L 361.199489 136.781955 
L 361.466691 137.205318 
L 361.555429 137.087632 
L 361.644004 137.227671 
L 361.732416 137.024771 
L 361.996679 137.442158 
L 362.084444 137.325328 
L 362.17205 137.463403 
L 362.259496 137.34696 
L 362.346784 137.569013 
L 362.433913 137.368435 
L 362.520884 137.589646 
L 362.607699 137.389755 
L 362.867204 137.797683 
L 363.125316 137.36964 
L 363.296624 137.390652 
L 363.552445 137.215831 
L 363.637418 137.020838 
L 363.891436 137.340264 
L 363.975811 137.146421 
L 364.060039 137.361047 
L 364.228052 137.056593 
L 364.311839 137.189122 
L 364.39548 137.32119 
L 364.728595 136.96016 
L 364.976925 137.352779 
L 365.059417 137.163238 
L 365.223978 137.422948 
L 365.306047 137.472668 
L 365.469767 137.73 
L 365.632931 137.748793 
L 365.795543 137.846124 
L 365.876643 137.658947 
L 366.038433 137.990894 
L 366.119124 137.804416 
L 366.199681 137.930587 
L 366.440542 137.763264 
L 366.520561 137.73369 
L 366.680202 137.520376 
L 366.839313 137.539396 
L 366.9979 137.941896 
L 367.234803 137.77726 
L 367.313512 137.976803 
L 367.548868 137.737223 
L 367.627064 137.859811 
L 367.860893 137.546994 
L 368.016149 137.715693 
L 368.093589 137.612157 
L 368.325164 137.900585 
L 368.632205 137.638189 
L 368.861205 137.480476 
L 369.013267 137.79306 
L 369.089118 137.691524 
L 369.240463 137.928747 
L 369.315956 137.754369 
L 369.391331 137.87251 
L 369.541728 137.525565 
L 369.766444 137.805874 
L 369.915673 137.82283 
L 370.06444 137.479792 
L 370.212748 137.784671 
L 370.286731 137.685648 
L 370.581528 138.004657 
L 370.72825 137.736761 
L 370.874527 137.89514 
L 370.947498 137.867969 
L 371.093109 137.954779 
L 371.16575 137.786947 
L 371.238281 137.830344 
L 371.455219 138.029676 
L 371.527315 138.002628 
L 371.742955 138.339013 
L 371.81462 138.311666 
L 371.886179 138.1458 
L 371.957631 138.257215 
L 372.028978 138.161017 
L 372.171353 138.313924 
L 372.242383 138.218069 
L 372.313308 138.328556 
L 372.454845 138.206132 
L 372.525457 138.247766 
L 372.666371 138.603403 
L 372.736674 138.508105 
L 372.806874 138.549055 
L 373.156342 138.144595 
L 373.572377 138.657186 
L 373.847746 138.483984 
L 373.98484 138.232277 
L 374.189752 138.61704 
L 374.325876 138.498475 
L 374.461615 138.249212 
L 374.731949 138.734607 
L 374.933706 138.525982 
L 375.201404 138.87576 
L 375.334696 138.62994 
L 375.46762 138.707092 
L 375.666318 138.43768 
L 376.257529 139.161196 
L 376.322772 139.135182 
L 376.452993 138.831298 
L 376.517972 138.994631 
L 376.582863 138.906136 
L 376.777012 139.017639 
L 376.841554 138.867078 
L 376.906009 138.966624 
L 377.162971 138.865411 
L 377.226997 139.026307 
L 377.290938 138.939064 
L 377.609374 139.306049 
L 377.799427 139.229798 
L 377.862611 139.082124 
L 378.114521 139.469294 
L 378.177293 139.322272 
L 378.365117 139.67076 
L 378.427563 139.52424 
L 378.489927 139.680107 
L 378.552211 139.594278 
L 378.676536 139.543619 
L 378.80054 139.73327 
L 378.924226 139.562798 
L 378.985949 139.717015 
L 379.047593 139.632018 
L 379.170645 139.462677 
L 379.659725 138.852835 
L 379.841855 139.075102 
L 380.083625 138.862451 
L 380.143878 138.897158 
L 380.324185 138.651924 
L 380.444014 138.779425 
L 380.563546 138.501339 
L 380.742288 138.951327 
L 380.801721 138.812759 
L 380.920367 138.881183 
L 381.038721 138.605584 
L 381.097789 138.697135 
L 381.333337 138.776447 
L 381.567736 138.401755 
L 381.684508 138.300548 
L 381.917205 137.987113 
L 382.26415 137.690115 
L 382.321732 137.836232 
L 382.379244 137.703474 
L 382.608608 137.89632 
L 382.722881 138.01971 
L 382.779916 137.887836 
L 382.836883 137.976984 
L 383.12071 138.255015 
L 383.290204 138.190699 
L 383.459103 138.344703 
L 383.571374 138.193186 
L 383.795131 138.487229 
L 383.962267 138.5308 
L 384.073369 138.380428 
L 384.128824 138.466642 
L 384.294806 138.29587 
L 384.460217 138.179616 
L 384.843975 138.29952 
L 384.953059 138.1524 
L 385.007509 138.237311 
L 385.116223 138.353935 
L 385.170488 138.228084 
L 385.224692 138.365029 
L 385.278835 138.291892 
L 385.332917 138.376072 
L 385.386938 138.355413 
L 385.440898 138.4916 
L 385.494798 138.366441 
L 385.656136 138.200775 
L 386.08374 138.348865 
L 386.243115 138.23667 
L 386.454797 138.361163 
L 386.56029 138.320874 
L 386.612949 138.453817 
L 386.665551 138.331712 
L 386.823011 138.220919 
L 386.927699 138.333264 
L 387.084305 137.970521 
L 387.136393 138.102403 
L 387.292321 138.244886 
L 387.551082 138.446968 
L 387.705672 138.487403 
L 388.013368 138.567498 
L 388.064459 138.498265 
L 388.115497 138.57749 
L 388.369874 138.823579 
L 388.521856 139.058226 
L 388.57241 138.989205 
L 388.824386 138.743694 
L 388.97494 138.927828 
L 389.125024 138.965586 
L 389.27464 138.810075 
L 389.572482 138.597856 
L 389.720714 138.492727 
L 389.917647 138.702751 
L 390.113777 138.816218 
L 390.211542 138.872605 
L 390.309109 138.928763 
L 390.455089 138.777138 
L 390.890387 138.65437 
L 390.938511 138.728919 
L 390.986587 138.61704 
L 391.034614 138.598431 
L 391.130526 138.793475 
L 391.17841 138.681978 
L 391.226247 138.709716 
L 391.274036 138.598523 
L 391.321777 138.718781 
L 391.654645 139.094677 
L 391.938137 138.662696 
L 392.126206 138.862622 
L 392.219966 138.689663 
L 392.266777 138.762145 
L 392.360263 138.816171 
L 392.453567 138.915158 
L 392.546691 138.743269 
L 392.593185 138.77017 
L 392.639634 138.842014 
L 392.686038 138.778865 
L 392.963527 138.760056 
L 393.19355 138.981768 
L 393.376779 139.175343 
L 393.513744 139.164918 
L 393.650319 139.286726 
L 393.786507 139.23211 
L 393.831818 139.301758 
L 393.877086 139.195871 
L 394.057731 139.036429 
L 394.192771 139.026539 
L 394.416998 139.328159 
L 394.595629 139.5156 
L 394.729168 139.676811 
L 394.773599 139.572535 
L 394.817988 139.640453 
L 394.995138 139.739509 
L 395.171636 139.581726 
L 395.21566 139.691723 
L 395.347489 139.935449 
L 395.391352 139.874759 
L 395.74082 139.519748 
L 396.001264 139.749814 
L 396.087766 139.798032 
L 396.260303 139.935677 
L 396.560762 139.728407 
L 396.731612 139.534383 
L 396.859353 139.647341 
L 396.986755 139.554186 
L 397.071502 139.519711 
L 397.324851 139.865971 
L 397.534959 140.104341 
L 397.702387 140.277347 
L 397.744153 140.219261 
L 397.785883 140.28255 
L 397.827576 140.305339 
L 397.869234 140.207025 
L 397.910855 140.10888 
L 397.993989 140.154602 
L 398.201198 140.147986 
L 398.283832 140.07334 
L 398.325096 140.136048 
L 398.407518 140.261142 
L 398.448675 140.243786 
L 398.612955 140.095188 
L 398.817518 140.088908 
L 398.939839 140.195671 
L 399.18355 139.857849 
L 399.224049 139.958809 
L 399.345341 139.986734 
L 399.506588 139.880738 
L 399.747449 140.052936 
L 399.787476 140.03623 
L 399.827469 140.135782 
L 399.907355 140.102316 
L 399.987109 139.953116 
L 400.026937 140.052325 
L 400.26521 140.029869 
L 400.304808 140.128442 
L 400.344373 140.035209 
L 400.423405 139.887468 
L 400.462873 139.985834 
L 400.699 140.001953 
L 400.738241 139.909584 
L 400.777451 140.007291 
L 400.855775 140.12638 
L 400.894889 140.109995 
L 401.051028 139.931413 
L 401.206661 139.866927 
L 401.361792 140.065538 
L 401.516424 140.038441 
L 401.670559 140.197946 
L 401.747442 140.05396 
L 401.785837 140.149522 
L 401.939112 140.233628 
L 402.0919 139.91064 
L 402.130021 140.005634 
L 402.206173 140.047682 
L 402.244204 139.958127 
L 402.282204 140.015969 
L 402.396026 140.115494 
L 402.433907 140.026238 
L 402.471758 140.083799 
L 402.585132 140.182774 
L 402.622864 140.166923 
L 402.660566 140.078047 
L 402.735882 140.155988 
L 402.811081 140.233686 
L 402.848636 140.181487 
L 402.886161 140.12937 
L 402.961125 140.206867 
L 403.035972 140.284123 
L 403.073352 140.232129 
L 403.297022 140.066032 
L 403.445559 140.111867 
L 403.556661 140.029544 
L 403.667507 139.983368 
L 403.998519 139.739541 
L 404.071769 139.567585 
L 404.108352 139.659008 
L 404.181434 139.770664 
L 404.363656 139.942564 
L 404.436351 139.7716 
L 404.508937 139.882327 
L 404.65378 139.857494 
L 404.87023 140.117035 
L 404.97809 140.176321 
L 405.121528 140.046748 
L 405.193087 140.12085 
L 405.228826 140.071258 
L 405.300225 139.903149 
L 405.371519 139.97719 
L 405.513789 140.227873 
L 405.549291 140.212926 
L 405.584766 140.129263 
L 405.655639 140.202534 
L 405.761752 140.089461 
L 405.797072 140.006258 
L 405.867632 140.04522 
L 406.043582 140.176168 
L 406.148843 140.199931 
L 406.218889 140.373999 
L 406.288833 140.344349 
L 406.498057 140.087304 
L 406.637036 140.19738 
L 406.706374 140.235392 
L 406.741006 140.153703 
L 406.810195 140.057682 
L 406.844752 140.076734 
L 407.051575 140.223808 
L 407.22325 140.018778 
L 407.291748 140.189262 
L 407.325961 140.108593 
L 407.428453 139.999575 
L 407.462568 140.051476 
L 407.700701 140.149627 
L 407.90388 139.868066 
L 407.971416 139.97096 
L 408.005148 139.924257 
L 408.474931 139.406684 
L 408.575004 139.656944 
L 408.641604 139.565202 
L 408.674869 139.487199 
L 408.741331 139.524616 
L 408.873979 139.502857 
L 409.171105 139.25498 
L 409.302573 139.3932 
L 409.368173 139.303195 
L 409.433683 139.372051 
L 409.466405 139.453961 
L 409.531781 139.36418 
L 409.597069 139.401104 
L 409.629679 139.324746 
L 409.727379 139.253943 
L 409.759901 139.303926 
L 409.954574 139.288596 
L 410.051615 139.187024 
L 410.083919 139.236716 
L 410.245113 139.234641 
L 410.309439 139.208894 
L 410.34157 139.289435 
L 410.469879 139.269014 
L 410.597846 139.279666 
L 410.629785 139.328735 
L 410.661702 139.284971 
L 410.884533 139.041799 
L 411.169519 139.112722 
L 411.20108 139.03901 
L 411.26414 139.166714 
L 411.295639 139.093112 
L 411.4842 139.079088 
L 411.54689 139.236349 
L 411.640772 139.198781 
L 411.765663 139.118698 
L 411.796835 139.166694 
L 412.045486 139.157848 
L 412.107448 139.283177 
L 412.16933 139.198411 
L 412.200242 139.126161 
L 412.231133 139.203649 
L 412.477553 139.552005 
L 412.508267 139.569262 
L 412.538961 139.497283 
L 412.569635 139.425396 
L 412.630926 139.519345 
L 412.753273 139.588103 
L 412.875309 139.479331 
L 412.90577 139.496491 
L 412.997036 139.63621 
L 413.02742 139.564917 
L 413.088129 139.5696 
L 413.118455 139.645391 
L 413.148762 139.721086 
L 413.239569 139.683833 
L 413.269799 139.642157 
L 413.330204 139.734476 
L 413.959908 139.592894 
L 414.610864 139.898772 
L 414.640245 139.829671 
L 414.698952 139.890738 
L 414.96225 140.121292 
L 415.136983 140.020044 
L 415.25312 140.252737 
L 415.311084 140.200238 
L 415.426801 140.207631 
L 415.455687 140.139508 
L 415.513407 140.227129 
L 415.858277 140.665214 
L 415.886905 140.597427 
L 415.972686 140.56067 
L 416.001246 140.603788 
L 416.172249 140.585702 
L 416.285913 140.674575 
L 416.370986 140.555609 
L 416.427617 140.613664 
L 416.597112 140.541042 
L 416.737902 140.589912 
L 416.794103 140.484179 
L 416.850238 140.59618 
L 417.074125 140.608628 
L 417.213527 140.62984 
L 417.352525 140.597122 
L 417.518795 140.472317 
L 417.629322 140.452005 
L 417.794637 140.328413 
L 417.931967 140.429852 
L 418.096247 140.174658 
L 418.123572 140.242608 
L 418.205455 140.208124 
L 418.423131 139.879944 
L 418.477396 139.910056 
L 418.504505 139.846288 
L 418.585742 139.707859 
L 418.774763 139.52597 
L 418.909324 139.705748 
L 418.936191 139.642665 
L 419.097079 139.680747 
L 419.257429 139.718575 
L 419.390647 139.560809 
L 419.417247 139.57575 
L 419.523497 139.558204 
L 419.629513 139.540735 
L 419.761705 139.589372 
L 419.946165 139.361338 
L 420.077489 139.384727 
L 420.260743 139.336223 
L 420.286865 139.401637 
L 420.469324 139.630628 
L 420.857989 139.547432 
L 420.883789 139.586928 
L 420.935346 139.491 
L 421.498859 139.312993 
L 421.524317 139.376756 
L 421.575192 139.25768 
L 421.676781 139.192398 
L 421.854048 139.391159 
L 421.980267 139.291395 
L 422.005471 139.330114 
L 422.131294 139.328249 
L 422.20663 139.224998 
L 422.231716 139.287876 
L 422.356948 139.358857 
L 422.531727 139.167759 
L 422.556644 139.230243 
L 422.705873 139.363116 
L 422.953563 139.191678 
L 423.298197 139.173308 
L 423.445144 139.162129 
L 423.494027 139.071609 
L 423.54286 139.170483 
L 423.737698 139.351978 
L 423.761997 139.318645 
L 423.859071 139.232642 
L 423.907535 139.283661 
L 424.02848 139.399053 
L 424.052633 139.3893 
L 424.197295 139.424309 
L 424.293494 139.595002 
L 424.293494 139.595002 
" clip-path="url(#pdeafa84f46)" style="fill: none; stroke: #e8a48f; stroke-opacity: 0.9; stroke-width: 1.6; stroke-linecap: round"/>
   </g>
   <g id="line2d_12">
    <path d="M 59.057131 73.4196 
L 92.364038 166.5588 
L 111.84733 151.0356 
L 125.670946 131.6316 
L 136.393375 119.9892 
L 145.154238 127.7508 
L 152.561442 139.9476 
L 158.977853 143.274 
L 164.63753 140.6868 
L 169.700283 138.61704 
L 174.2801 128.4564 
L 178.461145 119.9892 
L 182.307334 116.406923 
L 185.868349 123.3156 
L 189.183575 123.09384 
L 192.284761 128.721 
L 195.197878 130.946753 
L 197.944437 138.0996 
L 203.00719 145.60248 
L 205.351641 144.3828 
L 207.587007 149.6244 
L 209.722991 152.385443 
L 211.768053 156.8568 
L 213.72962 159.107664 
L 215.614242 157.603108 
L 219.175257 161.5692 
L 220.861455 158.529559 
L 224.066089 165.056555 
L 227.070299 156.6804 
L 228.504785 159.710329 
L 229.897686 157.24488 
L 231.251345 160.0908 
L 232.567912 160.265611 
L 233.849367 156.754674 
L 235.097534 157.006062 
L 236.314098 154.9164 
L 237.50062 151.792829 
L 238.658549 149.9268 
L 239.789229 152.479619 
L 240.893915 151.7412 
L 243.029898 156.434974 
L 244.063308 154.668689 
L 246.065753 149.4516 
L 248.92115 150.438554 
L 249.836448 148.106694 
L 250.734637 150.1732 
L 251.616344 147.93096 
L 252.482164 149.9268 
L 253.332659 151.0356 
L 254.168362 150.500317 
L 254.989779 152.351125 
L 255.79739 151.81176 
L 256.591651 153.580387 
L 257.372997 153.038594 
L 258.141841 153.9924 
L 259.643579 152.946148 
L 260.377207 151.0356 
L 261.811693 150.122471 
L 263.204594 150.59208 
L 263.88619 150.161054 
L 265.87482 152.713784 
L 267.156275 151.852611 
L 267.784411 152.0436 
L 268.404441 151.0356 
L 269.016573 152.411073 
L 269.621005 152.58792 
L 270.217929 151.610533 
L 270.807528 152.928673 
L 271.965456 154.362 
L 272.534122 152.861859 
L 273.096137 154.10414 
L 273.651654 153.712014 
L 274.200823 153.858 
L 274.743786 153.477452 
L 275.811645 151.717938 
L 277.370216 150.705319 
L 277.878704 151.362404 
L 278.381868 151.5207 
L 278.879818 150.235435 
L 279.860499 152.4468 
L 280.343435 153.053616 
L 281.294985 152.405294 
L 281.763786 151.638443 
L 282.228057 151.781908 
L 283.143355 152.939389 
L 283.594549 152.631443 
L 284.041544 151.898 
L 284.48442 150.750771 
L 284.923252 150.89448 
L 285.358112 150.196508 
L 285.789072 149.0952 
L 286.216201 148.837625 
L 286.639567 149.401579 
L 287.059235 150.360678 
L 287.47527 149.295931 
L 287.887733 149.045446 
L 288.296687 149.98318 
L 288.702189 150.122471 
L 289.104297 149.48328 
L 289.503069 149.6244 
L 289.898559 150.526643 
L 290.679904 151.536348 
L 291.065864 151.656528 
L 291.448748 150.666 
L 292.205484 150.914325 
L 292.950486 149.005643 
L 293.318701 149.850623 
L 293.684115 148.9188 
L 294.046771 149.401579 
L 294.40671 148.834549 
L 294.763974 149.3108 
L 295.470629 149.562596 
L 296.167043 147.796947 
L 296.511501 147.93096 
L 296.853508 147.732791 
L 297.530304 149.298738 
L 298.197699 147.60979 
L 298.527953 147.101638 
L 298.855952 147.5508 
L 299.181728 148.308551 
L 299.505309 148.118489 
L 300.146008 146.512283 
L 300.463182 146.337789 
L 300.778277 146.469953 
L 301.091318 145.9956 
L 301.402334 145.226919 
L 301.711349 145.662185 
L 302.01839 145.498662 
L 302.323481 145.926699 
L 302.626647 145.470679 
L 302.927913 144.7293 
L 303.227302 145.154139 
L 303.524836 144.9988 
L 303.82054 145.416773 
L 304.406544 146.802 
L 304.985487 147.038608 
L 305.557538 145.891818 
L 305.84103 146.013388 
L 306.122859 146.405874 
L 306.403044 146.523042 
L 306.681606 147.177232 
L 307.23393 147.398736 
L 307.50773 146.9784 
L 307.779979 146.299708 
L 308.050693 146.413524 
L 308.319891 146.786232 
L 308.853804 145.46097 
L 309.118553 145.832769 
L 309.643713 144.792574 
L 309.904157 144.910229 
L 310.163196 145.276994 
L 310.420847 145.888871 
L 310.677123 145.503396 
L 310.93204 145.6148 
L 311.688776 147.39735 
L 311.938395 147.014046 
L 312.186725 147.354841 
L 312.433778 147.214505 
L 312.679568 146.6004 
L 312.924106 146.701712 
L 313.409481 147.369317 
L 313.650342 147.465264 
L 313.890002 147.096878 
L 314.128473 147.654309 
L 314.365766 147.288621 
L 314.601892 147.1548 
L 314.836865 146.567947 
L 315.070693 147.117122 
L 315.30339 146.536122 
L 315.534965 147.080169 
L 315.765429 147.173368 
L 315.994793 146.82216 
L 316.223068 146.69499 
L 316.450263 147.008355 
L 316.676389 146.444231 
L 316.901456 146.973454 
L 317.348452 146.7236 
L 317.5704 146.171187 
L 318.448081 148.225971 
L 318.66502 147.889005 
L 318.880983 147.763894 
L 319.095979 147.8478 
L 319.310019 148.137936 
L 319.523109 147.601264 
L 319.735258 147.684777 
L 319.946474 147.359053 
L 320.156767 147.442894 
L 320.366143 147.728483 
L 321.194641 149.443477 
L 321.399553 149.31814 
L 321.603594 149.391193 
L 321.806773 149.070638 
L 322.009096 149.144118 
L 322.210571 149.411834 
L 323.205466 148.045475 
L 323.401997 147.74088 
L 323.597727 147.817376 
L 323.792663 148.270334 
L 323.986812 147.968516 
L 324.180179 148.043176 
L 324.372772 147.744682 
L 324.564595 147.819638 
L 325.512391 146.548425 
L 325.699728 146.445082 
L 325.886336 146.884047 
L 326.257394 146.139822 
L 326.441854 146.039628 
L 326.625608 146.117945 
L 326.808662 146.018596 
L 327.172692 145.294945 
L 327.353678 144.849663 
L 327.533985 145.105389 
L 327.892582 144.399288 
L 328.070881 143.96392 
L 328.248522 143.875452 
L 328.601845 144.723969 
L 328.777537 144.633696 
L 329.127005 145.467496 
L 329.473951 144.614132 
L 329.646488 144.859703 
L 329.818409 144.43824 
L 329.989716 144.351233 
L 330.160415 144.760264 
L 330.33051 144.672734 
L 330.500005 145.077752 
L 330.668904 145.153124 
L 331.172068 144.2442 
L 331.338625 144.482554 
L 331.504607 144.076924 
L 331.670017 144.474247 
L 332.16286 143.9076 
L 332.326023 144.142247 
L 332.488635 144.060649 
L 332.812217 144.680464 
L 333.133634 144.205392 
L 333.452916 144.507632 
L 333.611765 144.119323 
L 333.77009 144.499516 
L 333.927895 144.11378 
L 334.24196 143.956616 
L 334.398226 144.03 
L 334.709241 143.874898 
L 335.018257 144.617354 
L 335.172022 144.2411 
L 335.325297 144.608797 
L 335.478085 144.23496 
L 335.630389 144.158233 
L 335.782211 144.375804 
L 335.933555 144.299117 
L 336.084424 144.368897 
L 336.234821 144.7293 
L 336.683207 143.922802 
L 336.831744 143.561467 
L 337.127448 143.988258 
L 337.421343 143.841922 
L 337.567619 144.194068 
L 337.858842 143.766428 
L 338.148311 143.204076 
L 338.292395 143.41343 
L 338.72207 142.652151 
L 338.864446 142.72288 
L 339.006401 142.655819 
L 339.147937 142.452184 
L 339.570063 143.206114 
L 339.988513 142.601029 
L 340.127191 142.670071 
L 340.540838 141.94344 
L 340.677933 141.748215 
L 340.950955 142.152636 
L 341.222434 141.503043 
L 341.760834 142.560538 
L 341.894497 142.49784 
L 342.160712 141.987547 
L 342.42546 142.634308 
L 342.55729 142.31709 
L 342.688758 142.510564 
L 342.819868 142.322305 
L 342.950621 142.388165 
L 343.211064 141.889498 
L 343.340759 141.579419 
L 343.599102 142.087911 
L 343.856064 141.72168 
L 343.984031 141.787736 
L 344.238948 141.426 
L 344.365901 141.738063 
L 344.618805 141.257206 
L 344.74476 141.567261 
L 345.120655 140.91528 
L 345.369628 141.408809 
L 345.493633 141.233579 
L 345.617318 141.538115 
L 345.740686 141.363452 
L 345.986475 141.7296 
L 346.1089 141.674281 
L 346.352818 141.21079 
L 346.474314 141.3924 
L 346.595504 141.221184 
L 347.077229 141.590062 
L 347.554173 142.296613 
L 347.790882 141.958151 
L 347.9088 142.132588 
L 348.49409 141.751749 
L 348.726224 141.534653 
L 348.841872 141.706754 
L 348.957243 141.431318 
L 349.072337 141.714253 
L 349.187155 141.662403 
L 349.529975 142.0601 
L 349.643707 142.007923 
L 349.870367 141.685155 
L 350.320503 141.482862 
L 350.432381 141.75778 
L 350.987899 141.614623 
L 351.20832 141.622218 
L 351.318152 141.360181 
L 351.537067 141.79224 
L 351.646152 141.6372 
L 351.86358 141.959959 
L 352.08003 142.279818 
L 352.295509 142.284266 
L 352.510026 142.496111 
L 352.616926 142.342608 
L 352.723589 142.396302 
L 353.042165 142.043085 
L 353.14789 141.994615 
L 353.253382 141.742105 
L 353.777397 141.910248 
L 353.881518 141.8628 
L 354.398764 142.625815 
L 354.501549 142.577446 
L 354.604114 142.82717 
L 354.910502 142.287356 
L 355.012199 142.141758 
L 355.214949 142.342608 
L 355.517479 142.78687 
L 355.6179 142.642053 
L 355.718113 142.88592 
L 355.917912 142.597678 
L 356.216062 142.649871 
L 356.512374 142.415134 
L 356.708905 142.70376 
L 356.904635 142.611424 
L 357.196743 143.13288 
L 357.390501 142.758642 
L 357.487087 142.99346 
L 357.58348 142.760708 
L 357.679679 142.994582 
L 357.775687 142.948663 
L 358.15781 143.412326 
L 358.347738 143.044367 
L 358.442421 143.274 
L 358.536918 143.045269 
L 358.631229 143.091374 
L 358.819299 143.546869 
L 358.913058 143.500947 
L 359.006635 143.274 
L 359.10003 143.319213 
L 359.286277 143.679345 
L 359.564302 143.274 
L 359.840726 142.873306 
L 359.932516 143.00738 
L 360.02413 142.786128 
L 360.11557 142.831323 
L 360.206836 142.964714 
L 360.29793 142.833 
L 360.388851 143.053917 
L 360.840893 142.40191 
L 360.930793 142.621155 
L 361.020525 142.578931 
L 361.199489 142.668076 
L 361.288722 142.4532 
L 361.377789 142.58408 
L 361.644004 142.201956 
L 361.732416 142.417941 
L 361.908752 142.079908 
L 362.17205 142.637803 
L 362.520884 142.558192 
L 362.607699 142.769636 
L 362.780858 142.520176 
L 362.867204 142.730549 
L 363.039433 142.649184 
L 363.125316 142.60872 
L 363.467323 142.035447 
L 363.552445 141.914003 
L 363.637418 142.039823 
L 363.891436 141.51434 
L 364.144119 141.808523 
L 364.228052 141.689171 
L 364.311839 141.894761 
L 364.478975 141.57615 
L 364.562326 141.780867 
L 364.645532 141.743165 
L 364.976925 141.513637 
L 365.306047 142.161416 
L 365.551418 141.890353 
L 365.632931 142.090027 
L 365.714306 141.973834 
L 365.795543 142.172692 
L 365.957606 142.0196 
L 366.038433 142.060842 
L 366.119124 141.945672 
L 366.199681 142.142913 
L 366.280102 141.950115 
L 366.360389 142.068944 
L 366.440542 141.876912 
L 366.520561 141.91798 
L 366.600448 141.804195 
L 366.759823 141.963266 
L 366.918672 141.73705 
L 366.9979 141.854663 
L 367.155965 141.782855 
L 367.234803 141.976159 
L 367.313512 141.787736 
L 367.392092 141.9804 
L 367.470544 141.944525 
L 367.783076 142.179577 
L 367.860893 142.369736 
L 368.093589 141.961652 
L 368.170905 142.001197 
L 368.325164 141.632123 
L 368.402108 141.672006 
L 368.47893 141.711761 
L 368.555628 141.899937 
L 368.632205 141.865047 
L 368.784993 141.7956 
L 369.013267 141.986531 
L 369.240463 142.029215 
L 369.315956 141.994615 
L 369.541728 142.328055 
L 369.61675 142.220554 
L 369.841117 142.695496 
L 369.915673 142.588091 
L 369.990114 142.769376 
L 370.06444 142.590211 
L 370.286731 142.844127 
L 370.434355 142.988297 
L 370.507998 142.810443 
L 370.581528 142.917963 
L 370.654945 142.811859 
L 370.947498 143.380001 
L 371.093109 143.16832 
L 371.16575 143.274 
L 371.238281 143.168639 
L 371.383015 143.449074 
L 371.455219 143.413849 
L 371.599302 143.274 
L 371.742955 143.482521 
L 371.886179 143.274 
L 371.957631 143.446993 
L 372.100218 143.239504 
L 372.171353 143.274 
L 372.242383 143.10203 
L 372.313308 143.136627 
L 372.525457 143.308192 
L 372.736674 143.546337 
L 372.876971 143.477657 
L 373.01686 143.341688 
L 373.295421 143.74508 
L 373.434099 143.47531 
L 373.572377 143.742372 
L 373.710259 143.540874 
L 373.98484 143.937385 
L 374.053242 143.837075 
L 374.257862 144.131514 
L 374.393794 144.063315 
L 374.529342 144.126683 
L 374.596972 144.027235 
L 374.866548 144.54408 
L 375.13462 144.342704 
L 375.401204 144.465615 
L 375.666318 144.138772 
L 375.732368 144.297508 
L 375.798328 144.264163 
L 375.995666 143.910197 
L 376.061265 143.941095 
L 376.192196 143.7492 
L 376.387927 143.905024 
L 376.452993 144.061713 
L 376.517972 143.966251 
L 376.777012 143.586968 
L 377.226997 144.049126 
L 377.418566 143.829871 
L 377.482253 143.736612 
L 377.545855 143.8284 
L 377.609374 143.981464 
L 377.736159 143.734174 
L 378.114521 144.400193 
L 378.302591 144.2442 
L 378.365117 144.394335 
L 378.552211 144.118526 
L 378.676536 144.296847 
L 378.80054 144.29421 
L 378.862423 144.442735 
L 378.924226 144.411304 
L 379.170645 144.048175 
L 379.232053 144.195876 
L 379.293383 144.165 
L 379.537921 143.805886 
L 379.598862 143.952771 
L 379.659725 143.863489 
L 379.841855 143.47954 
L 379.902411 143.625911 
L 380.384137 142.693332 
L 380.444014 142.607063 
L 380.503817 142.694776 
L 380.623201 142.696213 
L 380.742288 142.755279 
L 380.861081 142.469093 
L 380.920367 142.556219 
L 381.097789 142.701892 
L 381.274558 142.447489 
L 381.392044 142.620092 
L 381.45068 142.478909 
L 381.509244 142.621685 
L 381.626158 142.5101 
L 381.800997 142.371925 
L 381.859136 142.513795 
L 381.917205 142.374104 
L 382.090991 142.629535 
L 382.26415 142.32474 
L 382.321732 142.465306 
L 382.379244 142.327011 
L 382.55137 142.247138 
L 382.722881 142.27845 
L 382.779916 142.196767 
L 382.836883 142.335987 
L 382.893782 142.199317 
L 383.12071 141.820414 
L 383.233772 141.878554 
L 383.290204 141.743544 
L 383.34657 141.881826 
L 383.459103 141.72168 
L 383.515271 141.805099 
L 383.571374 141.833983 
L 383.627411 141.699969 
L 383.683382 141.783122 
L 383.850907 141.869348 
L 383.906619 141.790032 
L 384.01785 141.954977 
L 384.128824 141.743165 
L 384.184215 141.879058 
L 384.239543 141.853868 
L 384.350006 142.070997 
L 384.405143 142.045673 
L 384.515227 141.888634 
L 384.570175 141.810384 
L 384.62506 141.944959 
L 384.679882 141.813722 
L 384.734642 141.735824 
L 384.789339 141.817044 
L 384.843975 141.89808 
L 384.953059 141.6372 
L 385.007509 141.770904 
L 385.170488 142.117644 
L 385.386938 141.704238 
L 385.440898 141.732133 
L 385.602416 141.971718 
L 385.763394 141.846281 
L 385.816933 141.8738 
L 386.08374 141.494763 
L 386.401964 142.018824 
L 386.612949 141.769287 
L 386.665551 141.694506 
L 386.875384 142.005765 
L 386.979958 142.10976 
L 387.136393 142.391044 
L 387.292321 142.167595 
L 387.551082 142.698758 
L 387.705672 142.575955 
L 387.757091 142.651412 
L 387.962222 142.406089 
L 388.115497 142.581883 
L 388.16648 142.459155 
L 388.268285 142.26376 
L 388.319106 142.33867 
L 388.420588 142.389767 
L 388.622911 142.051059 
L 388.673359 142.174508 
L 388.723754 142.102438 
L 388.774097 142.079283 
L 388.824386 142.202315 
L 388.874623 142.081779 
L 389.02502 141.8187 
L 389.075048 141.844444 
L 389.125024 141.870135 
L 389.27464 141.609076 
L 389.324409 141.634904 
L 389.572482 141.907127 
L 389.770023 141.673916 
L 389.819281 141.794843 
L 389.868489 141.677192 
L 390.113777 141.519341 
L 390.211542 141.380927 
L 390.309109 141.57369 
L 390.357819 141.551821 
L 390.406479 141.435726 
L 390.455089 141.555304 
L 390.552164 141.69975 
L 390.600627 141.630919 
L 390.890387 141.174168 
L 390.938511 141.292811 
L 391.034614 141.389815 
L 391.130526 141.532863 
L 391.17841 141.511406 
L 391.226247 141.443653 
L 391.274036 141.561202 
L 391.464717 141.890745 
L 391.51227 141.776955 
L 391.70201 141.736974 
L 391.891004 141.971514 
L 392.266777 142.07235 
L 392.500152 141.73973 
L 392.686038 141.835557 
L 392.824983 141.862121 
L 392.963527 141.665069 
L 393.00962 141.688937 
L 393.147634 141.760265 
L 393.19355 141.650513 
L 393.239423 141.718718 
L 393.285252 141.742397 
L 393.468132 141.39441 
L 393.650319 141.709931 
L 393.922311 141.499711 
L 393.967493 141.567032 
L 394.012634 141.459316 
L 394.327433 141.536328 
L 394.372236 141.429445 
L 394.416998 141.496203 
L 394.461718 141.519517 
L 394.506397 141.412947 
L 394.551034 141.522775 
L 394.640183 141.612341 
L 394.684696 141.50608 
L 394.729168 141.615416 
L 394.906645 141.964901 
L 394.950912 141.858902 
L 394.995138 141.881625 
L 395.083468 142.098 
L 395.127572 141.992268 
L 395.391352 141.744342 
L 395.697276 141.817381 
L 395.827792 141.800278 
L 395.957955 142.035223 
L 396.001264 141.931453 
L 396.044534 141.911703 
L 396.130958 142.123358 
L 396.174112 142.019882 
L 396.303341 141.919021 
L 396.346341 141.982714 
L 396.389301 141.879825 
L 396.646263 141.63889 
L 396.688957 141.743738 
L 396.77423 141.705166 
L 396.859353 141.790367 
L 396.901858 141.68874 
L 396.944325 141.587292 
L 396.986755 141.691538 
L 397.11382 141.757208 
L 397.1561 141.656147 
L 397.451026 141.197908 
L 397.618746 141.205141 
L 397.785883 141.41445 
L 397.993989 141.684113 
L 398.489798 141.859782 
L 398.694885 141.607967 
L 398.939839 141.813767 
L 399.143017 141.525184 
L 399.18355 141.585558 
L 399.224049 141.685063 
L 399.264514 141.5884 
L 399.70739 141.506763 
L 399.827469 141.569289 
L 400.026937 141.402728 
L 400.26521 141.411984 
L 400.344373 141.415049 
L 400.383905 141.512321 
L 400.462873 141.438745 
L 400.502308 141.497555 
L 400.581081 141.424184 
L 400.738241 141.202128 
L 400.777451 141.22281 
L 401.051028 141.177801 
L 401.1678 141.314761 
L 401.361792 141.153789 
L 401.516424 141.422438 
L 401.555004 141.405236 
L 401.593553 141.313371 
L 401.670559 141.353796 
L 401.900839 141.362977 
L 402.053749 141.627974 
L 402.0919 141.6108 
L 402.244204 141.763435 
L 402.358115 141.858902 
L 402.509579 141.716795 
L 402.886161 142.383325 
L 402.961125 142.348416 
L 402.998563 142.439809 
L 403.073352 142.585958 
L 403.110703 142.5684 
L 403.148024 142.478557 
L 403.222581 142.588091 
L 403.297022 142.733331 
L 403.334199 142.715741 
L 403.482622 142.645652 
L 403.814905 142.774785 
L 403.851684 142.68609 
L 403.925158 142.722565 
L 403.961853 142.77631 
L 403.998519 142.687884 
L 404.071769 142.546904 
L 404.108352 142.600619 
L 404.144907 142.689667 
L 404.181434 142.601643 
L 404.327267 142.46256 
L 404.363656 142.551307 
L 404.400017 142.463788 
L 404.436351 142.3764 
L 404.508937 142.448049 
L 404.545189 142.536472 
L 404.61761 142.432381 
L 404.689923 142.433646 
L 404.726038 142.346807 
L 404.798188 142.453006 
L 405.049862 142.16189 
L 405.085708 142.249538 
L 405.15732 142.147036 
L 405.228826 142.04484 
L 405.264539 142.063052 
L 405.335885 142.203037 
L 405.371519 142.152049 
L 405.513789 142.086527 
L 405.726407 142.331642 
L 405.867632 142.368575 
L 406.078694 142.440578 
L 406.148843 142.305923 
L 406.183879 142.357543 
L 406.253874 142.528344 
L 406.323767 142.46174 
L 406.46325 142.430348 
L 406.602329 142.500083 
L 406.741006 142.334556 
L 406.775613 142.419051 
L 407.017166 142.440017 
L 407.154653 142.475664 
L 407.394313 142.794072 
L 407.700701 142.682014 
L 407.802398 142.896586 
L 407.836249 142.814863 
L 408.139841 142.768871 
L 408.207046 142.769577 
L 408.307678 142.592018 
L 408.341175 142.641173 
L 408.374649 142.722689 
L 408.441527 142.658685 
L 408.54167 142.514537 
L 408.840851 142.278374 
L 409.006262 142.393819 
L 409.072267 142.267176 
L 409.138181 142.332394 
L 409.171105 142.348987 
L 409.204006 142.269933 
L 409.236884 142.222839 
L 409.26974 142.271305 
L 409.400939 142.369274 
L 409.564436 142.198343 
L 409.694834 142.138156 
L 409.922183 142.284828 
L 409.954574 142.238423 
L 410.01929 142.333833 
L 410.083919 142.335097 
L 410.116201 142.413917 
L 410.1807 142.290135 
L 410.373679 142.107427 
L 410.501902 142.110536 
L 410.565886 142.143068 
L 410.597846 142.066411 
L 410.757327 141.962398 
L 411.358575 141.780603 
L 411.421429 141.812993 
L 411.452825 141.768321 
L 411.640772 141.531806 
L 411.703258 141.56433 
L 411.73447 141.48984 
L 411.89023 141.480543 
L 411.983444 141.649479 
L 412.014475 141.605431 
L 412.107448 141.473629 
L 412.138399 141.549755 
L 412.16933 141.625784 
L 412.231133 141.538115 
L 412.569635 141.505722 
L 412.722715 141.526159 
L 412.81433 141.455568 
L 412.844829 141.501046 
L 412.90577 141.650852 
L 412.966633 141.564483 
L 412.997036 141.491925 
L 413.088129 141.5394 
L 413.571065 141.702276 
L 413.601088 141.659626 
L 413.661078 141.748795 
L 413.691044 141.735229 
L 413.720992 141.808726 
L 413.750922 141.882132 
L 413.810725 141.82594 
L 413.90029 141.698554 
L 413.959908 141.729379 
L 414.108629 141.950019 
L 414.138318 141.878926 
L 414.167988 141.836667 
L 414.227275 141.895861 
L 414.316068 142.027368 
L 414.345629 141.956533 
L 414.375172 141.885785 
L 414.463692 141.959766 
L 414.728279 142.23691 
L 414.845406 142.182746 
L 415.049696 142.399056 
L 415.224112 142.430348 
L 415.340039 142.292111 
L 415.368977 142.334758 
L 415.628639 142.57685 
L 415.800971 142.773849 
L 415.829633 142.704723 
L 415.886905 142.788611 
L 415.915516 142.8582 
L 415.972686 142.720259 
L 416.058315 142.596875 
L 416.086823 142.66633 
L 416.115315 142.735703 
L 416.20069 142.667769 
L 416.285913 142.517553 
L 416.342645 142.60087 
L 416.39931 142.656548 
L 416.427617 142.588346 
L 416.625303 142.495564 
L 416.709777 142.565095 
L 416.737902 142.497386 
L 417.074125 142.421622 
L 417.324758 142.627948 
L 417.491123 142.469226 
L 417.712051 142.659837 
L 417.739595 142.726907 
L 417.822135 142.687884 
L 418.014177 142.889237 
L 418.068906 142.995696 
L 418.123572 142.916587 
L 418.150882 142.90356 
L 418.178177 142.969883 
L 418.232719 143.102303 
L 418.287199 142.970572 
L 419.840846 143.644411 
L 419.946165 143.490662 
L 419.972458 143.503281 
L 420.129919 143.680278 
L 420.208456 143.540184 
L 420.286865 143.577715 
L 420.312973 143.564902 
L 420.339067 143.627949 
L 420.495333 143.8032 
L 420.521328 143.790321 
L 420.625167 143.814338 
L 420.780507 143.887747 
L 421.012579 143.573162 
L 421.089688 143.560238 
L 421.115364 143.622277 
L 421.192308 143.634138 
L 421.345828 143.533958 
L 421.371367 143.521447 
L 421.396892 143.583145 
L 421.447903 143.681638 
L 421.524317 143.619325 
L 421.879318 143.739206 
L 421.904575 143.677783 
L 421.95505 143.701805 
L 421.980267 143.762663 
L 422.4569 144.084432 
L 422.581547 144.118526 
L 422.631316 143.99713 
L 422.705873 144.080244 
L 422.978261 144.087652 
L 423.298197 144.046594 
L 423.494027 144.161829 
L 423.640378 144.206336 
L 423.834821 144.320112 
L 423.95595 144.235407 
L 423.980139 144.246641 
L 424.100902 144.396159 
L 424.149123 144.301614 
L 424.293494 144.43824 
L 424.293494 144.43824 
" clip-path="url(#pdeafa84f46)" style="fill: none; stroke: #525252; stroke-opacity: 0.7; stroke-width: 1.6; stroke-linecap: round"/>
   </g>
   <g id="line2d_13">
    <path d="M 59.057131 166.5588 
L 92.364038 96.7044 
L 111.84733 104.466 
L 125.670946 143.274 
L 136.393375 129.30312 
L 145.154238 112.2276 
L 152.561442 119.9892 
L 158.977853 131.6316 
L 164.63753 145.8612 
L 169.700283 157.24488 
L 174.2801 153.858 
L 178.461145 151.0356 
L 182.307334 155.811969 
L 185.868349 146.6004 
L 189.183575 141.72168 
L 192.284761 143.274 
L 195.197878 141.904306 
L 197.944437 143.274 
L 200.54246 149.401579 
L 203.00719 152.58792 
L 205.351641 151.0356 
L 207.587007 153.858 
L 209.722991 154.410209 
L 211.768053 158.7972 
L 213.72962 153.519312 
L 215.614242 152.229692 
L 217.427729 147.586 
L 219.175257 148.2636 
L 220.861455 147.288621 
L 222.490482 151.0356 
L 224.066089 147.029613 
L 225.591669 144.7293 
L 228.504785 137.795224 
L 229.897686 139.9476 
L 231.251345 138.0996 
L 232.567912 140.127405 
L 233.849367 143.274 
L 235.097534 143.871046 
L 237.50062 138.162702 
L 238.658549 138.8388 
L 241.973774 131.37288 
L 243.029898 134.162557 
L 244.063308 135.842681 
L 246.065753 131.394 
L 247.988077 136.425529 
L 248.92115 135.213877 
L 249.836448 135.805291 
L 250.734637 134.65 
L 251.616344 132.69 
L 252.482164 131.6316 
L 253.332659 132.244358 
L 254.168362 133.63891 
L 254.989779 131.828929 
L 255.79739 130.85544 
L 256.591651 131.440741 
L 257.372997 131.256039 
L 258.898576 135.26985 
L 259.643579 135.751218 
L 260.377207 137.6292 
L 261.099803 136.670848 
L 261.811693 137.795224 
L 263.204594 134.62536 
L 263.88619 135.731037 
L 264.558252 136.1592 
L 265.221045 134.661814 
L 265.87482 135.722173 
L 266.519819 134.270544 
L 267.156275 134.082632 
L 267.784411 135.714 
L 268.404441 136.706492 
L 269.016573 138.263347 
L 269.621005 139.19916 
L 270.217929 138.387067 
L 270.807528 139.298546 
L 271.965456 139.9476 
L 272.534122 138.61704 
L 273.096137 140.024958 
L 273.651654 140.865228 
L 274.200823 140.628 
L 274.743786 141.442611 
L 275.280682 141.72168 
L 276.336806 144.286383 
L 276.856289 144.025123 
L 277.878704 145.479928 
L 278.879818 145.914544 
L 279.860499 147.2724 
L 280.821565 144.887798 
L 281.763786 147.117122 
L 282.228057 146.856277 
L 284.041544 142.4116 
L 284.48442 142.20589 
L 284.923252 142.42728 
L 285.358112 143.483773 
L 285.789072 143.6898 
L 286.216201 144.304301 
L 286.639567 145.316526 
L 287.059235 145.906195 
L 287.47527 146.084234 
L 287.887733 146.657262 
L 288.296687 146.431261 
L 289.104297 146.76672 
L 289.503069 145.775673 
L 289.898559 146.709462 
L 290.29082 147.249454 
L 290.679904 147.405174 
L 291.065864 146.440733 
L 291.448748 147.3396 
L 291.828606 147.490932 
L 292.205484 147.276075 
L 292.579429 148.147563 
L 293.318701 148.42865 
L 293.684115 147.5076 
L 294.046771 147.300695 
L 294.40671 148.139481 
L 295.1186 147.725506 
L 295.470629 146.843203 
L 296.167043 147.796947 
L 296.511501 147.93096 
L 296.853508 148.723634 
L 297.193097 148.193324 
L 297.530304 147.344769 
L 297.86516 147.4782 
L 298.197699 147.288621 
L 298.527953 147.420608 
L 299.181728 145.791276 
L 299.505309 145.618107 
L 299.826727 144.82632 
L 300.146008 145.58706 
L 300.778277 145.8612 
L 301.091318 146.6004 
L 301.402334 146.128266 
L 301.711349 146.259231 
L 302.01839 146.981771 
L 302.323481 147.40042 
L 302.927913 146.47566 
L 303.227302 146.6004 
L 304.114435 146.11361 
L 304.406544 145.67304 
L 304.696887 146.359937 
L 304.985487 145.923169 
L 305.272364 145.2144 
L 305.557538 145.065138 
L 305.84103 145.739449 
L 306.122859 145.316526 
L 306.403044 145.169274 
L 306.681606 145.83129 
L 306.958562 145.950414 
L 307.50773 146.9784 
L 307.779979 146.825919 
L 308.319891 145.485406 
L 308.853804 145.718261 
L 309.118553 145.576892 
L 309.381851 145.18259 
L 309.643713 145.804957 
L 309.904157 145.917139 
L 310.163196 146.528865 
L 310.420847 146.137906 
L 310.677123 145.503396 
L 310.93204 145.3684 
L 311.185612 145.970135 
L 311.437852 146.077929 
L 311.688776 146.6697 
L 312.186725 146.394643 
L 312.433778 146.498049 
L 312.679568 146.838 
L 312.924106 147.410893 
L 313.167406 147.0372 
L 313.409481 147.369317 
L 313.650342 147.93096 
L 313.890002 147.328567 
L 314.128473 147.884851 
L 314.365766 147.747434 
L 314.836865 147.93096 
L 315.30339 146.98607 
L 315.534965 147.527954 
L 315.765429 147.396189 
L 316.223068 148.460662 
L 316.901456 148.714374 
L 317.125474 148.580768 
L 317.348452 148.664 
L 318.011245 149.972367 
L 318.880983 148.599223 
L 319.095979 148.6794 
L 319.310019 148.96584 
L 319.523109 148.425504 
L 319.735258 148.710539 
L 319.946474 148.380316 
L 320.156767 148.459698 
L 320.57461 149.4228 
L 320.988852 148.370673 
L 321.194641 148.4484 
L 321.603594 148.009892 
L 322.009096 148.557106 
L 322.411205 148.125 
L 322.611004 148.201489 
L 322.809977 148.469782 
L 323.205466 148.045475 
L 323.401997 148.12104 
L 323.597727 148.385298 
L 323.792663 148.458874 
L 323.986812 147.968516 
L 324.564595 149.303928 
L 324.94596 149.072191 
L 325.135513 149.324381 
L 325.324322 149.209341 
L 325.512391 149.459025 
L 325.886336 148.508567 
L 326.257394 148.289188 
L 326.625608 148.96189 
L 327.353678 148.000989 
L 327.533985 147.896076 
L 327.713618 148.313248 
L 327.892582 148.207954 
L 328.070881 148.27592 
L 328.425508 148.581565 
L 328.777537 148.202899 
L 329.127005 148.504643 
L 329.300791 148.065457 
L 329.646488 147.864194 
L 329.818409 147.59832 
L 329.989716 147.997251 
L 330.33051 147.141087 
L 330.500005 147.045482 
L 330.668904 147.440754 
L 330.837211 147.5076 
L 331.004931 147.736244 
L 331.338625 147.060801 
L 331.670017 146.394643 
L 331.83486 146.782668 
L 331.99914 146.373342 
L 332.16286 146.7588 
L 332.326023 146.668056 
L 332.650698 145.8612 
L 332.812217 145.774381 
L 332.973194 145.532392 
L 333.133634 145.912944 
L 333.29354 145.981535 
L 333.452916 145.895468 
L 333.611765 145.963663 
L 333.77009 146.337789 
L 333.927895 146.404088 
L 334.085184 146.774329 
L 334.398226 146.9028 
L 335.018257 146.109969 
L 335.172022 146.175301 
L 335.325297 145.795284 
L 335.478085 146.15688 
L 335.782211 146.285599 
L 335.933555 145.910015 
L 336.234821 146.62119 
L 336.384748 146.538224 
L 336.534209 146.311148 
L 336.979823 147.214505 
L 337.127448 146.98814 
L 337.421343 147.107473 
L 337.567619 146.883498 
L 337.858842 147.283769 
L 338.003795 147.622366 
L 338.148311 147.539384 
L 338.292395 147.735758 
L 338.436047 147.652933 
L 338.72207 148.317888 
L 339.147937 147.793991 
L 339.289058 147.985587 
L 339.429766 147.903726 
L 339.709952 147.470679 
L 339.988513 148.119392 
L 340.127191 148.038325 
L 340.265469 148.091545 
L 340.403351 148.277897 
L 340.540838 148.064016 
L 340.677933 148.382062 
L 340.814638 148.0368 
L 340.950955 148.353121 
L 341.222434 147.799778 
L 341.357601 147.852472 
L 341.492388 148.165765 
L 341.626799 148.087059 
L 341.894497 147.54288 
L 342.160712 148.162522 
L 342.42546 147.495969 
L 342.688758 147.600138 
L 342.819868 147.778689 
L 342.950621 147.450078 
L 343.081019 147.501863 
L 343.340759 147.855645 
L 343.470104 147.530361 
L 343.599102 147.706227 
L 343.856064 147.434218 
L 343.984031 147.361226 
L 344.111658 147.041567 
L 344.238948 147.2164 
L 344.365901 146.898811 
L 344.492519 146.950547 
L 344.618805 147.246472 
L 344.870385 147.225728 
L 344.995683 147.276075 
L 345.120655 147.44712 
L 345.245303 147.134692 
L 345.369628 147.425553 
L 345.493633 147.354841 
L 345.863738 147.978602 
L 346.1089 147.480669 
L 346.231014 147.647287 
L 346.352818 147.341471 
L 346.595504 147.555588 
L 346.716389 147.486326 
L 346.83697 147.767558 
L 346.95725 147.581688 
L 347.316293 147.954071 
L 347.554173 147.93096 
L 347.672673 147.632731 
L 347.9088 147.953788 
L 348.143772 147.93096 
L 348.260829 148.089591 
L 348.841872 147.6399 
L 349.187155 148.331081 
L 349.415974 147.753973 
L 349.529975 147.798535 
L 349.757171 147.337857 
L 350.095962 147.581961 
L 350.320503 148.104646 
L 350.432381 147.822659 
L 350.544 148.08223 
L 350.987899 147.395677 
L 351.537067 148.24848 
L 351.754989 147.909888 
L 351.86358 147.741738 
L 352.295509 148.222671 
L 352.616926 147.827472 
L 352.830016 148.013384 
L 353.042165 148.505387 
L 353.14789 148.238012 
L 353.568476 148.803506 
L 353.67305 148.740866 
L 353.985413 149.258646 
L 354.089085 149.295931 
L 354.295759 149.070216 
L 354.501549 149.045446 
L 355.113681 149.168886 
L 355.316004 148.850612 
L 355.416847 148.790106 
L 355.517479 149.022131 
L 355.718113 148.80414 
L 355.917912 149.167663 
L 356.315036 148.544222 
L 356.413806 148.772464 
L 356.512374 148.618052 
L 356.708905 148.9764 
L 356.904635 148.669259 
L 357.099571 148.647415 
L 357.29372 148.907419 
L 357.487087 148.697769 
L 357.58348 148.920214 
L 357.775687 148.618814 
L 357.871503 148.840088 
L 357.967128 148.597563 
L 358.15781 149.037564 
L 358.252867 148.980157 
L 358.442421 149.141036 
L 358.631229 149.391967 
L 358.913058 148.947684 
L 359.006635 149.163152 
L 359.471805 148.523175 
L 359.564302 148.647415 
L 359.748761 148.180759 
L 359.932516 148.250904 
L 360.02413 148.108368 
L 360.11557 148.23198 
L 360.388851 147.71968 
L 360.4796 147.755226 
L 360.570178 147.966041 
L 360.660586 147.913453 
L 360.840893 148.070494 
L 360.930793 147.843914 
L 361.110091 148.173781 
L 361.466691 147.70715 
L 361.555429 147.827854 
L 361.732416 147.554294 
L 361.996679 148.084205 
L 362.084444 147.862975 
L 362.520884 148.368866 
L 362.694356 147.93096 
L 362.867204 147.997846 
L 362.953396 147.864194 
L 363.125316 148.2636 
L 363.211046 148.2132 
L 363.296624 148.162979 
L 363.382049 148.361088 
L 363.467323 148.228213 
L 363.552445 148.425504 
L 363.637418 148.375264 
L 363.72224 148.407333 
L 363.806912 148.193324 
L 364.144119 148.484585 
L 364.228052 148.353581 
L 364.311839 148.466429 
L 364.478975 148.20585 
L 364.645532 148.027644 
L 364.811514 147.850668 
L 364.894291 147.882867 
L 365.141768 147.500351 
L 365.387977 147.677088 
L 365.469767 147.7884 
L 365.714306 147.489691 
L 365.957606 147.6644 
L 366.119124 147.649667 
L 366.280102 147.86866 
L 366.520561 147.652007 
L 366.600448 147.528698 
L 366.680202 147.714716 
L 366.839313 147.469113 
L 366.918672 147.654309 
L 366.9979 147.532011 
L 367.076998 147.716495 
L 367.392092 147.230894 
L 367.470544 147.414364 
L 367.548868 147.293851 
L 367.705133 147.3564 
L 367.860893 147.418544 
L 368.093589 147.211043 
L 368.170905 147.391891 
L 368.555628 146.876274 
L 368.784993 146.89608 
L 368.861205 146.779635 
L 369.089118 147.020135 
L 369.240463 146.861909 
L 369.691656 147.336146 
L 369.766444 147.22119 
L 369.990114 147.455172 
L 370.06444 147.268765 
L 370.138651 147.298533 
L 370.3606 147.530361 
L 370.507998 147.303376 
L 370.654945 147.575467 
L 370.874527 147.23737 
L 371.020359 147.1548 
L 371.093109 146.972796 
L 371.455219 147.539384 
L 371.527315 147.498079 
L 371.671182 147.207008 
L 371.742955 147.374905 
L 371.81462 147.334092 
L 371.886179 147.1548 
L 371.957631 147.322026 
L 372.028978 147.281473 
L 372.100218 147.172048 
L 372.171353 147.269617 
L 372.242383 147.091744 
L 372.525457 147.479625 
L 372.666371 147.603677 
L 372.946966 148.052976 
L 373.01686 148.079874 
L 373.295421 148.590472 
L 373.36481 148.5492 
L 373.572377 148.158455 
L 373.641367 148.184855 
L 373.847746 147.731376 
L 373.916342 147.8911 
L 374.053242 148.010453 
L 374.189752 147.732791 
L 374.257862 147.891382 
L 374.325876 147.851917 
L 374.461615 147.707636 
L 374.596972 147.760663 
L 374.933706 147.17648 
L 375.201404 147.54288 
L 375.600176 146.802 
L 375.732368 146.664369 
L 375.798328 146.563896 
L 375.864197 146.718875 
L 375.929976 146.618602 
L 375.995666 146.645843 
L 376.126775 146.38287 
L 376.192196 146.47368 
L 376.257529 146.627517 
L 376.517972 146.168867 
L 376.712382 146.313873 
L 376.777012 146.215897 
L 377.034662 146.573718 
L 377.162971 146.751197 
L 377.418566 146.300406 
L 377.545855 146.2924 
L 377.799427 145.970135 
L 377.862611 146.11958 
L 377.925713 145.963058 
L 377.988731 146.112121 
L 378.177293 145.88822 
L 378.365117 146.271653 
L 378.552211 146.048873 
L 378.676536 146.162037 
L 378.862423 146.060984 
L 379.047593 146.318935 
L 379.170645 146.311148 
L 379.354634 146.507176 
L 379.537921 146.228924 
L 379.598862 146.313714 
L 379.659725 146.339341 
L 379.720512 146.18828 
L 379.781222 146.3316 
L 379.841855 146.357107 
L 379.962892 146.115038 
L 380.083625 146.400065 
L 380.143878 146.366968 
L 380.324185 146.151897 
L 380.682781 146.303621 
L 380.801721 146.065873 
L 380.861081 146.148667 
L 381.392044 145.918062 
L 381.567736 146.050047 
L 382.033132 146.584369 
L 382.26415 146.512653 
L 382.55137 146.798636 
L 382.608608 146.71128 
L 382.779916 146.94764 
L 383.064078 146.678853 
L 383.233772 146.858382 
L 383.290204 146.772186 
L 383.34657 146.904573 
L 383.40287 146.873056 
L 383.683382 146.553931 
L 383.850907 146.677579 
L 384.294806 146.110999 
L 384.515227 146.204581 
L 384.62506 145.985244 
L 384.679882 146.008703 
L 384.953059 146.2308 
L 385.116223 146.404951 
L 385.170488 146.270013 
L 385.278835 146.053492 
L 385.440898 146.1748 
L 385.548637 146.116154 
L 385.602416 146.191111 
L 385.816933 145.918821 
L 385.870413 145.993582 
L 385.923834 145.912944 
L 386.08374 145.878391 
L 386.190049 145.718261 
L 386.243115 145.741264 
L 386.612949 145.849865 
L 386.665551 145.719668 
L 386.718095 145.844235 
L 387.084305 145.950994 
L 387.292321 145.738266 
L 387.395993 145.783138 
L 387.499441 145.527368 
L 387.551082 145.65 
L 387.654197 145.794648 
L 387.705672 145.717159 
L 387.757091 145.839064 
L 387.808456 145.8612 
L 387.859766 145.734187 
L 387.911021 145.806036 
L 387.962222 145.778542 
L 388.013368 145.899733 
L 388.064459 145.872198 
L 388.16648 145.619765 
L 388.217409 145.74061 
L 388.319106 145.587712 
L 388.369874 145.462329 
L 388.420588 145.484582 
L 388.471249 145.555861 
L 388.521856 145.430908 
L 388.57241 145.453124 
L 388.622911 145.524212 
L 388.874623 145.196152 
L 389.075048 145.188151 
L 389.174948 145.039099 
L 389.22482 145.15804 
L 389.27464 145.131958 
L 389.324409 145.250557 
L 389.374126 145.128115 
L 389.671354 145.499577 
L 389.819281 145.134875 
L 389.868489 145.252136 
L 389.966755 145.152957 
L 390.015812 145.03224 
L 390.064819 145.149127 
L 390.260351 145.236069 
L 390.357819 145.184911 
L 390.406479 145.065138 
L 390.455089 145.181046 
L 390.552164 145.318175 
L 390.842215 144.885486 
L 390.938511 144.928876 
L 390.986587 145.043645 
L 391.034614 144.925569 
L 391.130526 144.782985 
L 391.17841 144.897442 
L 391.226247 144.918996 
L 391.274036 144.801631 
L 391.321777 144.915729 
L 391.369471 144.891 
L 391.417118 145.004783 
L 391.464717 144.980015 
L 391.51227 144.86317 
L 391.559775 144.976643 
L 391.654645 145.111065 
L 391.70201 144.994552 
L 391.891004 144.804993 
L 392.032264 144.959984 
L 392.126206 145.002169 
L 392.266777 145.155829 
L 392.360263 145.0164 
L 392.546691 144.784244 
L 392.686038 145.072054 
L 392.732398 144.95805 
L 392.778713 144.844266 
L 392.871209 144.886025 
L 392.963527 144.838238 
L 393.101673 144.677773 
L 393.239423 144.562663 
L 393.331038 144.60456 
L 393.422478 144.469227 
L 393.468132 144.534431 
L 393.741154 144.923065 
L 393.967493 145.112274 
L 394.192771 144.864075 
L 394.372236 145.248759 
L 394.461718 145.115124 
L 394.506397 145.091772 
L 394.595629 145.218 
L 394.640183 145.151458 
L 394.729168 145.147985 
L 394.862337 145.336123 
L 394.906645 145.26984 
L 394.950912 145.375207 
L 394.995138 145.351852 
L 395.127572 145.452945 
L 395.171636 145.38692 
L 395.21566 145.4916 
L 395.303586 145.530114 
L 395.435175 145.54517 
L 395.522701 145.371539 
L 395.566404 145.433136 
L 395.74082 145.636226 
L 396.087766 145.284199 
L 396.130958 145.261472 
L 396.174112 145.364197 
L 396.389301 145.708604 
L 396.901858 145.435719 
L 396.944325 145.536657 
L 397.029147 145.573733 
L 397.071502 145.510161 
L 397.11382 145.569685 
L 397.1561 145.670061 
L 397.24055 145.624968 
L 397.409005 145.413024 
L 397.534959 145.590289 
L 397.576871 145.527368 
L 397.785883 145.497375 
L 397.827576 145.596422 
L 397.869234 145.493522 
L 397.993989 145.427391 
L 398.242533 145.736623 
L 398.407518 145.887804 
L 398.489798 145.76382 
L 398.530885 145.8612 
L 398.612955 145.936255 
L 398.817518 145.707331 
L 399.021213 145.677338 
L 399.345341 146.013388 
L 400.185917 145.446735 
L 400.383905 145.342058 
L 400.423405 145.436023 
L 400.502308 145.394273 
L 400.699 145.138306 
L 400.816629 145.228633 
L 400.855775 145.132233 
L 400.933972 145.167073 
L 401.516424 145.349994 
L 401.785837 145.133808 
L 401.977355 145.404272 
L 402.015567 145.384069 
L 402.053749 145.474867 
L 402.130021 145.619099 
L 402.206173 145.578513 
L 402.244204 145.521425 
L 402.282204 145.57487 
L 402.320175 145.665014 
L 402.358115 145.644749 
L 402.622864 145.284462 
L 402.811081 145.367629 
L 402.923658 145.271916 
L 402.961125 145.288507 
L 402.998563 145.341342 
L 403.035972 145.285372 
L 403.185317 145.098488 
L 403.222581 145.187325 
L 403.371348 145.469321 
L 403.445559 145.3222 
L 403.556661 145.263694 
L 403.630587 145.368021 
L 403.667507 145.348529 
L 403.704399 145.293326 
L 403.741263 145.38106 
L 403.925158 145.533106 
L 404.035158 145.510193 
L 404.071769 145.59716 
L 404.108352 145.54223 
L 404.144907 145.45197 
L 404.217934 145.484023 
L 404.436351 145.474 
L 404.472658 145.384405 
L 404.508937 145.470679 
L 404.65378 145.569191 
L 405.121528 145.321397 
L 405.15732 145.406562 
L 405.193087 145.4916 
L 405.264539 145.384509 
L 405.549291 145.303251 
L 405.620216 145.368945 
L 405.655639 145.281606 
L 406.043582 145.350568 
L 406.113781 145.381529 
L 406.323767 145.609249 
L 406.358676 145.556824 
L 406.567597 145.614266 
L 406.602329 145.528453 
L 406.637036 145.610886 
L 407.017166 146.009464 
L 407.154653 146.034912 
L 407.394313 146.203218 
L 407.49666 146.180471 
L 407.530727 146.128905 
L 407.598789 146.19078 
L 407.666754 146.318302 
L 407.734624 146.248276 
L 407.768523 146.295441 
L 407.802398 146.211265 
L 407.93766 146.203009 
L 408.005148 146.3623 
L 408.038857 146.311148 
L 408.173456 146.172388 
L 408.207046 146.251721 
L 408.274158 146.215067 
L 408.474931 146.040992 
L 408.508312 145.95822 
L 408.575004 146.019087 
L 408.741331 146.154428 
L 408.807701 146.054035 
L 408.973225 145.900346 
L 409.138181 146.130737 
L 409.204006 146.031201 
L 409.26974 146.059263 
L 409.400939 146.178648 
L 409.433683 146.129084 
L 409.466405 146.079589 
L 409.531781 146.139091 
L 409.662268 146.226039 
L 409.889771 146.07069 
L 409.954574 146.161064 
L 409.986943 146.08072 
L 410.051615 145.951674 
L 410.116201 146.041904 
L 410.245113 146.034489 
L 410.405767 146.134082 
L 410.565886 146.016122 
L 410.661702 146.026121 
L 410.852763 145.8304 
L 410.979716 145.915811 
L 411.074711 145.741974 
L 411.137937 145.799964 
L 411.327117 145.973024 
L 411.358575 145.895064 
L 411.421429 145.982951 
L 411.452825 146.026808 
L 411.515556 145.932082 
L 411.672025 145.93858 
L 411.73447 145.78392 
L 411.796835 145.901468 
L 412.200242 145.65489 
L 412.262005 145.771471 
L 412.508267 146.08603 
L 412.722715 146.206818 
L 412.783811 146.114331 
L 412.844829 146.169825 
L 412.875309 146.212285 
L 412.936211 146.120084 
L 413.118455 146.021166 
L 413.148762 146.092841 
L 413.300011 146.186429 
L 413.420668 146.266717 
L 413.450785 146.221074 
L 413.840599 146.327507 
L 413.870454 146.253297 
L 413.930108 146.394048 
L 414.108629 146.41126 
L 414.167988 146.46488 
L 414.197641 146.391089 
L 414.463692 146.10246 
L 414.698952 146.401385 
L 414.845406 146.264318 
L 414.96225 146.398433 
L 414.991416 146.467183 
L 415.078809 146.41907 
L 415.513407 146.209059 
L 415.542241 146.277139 
L 415.686152 146.421347 
L 415.714882 146.349876 
L 415.858277 146.188069 
L 415.915516 146.24004 
L 415.94411 146.307534 
L 416.001246 146.193247 
L 416.029789 146.232995 
L 416.20069 146.222489 
L 416.370986 145.992391 
L 416.39931 146.059394 
L 416.455908 145.919066 
L 416.597112 145.815651 
L 416.737902 145.930838 
L 416.878281 145.855162 
L 417.129935 146.017363 
L 417.324758 145.804371 
L 417.463435 145.891024 
L 417.491123 145.822452 
L 417.57409 145.858224 
L 417.767124 145.887872 
L 417.904533 145.707534 
L 417.931967 145.746016 
L 418.123572 145.828842 
L 418.232719 145.770215 
L 418.259967 145.8348 
L 418.314416 145.700049 
L 418.395975 145.603796 
L 418.423131 145.615635 
L 418.504505 145.677338 
L 418.531599 145.636607 
L 418.693845 145.654805 
L 418.936191 145.81203 
L 419.097079 145.57005 
L 419.123841 145.633596 
L 419.150588 145.69707 
L 419.204039 145.616718 
L 419.417247 145.451715 
L 419.576534 145.521568 
L 419.603031 145.456148 
L 419.7881 145.332678 
L 419.81448 145.395447 
L 419.893534 145.353684 
L 419.972458 145.286581 
L 419.998738 145.349135 
L 420.077489 145.333027 
L 420.156112 145.367729 
L 420.208456 145.238695 
L 420.234607 145.250294 
L 420.260743 145.185911 
L 420.365147 145.156493 
L 420.469324 145.17763 
L 420.780507 144.864731 
L 420.806348 144.92647 
L 420.857989 144.824653 
L 421.038296 144.631969 
L 421.063999 144.693501 
L 421.422404 144.757108 
L 421.626014 144.553926 
L 421.651404 144.590151 
L 422.030662 145.031343 
L 422.131294 144.881528 
L 422.156419 144.941547 
L 422.381955 145.115462 
L 422.631316 145.033617 
L 422.656181 145.092937 
L 422.780314 145.196378 
L 422.904127 145.083575 
L 422.928851 145.118578 
L 422.953563 145.177488 
L 423.027621 145.066977 
L 423.052282 145.125793 
L 423.54286 144.988726 
L 423.567258 145.046954 
L 423.616017 144.927079 
L 423.664726 144.996179 
L 423.713386 145.088706 
L 423.786284 145.003594 
L 423.931748 144.904523 
L 424.173215 144.82632 
L 424.197295 144.883871 
L 424.293494 145.043645 
L 424.293494 145.043645 
" clip-path="url(#pdeafa84f46)" style="fill: none; stroke: #c8421a; stroke-width: 1.6; stroke-linecap: round"/>
   </g>
   <g id="line2d_14">
    <path d="M 40.795313 143.274 
L 442.555313 143.274 
" clip-path="url(#pdeafa84f46)" style="fill: none; stroke-dasharray: 5.55,2.4; stroke-dashoffset: 0; stroke: #0a0a0a; stroke-width: 1.5"/>
   </g>
   <g id="patch_3">
    <path d="M 40.795313 259.698 
L 40.795313 26.85 
" style="fill: none; stroke: #e5e5e5; stroke-width: 1.25; stroke-linejoin: miter; stroke-linecap: square"/>
   </g>
   <g id="patch_4">
    <path d="M 40.795313 259.698 
L 442.555313 259.698 
" style="fill: none; stroke: #e5e5e5; stroke-width: 1.25; stroke-linejoin: miter; stroke-linecap: square"/>
   </g>
   <g id="patch_5">
    <path d="M 436.509281 128.894869 
Q 431.050053 135.320894 426.314695 140.894856 
" style="fill: none; stroke: #0a0a0a; stroke-linecap: round"/>
    <path d="M 431.251512 138.790613 
L 426.314695 140.894856 
L 427.593391 135.682857 
" style="fill: none; stroke: #0a0a0a; stroke-linecap: round"/>
   </g>
   <g id="text_13">
    <!-- true mean  $\mathbb{E}[X]=3.5$ -->
    <g style="fill: #0a0a0a" transform="translate(385.923834 122.31768)">
     <text>
      <tspan x="0" y="-0.875" style="font-size: 12px; font-family: 'Helvetica Neue'; fill: #0a0a0a">t</tspan>
      <tspan x="3.780029" y="-0.875" style="font-size: 12px; font-family: 'Helvetica Neue'; fill: #0a0a0a">r</tspan>
      <tspan x="7.776062" y="-0.875" style="font-size: 12px; font-family: 'Helvetica Neue'; fill: #0a0a0a">u</tspan>
      <tspan x="14.448105" y="-0.875" style="font-size: 12px; font-family: 'Helvetica Neue'; fill: #0a0a0a">e</tspan>
      <tspan x="20.892151" y="-0.875" style="font-size: 12px; font-family: 'Helvetica Neue'; fill: #0a0a0a"> </tspan>
      <tspan x="24.22818" y="-0.875" style="font-size: 12px; font-family: 'Helvetica Neue'; fill: #0a0a0a">m</tspan>
      <tspan x="34.464249" y="-0.875" style="font-size: 12px; font-family: 'Helvetica Neue'; fill: #0a0a0a">e</tspan>
      <tspan x="40.908295" y="-0.875" style="font-size: 12px; font-family: 'Helvetica Neue'; fill: #0a0a0a">a</tspan>
      <tspan x="47.352341" y="-0.875" style="font-size: 12px; font-family: 'Helvetica Neue'; fill: #0a0a0a">n</tspan>
      <tspan x="54.024384" y="-0.875" style="font-size: 12px; font-family: 'Helvetica Neue'; fill: #0a0a0a"> </tspan>
      <tspan x="57.360413" y="-0.875" style="font-size: 12px; font-family: 'Helvetica Neue'; fill: #0a0a0a"> </tspan>
      <tspan x="60.696442" y="-0.875" style="font-style: italic; font-size: 12px; font-family: 'STIXNonUnicode'; fill: #0a0a0a"></tspan>
      <tspan x="68.364502" y="-0.875" style="font-size: 12px; font-family: 'DejaVu Sans'; fill: #0a0a0a">[</tspan>
      <tspan x="81.266846" y="-0.875" style="font-size: 12px; font-family: 'DejaVu Sans'; fill: #0a0a0a">]</tspan>
      <tspan x="88.286377" y="-0.875" style="font-size: 12px; font-family: 'DejaVu Sans'; fill: #0a0a0a">=</tspan>
      <tspan x="100.678955" y="-0.875" style="font-size: 12px; font-family: 'DejaVu Sans'; fill: #0a0a0a">3</tspan>
      <tspan x="108.313721" y="-0.875" style="font-size: 12px; font-family: 'DejaVu Sans'; fill: #0a0a0a">.</tspan>
      <tspan x="112.128174" y="-0.875" style="font-size: 12px; font-family: 'DejaVu Sans'; fill: #0a0a0a">5</tspan>
      <tspan x="73.046143" y="-0.875" style="font-style: oblique; font-size: 12px; font-family: 'DejaVu Sans'; fill: #0a0a0a">X</tspan>
     </text>
    </g>
   </g>
   <g id="text_14">
    <text style="font-weight: 700; font-size: 14px; font-family: 'Geist', 'Inter', 'Helvetica Neue', 'Arial', 'DejaVu Sans', sans-serif; text-anchor: middle; fill: #0a0a0a" x="241.675313" y="20.85" transform="rotate(-0 241.675313 20.85)">Estimating an expectation by sampling (law of large numbers)</text>
   </g>
  </g>
 </g>
 <defs>
  <clipPath id="pdeafa84f46">
   <rect x="40.795313" y="26.85" width="401.76" height="232.848"/>
  </clipPath>
 </defs>
</svg>
