<?xml version="1.0" encoding="utf-8" standalone="no"?>
<!DOCTYPE svg PUBLIC "-//W3C//DTD SVG 1.1//EN"
  "http://www.w3.org/Graphics/SVG/1.1/DTD/svg11.dtd">
<svg xmlns:xlink="http://www.w3.org/1999/xlink" width="583.56pt" height="277.986pt" viewBox="0 0 583.56 277.986" xmlns="http://www.w3.org/2000/svg" version="1.1">
 <metadata>
  <rdf:RDF xmlns:dc="http://purl.org/dc/elements/1.1/" xmlns:cc="http://creativecommons.org/ns#" xmlns:rdf="http://www.w3.org/1999/02/22-rdf-syntax-ns#">
   <cc:Work>
    <dc:type rdf:resource="http://purl.org/dc/dcmitype/StillImage"/>
    <dc:date>2026-06-24T01:00:24.656649</dc:date>
    <dc:format>image/svg+xml</dc:format>
    <dc:creator>
     <cc:Agent>
      <dc:title>Matplotlib v3.11.0, https://matplotlib.org/</dc:title>
     </cc:Agent>
    </dc:creator>
   </cc:Work>
  </rdf:RDF>
 </metadata>
 <defs>
  <style type="text/css">*{stroke-linejoin: round; stroke-linecap: butt}</style>
 </defs>
 <g id="figure_1">
  <g id="patch_1">
   <path d="M 0 277.986 
L 583.56 277.986 
L 583.56 0 
L 0 0 
z
" style="fill: #fafafa"/>
  </g>
  <g id="axes_1">
   <g id="PathCollection_1">
    <defs>
     <path id="m4dc00e80ce" d="M 0 15.411035 
C 4.087054 15.411035 8.007264 13.787231 10.897247 10.897247 
C 13.787231 8.007264 15.411035 4.087054 15.411035 0 
C 15.411035 -4.087054 13.787231 -8.007264 10.897247 -10.897247 
C 8.007264 -13.787231 4.087054 -15.411035 0 -15.411035 
C -4.087054 -15.411035 -8.007264 -13.787231 -10.897247 -10.897247 
C -13.787231 -8.007264 -15.411035 -4.087054 -15.411035 0 
C -15.411035 4.087054 -13.787231 8.007264 -10.897247 10.897247 
C -8.007264 13.787231 -4.087054 15.411035 0 15.411035 
z
" style="stroke: #0a0a0a"/>
    </defs>
    <g clip-path="url(#p487f32df46)">
     <use xlink:href="#m4dc00e80ce" x="61.039459" y="166.242" style="fill: #c8421a; stroke: #0a0a0a"/>
    </g>
   </g>
   <g id="patch_2">
    <path d="M 84.578825 166.242 
Q 99.497229 166.242 112.850384 166.242 
" style="fill: none; stroke: #525252; stroke-width: 1.4; stroke-linecap: round"/>
    <path d="M 108.050384 163.842 
L 112.850384 166.242 
L 108.050384 168.642 
" style="fill: none; stroke: #525252; stroke-width: 1.4; stroke-linecap: round"/>
   </g>
   <g id="PathCollection_2">
    <g clip-path="url(#p487f32df46)">
     <use xlink:href="#m4dc00e80ce" x="137.952973" y="166.242" style="fill: #c8421a; stroke: #0a0a0a"/>
    </g>
   </g>
   <g id="patch_3">
    <path d="M 161.492339 166.242 
Q 176.410742 166.242 189.763898 166.242 
" style="fill: none; stroke: #525252; stroke-width: 1.4; stroke-linecap: round"/>
    <path d="M 184.963898 163.842 
L 189.763898 166.242 
L 184.963898 168.642 
" style="fill: none; stroke: #525252; stroke-width: 1.4; stroke-linecap: round"/>
   </g>
   <g id="PathCollection_3">
    <defs>
     <path id="m32e041851a" d="M 0 15.411035 
C 4.087054 15.411035 8.007264 13.787231 10.897247 10.897247 
C 13.787231 8.007264 15.411035 4.087054 15.411035 0 
C 15.411035 -4.087054 13.787231 -8.007264 10.897247 -10.897247 
C 8.007264 -13.787231 4.087054 -15.411035 0 -15.411035 
C -4.087054 -15.411035 -8.007264 -13.787231 -10.897247 -10.897247 
C -13.787231 -8.007264 -15.411035 -4.087054 -15.411035 0 
C -15.411035 4.087054 -13.787231 8.007264 -10.897247 10.897247 
C -8.007264 13.787231 -4.087054 15.411035 0 15.411035 
z
" style="stroke: #0a0a0a"/>
    </defs>
    <g clip-path="url(#p487f32df46)">
     <use xlink:href="#m32e041851a" x="214.866486" y="166.242" style="fill: #e5e5e5; stroke: #0a0a0a"/>
    </g>
   </g>
   <g id="patch_4">
    <path d="M 238.405852 166.242 
Q 253.324256 166.242 266.677411 166.242 
" style="fill: none; stroke: #525252; stroke-width: 1.4; stroke-linecap: round"/>
    <path d="M 261.877411 163.842 
L 266.677411 166.242 
L 261.877411 168.642 
" style="fill: none; stroke: #525252; stroke-width: 1.4; stroke-linecap: round"/>
   </g>
   <g id="PathCollection_4">
    <g clip-path="url(#p487f32df46)">
     <use xlink:href="#m4dc00e80ce" x="291.78" y="166.242" style="fill: #c8421a; stroke: #0a0a0a"/>
    </g>
   </g>
   <g id="patch_5">
    <path d="M 315.319366 166.242 
Q 330.237769 166.242 343.590925 166.242 
" style="fill: none; stroke: #525252; stroke-width: 1.4; stroke-linecap: round"/>
    <path d="M 338.790925 163.842 
L 343.590925 166.242 
L 338.790925 168.642 
" style="fill: none; stroke: #525252; stroke-width: 1.4; stroke-linecap: round"/>
   </g>
   <g id="PathCollection_5">
    <g clip-path="url(#p487f32df46)">
     <use xlink:href="#m32e041851a" x="368.693514" y="166.242" style="fill: #e5e5e5; stroke: #0a0a0a"/>
    </g>
   </g>
   <g id="patch_6">
    <path d="M 392.232879 166.242 
Q 407.151283 166.242 420.504438 166.242 
" style="fill: none; stroke: #525252; stroke-width: 1.4; stroke-linecap: round"/>
    <path d="M 415.704438 163.842 
L 420.504438 166.242 
L 415.704438 168.642 
" style="fill: none; stroke: #525252; stroke-width: 1.4; stroke-linecap: round"/>
   </g>
   <g id="PathCollection_6">
    <g clip-path="url(#p487f32df46)">
     <use xlink:href="#m4dc00e80ce" x="445.607027" y="166.242" style="fill: #c8421a; stroke: #0a0a0a"/>
    </g>
   </g>
   <g id="PathCollection_7">
    <defs>
     <path id="mea0fe5e134" d="M 0 -19.364917 
L -4.347695 -5.984088 
L -18.41713 -5.984088 
L -7.034718 2.285718 
L -11.382412 15.666547 
L -0 7.39674 
L 11.382412 15.666547 
L 7.034718 2.285718 
L 18.41713 -5.984088 
L 4.347695 -5.984088 
z
" style="stroke: #0a0a0a"/>
    </defs>
    <g clip-path="url(#p487f32df46)">
     <use xlink:href="#mea0fe5e134" x="522.520541" y="166.242" style="fill: #c8421a; stroke: #0a0a0a"/>
    </g>
   </g>
   <g id="text_1">
    <text style="font-size: 9px; font-family: 'Geist', 'Inter', 'Helvetica Neue', 'Arial', 'DejaVu Sans', sans-serif; fill: #c8421a" transform="translate(508.773041 214.4304)">reward</text>
    <text style="font-size: 9px; font-family: 'Geist', 'Inter', 'Helvetica Neue', 'Arial', 'DejaVu Sans', sans-serif; fill: #c8421a" transform="translate(513.517025 225.1674)">0 / 1</text>
   </g>
   <g id="patch_7">
    <path d="M 469.144515 166.242 
Q 482.527431 166.242 494.345099 166.242 
" style="fill: none; stroke: #525252; stroke-width: 1.4; stroke-linecap: round"/>
    <path d="M 489.545099 163.842 
L 494.345099 166.242 
L 489.545099 168.642 
" style="fill: none; stroke: #525252; stroke-width: 1.4; stroke-linecap: round"/>
   </g>
   <g id="patch_8">
    <path d="M 520.883359 146.514438 
Q 291.780604 -12.719597 63.687724 145.811706 
" style="fill: none; opacity: 0.7; stroke: #c8421a; stroke-width: 1.1; stroke-linecap: round"/>
    <path d="M 68.998947 145.042998 
L 63.687724 145.811706 
L 66.259492 141.101503 
" style="fill: none; opacity: 0.7; stroke: #c8421a; stroke-width: 1.1; stroke-linecap: round"/>
   </g>
   <g id="patch_9">
    <path d="M 520.880425 146.513215 
Q 330.236181 14.200536 140.602283 145.812801 
" style="fill: none; opacity: 0.7; stroke: #c8421a; stroke-width: 1.1; stroke-linecap: round"/>
    <path d="M 145.914021 145.047662 
L 140.602283 145.812801 
L 143.177215 141.104327 
" style="fill: none; opacity: 0.7; stroke: #c8421a; stroke-width: 1.1; stroke-linecap: round"/>
   </g>
   <g id="patch_10">
    <path d="M 520.876317 146.513645 
Q 407.147908 68.038336 294.431728 145.818414 
" style="fill: none; opacity: 0.7; stroke: #c8421a; stroke-width: 1.1; stroke-linecap: round"/>
    <path d="M 299.745507 145.067576 
L 294.431728 145.818414 
L 297.019325 141.116888 
" style="fill: none; opacity: 0.7; stroke: #c8421a; stroke-width: 1.1; stroke-linecap: round"/>
   </g>
   <g id="patch_11">
    <path d="M 520.870449 146.526116 
Q 484.064458 121.867406 448.280208 145.840708 
" style="fill: none; opacity: 0.7; stroke: #c8421a; stroke-width: 1.1; stroke-linecap: round"/>
    <path d="M 453.60381 145.16302 
L 448.280208 145.840708 
L 450.932219 141.175214 
" style="fill: none; opacity: 0.7; stroke: #c8421a; stroke-width: 1.1; stroke-linecap: round"/>
   </g>
   <g id="text_2">
    <text style="font-style: italic; font-size: 10px; font-family: 'Geist', 'Inter', 'Helvetica Neue', 'Arial', 'DejaVu Sans', sans-serif; text-anchor: middle; fill: #0a0a0a" x="291.78" y="55.89" transform="rotate(-0 291.78 55.89)">one sparse reward, credited back over the agent's own actions</text>
   </g>
   <g id="text_3">
    <text style="font-size: 8.5px; font-family: 'Geist', 'Inter', 'Helvetica Neue', 'Arial', 'DejaVu Sans', sans-serif; text-anchor: middle; fill: #525252" x="214.866486" y="238.2612" transform="rotate(-0 214.866486 238.2612)">grey = environment observations (masked, no gradient)</text>
   </g>
   <g id="text_4">
    <text style="font-weight: 700; font-size: 14px; font-family: 'Geist', 'Inter', 'Helvetica Neue', 'Arial', 'DejaVu Sans', sans-serif; text-anchor: middle; fill: #0a0a0a" x="291.78" y="20.85" transform="rotate(-0 291.78 20.85)">Credit assignment over a trajectory</text>
   </g>
   <g id="text_5">
    <text style="font-size: 8.5px; font-family: 'Geist', 'Inter', 'Helvetica Neue', 'Arial', 'DejaVu Sans', sans-serif; text-anchor: middle; fill: #fafafa" x="61.039459" y="169.38275" transform="rotate(-0 61.039459 169.38275)">think</text>
   </g>
   <g id="text_6">
    <text style="font-size: 8.5px; font-family: 'Geist', 'Inter', 'Helvetica Neue', 'Arial', 'DejaVu Sans', sans-serif; text-anchor: middle; fill: #fafafa" x="137.952973" y="169.38275" transform="rotate(-0 137.952973 169.38275)">search</text>
   </g>
   <g id="text_7">
    <text style="font-size: 8.5px; font-family: 'Geist', 'Inter', 'Helvetica Neue', 'Arial', 'DejaVu Sans', sans-serif; text-anchor: middle; fill: #0a0a0a" x="214.866486" y="169.38275" transform="rotate(-0 214.866486 169.38275)">observe</text>
   </g>
   <g id="text_8">
    <text style="font-size: 8.5px; font-family: 'Geist', 'Inter', 'Helvetica Neue', 'Arial', 'DejaVu Sans', sans-serif; text-anchor: middle; fill: #fafafa" x="291.78" y="169.38275" transform="rotate(-0 291.78 169.38275)">search</text>
   </g>
   <g id="text_9">
    <text style="font-size: 8.5px; font-family: 'Geist', 'Inter', 'Helvetica Neue', 'Arial', 'DejaVu Sans', sans-serif; text-anchor: middle; fill: #0a0a0a" x="368.693514" y="169.38275" transform="rotate(-0 368.693514 169.38275)">observe</text>
   </g>
   <g id="text_10">
    <text style="font-size: 8.5px; font-family: 'Geist', 'Inter', 'Helvetica Neue', 'Arial', 'DejaVu Sans', sans-serif; text-anchor: middle; fill: #fafafa" x="445.607027" y="169.38275" transform="rotate(-0 445.607027 169.38275)">answer</text>
   </g>
  </g>
 </g>
 <defs>
  <clipPath id="p487f32df46">
   <rect x="7.2" y="26.85" width="569.16" height="243.936"/>
  </clipPath>
 </defs>
</svg>
