<?xml version="1.0" encoding="utf-8" standalone="no"?>
<!DOCTYPE svg PUBLIC "-//W3C//DTD SVG 1.1//EN"
  "http://www.w3.org/Graphics/SVG/1.1/DTD/svg11.dtd">
<svg xmlns:xlink="http://www.w3.org/1999/xlink" width="696.295312pt" height="342.983pt" viewBox="0 0 696.295312 342.983" xmlns="http://www.w3.org/2000/svg" version="1.1">
 <metadata>
  <rdf:RDF xmlns:dc="http://purl.org/dc/elements/1.1/" xmlns:cc="http://creativecommons.org/ns#" xmlns:rdf="http://www.w3.org/1999/02/22-rdf-syntax-ns#">
   <cc:Work>
    <dc:type rdf:resource="http://purl.org/dc/dcmitype/StillImage"/>
    <dc:date>2026-06-23T16:11:25.232029</dc:date>
    <dc:format>image/svg+xml</dc:format>
    <dc:creator>
     <cc:Agent>
      <dc:title>Matplotlib v3.11.0, https://matplotlib.org/</dc:title>
     </cc:Agent>
    </dc:creator>
   </cc:Work>
  </rdf:RDF>
 </metadata>
 <defs>
  <style type="text/css">*{stroke-linejoin: round; stroke-linecap: butt}</style>
 </defs>
 <g id="figure_1">
  <g id="patch_1">
   <path d="M 0 342.983 
L 696.295312 342.983 
L 696.295312 0 
L 0 0 
z
" style="fill: #fafafa"/>
  </g>
  <g id="axes_1">
   <g id="patch_2">
    <path d="M 47.395313 295.488 
L 339.077131 295.488 
L 339.077131 51.552 
L 47.395313 51.552 
z
" style="fill: #fafafa"/>
   </g>
   <g id="matplotlib.axis_1">
    <g id="xtick_1">
     <g id="line2d_1">
      <path d="M 59.588656 295.488 
L 59.588656 51.552 
" clip-path="url(#pf7135910fc)" style="fill: none; stroke: #e5e5e5; stroke-width: 0.8; stroke-linecap: round"/>
     </g>
     <g id="text_1">
      <text style="font-size: 11px; font-family: 'Geist', 'Inter', 'Helvetica Neue', 'Arial', 'DejaVu Sans', sans-serif; text-anchor: middle; fill: #525252" x="59.588656" y="315.46" transform="rotate(-0 59.588656 315.46)">0</text>
     </g>
    </g>
    <g id="xtick_2">
     <g id="line2d_2">
      <path d="M 112.834698 295.488 
L 112.834698 51.552 
" clip-path="url(#pf7135910fc)" style="fill: none; stroke: #e5e5e5; stroke-width: 0.8; stroke-linecap: round"/>
     </g>
     <g id="text_2">
      <text style="font-size: 11px; font-family: 'Geist', 'Inter', 'Helvetica Neue', 'Arial', 'DejaVu Sans', sans-serif; text-anchor: middle; fill: #525252" x="112.834698" y="315.46" transform="rotate(-0 112.834698 315.46)">50</text>
     </g>
    </g>
    <g id="xtick_3">
     <g id="line2d_3">
      <path d="M 166.08074 295.488 
L 166.08074 51.552 
" clip-path="url(#pf7135910fc)" style="fill: none; stroke: #e5e5e5; stroke-width: 0.8; stroke-linecap: round"/>
     </g>
     <g id="text_3">
      <text style="font-size: 11px; font-family: 'Geist', 'Inter', 'Helvetica Neue', 'Arial', 'DejaVu Sans', sans-serif; text-anchor: middle; fill: #525252" x="166.08074" y="315.46" transform="rotate(-0 166.08074 315.46)">100</text>
     </g>
    </g>
    <g id="xtick_4">
     <g id="line2d_4">
      <path d="M 219.326782 295.488 
L 219.326782 51.552 
" clip-path="url(#pf7135910fc)" style="fill: none; stroke: #e5e5e5; stroke-width: 0.8; stroke-linecap: round"/>
     </g>
     <g id="text_4">
      <text style="font-size: 11px; font-family: 'Geist', 'Inter', 'Helvetica Neue', 'Arial', 'DejaVu Sans', sans-serif; text-anchor: middle; fill: #525252" x="219.326782" y="315.46" transform="rotate(-0 219.326782 315.46)">150</text>
     </g>
    </g>
    <g id="xtick_5">
     <g id="line2d_5">
      <path d="M 272.572824 295.488 
L 272.572824 51.552 
" clip-path="url(#pf7135910fc)" style="fill: none; stroke: #e5e5e5; stroke-width: 0.8; stroke-linecap: round"/>
     </g>
     <g id="text_5">
      <text style="font-size: 11px; font-family: 'Geist', 'Inter', 'Helvetica Neue', 'Arial', 'DejaVu Sans', sans-serif; text-anchor: middle; fill: #525252" x="272.572824" y="315.46" transform="rotate(-0 272.572824 315.46)">200</text>
     </g>
    </g>
    <g id="xtick_6">
     <g id="line2d_6">
      <path d="M 325.818866 295.488 
L 325.818866 51.552 
" clip-path="url(#pf7135910fc)" style="fill: none; stroke: #e5e5e5; stroke-width: 0.8; stroke-linecap: round"/>
     </g>
     <g id="text_6">
      <text style="font-size: 11px; font-family: 'Geist', 'Inter', 'Helvetica Neue', 'Arial', 'DejaVu Sans', sans-serif; text-anchor: middle; fill: #525252" x="325.818866" y="315.46" transform="rotate(-0 325.818866 315.46)">250</text>
     </g>
    </g>
    <g id="text_7">
     <text style="font-size: 12px; font-family: 'Geist', 'Inter', 'Helvetica Neue', 'Arial', 'DejaVu Sans', sans-serif; text-anchor: middle; fill: #0a0a0a" x="193.236222" y="333.227" transform="rotate(-0 193.236222 333.227)">GRPO step</text>
    </g>
   </g>
   <g id="matplotlib.axis_2">
    <g id="ytick_1">
     <g id="line2d_7">
      <path d="M 47.395313 276.400599 
L 339.077131 276.400599 
" clip-path="url(#pf7135910fc)" style="fill: none; stroke: #e5e5e5; stroke-width: 0.8; stroke-linecap: round"/>
     </g>
     <g id="text_8">
      <text style="font-size: 11px; font-family: 'Geist', 'Inter', 'Helvetica Neue', 'Arial', 'DejaVu Sans', sans-serif; text-anchor: end; fill: #525252" x="37.895313" y="281.636599" transform="rotate(-0 37.895313 281.636599)">−4</text>
     </g>
    </g>
    <g id="ytick_2">
     <g id="line2d_8">
      <path d="M 47.395313 240.942259 
L 339.077131 240.942259 
" clip-path="url(#pf7135910fc)" style="fill: none; stroke: #e5e5e5; stroke-width: 0.8; stroke-linecap: round"/>
     </g>
     <g id="text_9">
      <text style="font-size: 11px; font-family: 'Geist', 'Inter', 'Helvetica Neue', 'Arial', 'DejaVu Sans', sans-serif; text-anchor: end; fill: #525252" x="37.895313" y="246.178259" transform="rotate(-0 37.895313 246.178259)">−3</text>
     </g>
    </g>
    <g id="ytick_3">
     <g id="line2d_9">
      <path d="M 47.395313 205.48392 
L 339.077131 205.48392 
" clip-path="url(#pf7135910fc)" style="fill: none; stroke: #e5e5e5; stroke-width: 0.8; stroke-linecap: round"/>
     </g>
     <g id="text_10">
      <text style="font-size: 11px; font-family: 'Geist', 'Inter', 'Helvetica Neue', 'Arial', 'DejaVu Sans', sans-serif; text-anchor: end; fill: #525252" x="37.895313" y="210.71992" transform="rotate(-0 37.895313 210.71992)">−2</text>
     </g>
    </g>
    <g id="ytick_4">
     <g id="line2d_10">
      <path d="M 47.395313 170.025581 
L 339.077131 170.025581 
" clip-path="url(#pf7135910fc)" style="fill: none; stroke: #e5e5e5; stroke-width: 0.8; stroke-linecap: round"/>
     </g>
     <g id="text_11">
      <text style="font-size: 11px; font-family: 'Geist', 'Inter', 'Helvetica Neue', 'Arial', 'DejaVu Sans', sans-serif; text-anchor: end; fill: #525252" x="37.895313" y="175.261581" transform="rotate(-0 37.895313 175.261581)">−1</text>
     </g>
    </g>
    <g id="ytick_5">
     <g id="line2d_11">
      <path d="M 47.395313 134.567241 
L 339.077131 134.567241 
" clip-path="url(#pf7135910fc)" style="fill: none; stroke: #e5e5e5; stroke-width: 0.8; stroke-linecap: round"/>
     </g>
     <g id="text_12">
      <text style="font-size: 11px; font-family: 'Geist', 'Inter', 'Helvetica Neue', 'Arial', 'DejaVu Sans', sans-serif; text-anchor: end; fill: #525252" x="37.895313" y="139.803241" transform="rotate(-0 37.895313 139.803241)">0</text>
     </g>
    </g>
    <g id="ytick_6">
     <g id="line2d_12">
      <path d="M 47.395313 99.108902 
L 339.077131 99.108902 
" clip-path="url(#pf7135910fc)" style="fill: none; stroke: #e5e5e5; stroke-width: 0.8; stroke-linecap: round"/>
     </g>
     <g id="text_13">
      <text style="font-size: 11px; font-family: 'Geist', 'Inter', 'Helvetica Neue', 'Arial', 'DejaVu Sans', sans-serif; text-anchor: end; fill: #525252" x="37.895313" y="104.344902" transform="rotate(-0 37.895313 104.344902)">1</text>
     </g>
    </g>
    <g id="ytick_7">
     <g id="line2d_13">
      <path d="M 47.395313 63.650563 
L 339.077131 63.650563 
" clip-path="url(#pf7135910fc)" style="fill: none; stroke: #e5e5e5; stroke-width: 0.8; stroke-linecap: round"/>
     </g>
     <g id="text_14">
      <text style="font-size: 11px; font-family: 'Geist', 'Inter', 'Helvetica Neue', 'Arial', 'DejaVu Sans', sans-serif; text-anchor: end; fill: #525252" x="37.895313" y="68.886563" transform="rotate(-0 37.895313 68.886563)">2</text>
     </g>
    </g>
    <g id="text_15">
     <text style="font-size: 12px; font-family: 'Geist', 'Inter', 'Helvetica Neue', 'Arial', 'DejaVu Sans', sans-serif; text-anchor: middle; fill: #0a0a0a" x="18.624" y="173.52" transform="rotate(-90 18.624 173.52)">group reward</text>
    </g>
   </g>
   <g id="FillBetweenPolyCollection_1">
    <defs>
     <path id="m520cb98967" d="M 60.653577 -208.4654 
L 60.653577 -187.466972 
L 61.718498 -181.080925 
L 62.783419 -186.615972 
L 63.848339 -191.370935 
L 64.91326 -200.465999 
L 65.978181 -191.232647 
L 67.043102 -195.164977 
L 68.108023 -178.946333 
L 69.172944 -191.239739 
L 70.237865 -195.083423 
L 71.302785 -194.615373 
L 72.367706 -189.64766 
L 73.432627 -198.61862 
L 74.497548 -189.839135 
L 75.562469 -204.2104 
L 76.62739 -200.74612 
L 77.69231 -183.250975 
L 78.757231 -185.58768 
L 79.822152 -189.151243 
L 80.887073 -191.81771 
L 81.951994 -192.54106 
L 83.016915 -206.171246 
L 84.081835 -200.838312 
L 85.146756 -198.065469 
L 86.211677 -202.238916 
L 87.276598 -186.885455 
L 88.341519 -203.38422 
L 89.40644 -190.697227 
L 90.47136 -206.071962 
L 91.536281 -199.054757 
L 92.601202 -206.681846 
L 93.666123 -195.760677 
L 94.731044 -200.983691 
L 95.795965 -58.583 
L 96.860886 -196.980444 
L 97.925806 -202.465849 
L 98.990727 -203.933825 
L 100.055648 -208.415759 
L 101.120569 -204.455062 
L 102.18549 -186.970555 
L 103.250411 -208.415759 
L 104.315331 -201.359549 
L 105.380252 -208.415759 
L 106.445173 -198.384594 
L 107.510094 -208.415759 
L 108.575015 -208.415759 
L 109.639936 -207.344917 
L 110.704856 -198.427144 
L 111.769777 -208.415759 
L 112.834698 -202.462303 
L 113.899619 -208.415759 
L 114.96454 -205.323791 
L 116.029461 -206.394633 
L 117.094382 -208.415759 
L 118.159302 -206.603838 
L 119.224223 -207.550575 
L 120.289144 -208.415759 
L 121.354065 -208.415759 
L 122.418986 -208.415759 
L 123.483907 -208.415759 
L 124.548827 -188.449168 
L 125.613748 -208.415759 
L 126.678669 -208.415759 
L 127.74359 -208.415759 
L 128.808511 -207.344917 
L 129.873432 -192.977198 
L 130.938352 -208.415759 
L 132.003273 -208.415759 
L 133.068194 -188.697376 
L 134.133115 -208.415759 
L 135.198036 -195.200436 
L 136.262957 -208.415759 
L 137.327877 -208.415759 
L 138.392798 -208.415759 
L 139.457719 -207.337825 
L 140.52264 -208.415759 
L 141.587561 -208.415759 
L 142.652482 -188.739926 
L 143.717403 -207.344917 
L 144.782323 -208.415759 
L 145.847244 -208.415759 
L 146.912165 -208.415759 
L 147.977086 -202.483579 
L 149.042007 -207.447746 
L 150.106928 -208.415759 
L 151.171848 -207.979621 
L 152.236769 -203.362945 
L 153.30169 -208.415759 
L 154.366611 -208.415759 
L 155.431532 -208.415759 
L 156.496453 -208.415759 
L 157.561373 -202.455212 
L 158.626294 -204.969208 
L 159.691215 -207.337825 
L 160.756136 -208.415759 
L 161.821057 -208.415759 
L 162.885978 -208.415759 
L 163.950898 -207.266908 
L 165.015819 -201.526203 
L 166.08074 -208.415759 
L 167.145661 -207.337825 
L 168.210582 -208.415759 
L 169.275503 -208.415759 
L 170.340424 -205.408891 
L 171.405344 -208.415759 
L 172.470265 -207.192446 
L 173.535186 -200.650382 
L 174.600107 -208.415759 
L 175.665028 -207.749142 
L 176.729949 -208.415759 
L 177.794869 -208.149821 
L 178.85979 -204.426695 
L 179.924711 -207.678225 
L 180.989632 -208.415759 
L 182.054553 -200.465999 
L 183.119474 -205.235146 
L 184.184394 -207.653404 
L 185.249315 -208.415759 
L 186.314236 -208.415759 
L 187.379157 -208.415759 
L 188.444078 -192.83891 
L 189.508999 -207.621492 
L 190.573919 -208.415759 
L 191.63884 -206.802404 
L 192.703761 -203.501233 
L 193.768682 -207.337825 
L 194.833603 -208.415759 
L 195.898524 -207.171171 
L 196.963445 -200.36317 
L 198.028365 -208.415759 
L 199.093286 -208.415759 
L 200.158207 -207.362646 
L 201.223128 -208.415759 
L 202.288049 -207.816513 
L 203.35297 -208.415759 
L 204.41789 -208.415759 
L 205.482811 -202.27792 
L 206.547732 -208.415759 
L 207.612653 -207.660496 
L 208.677574 -207.242088 
L 209.742495 -208.415759 
L 210.807415 -207.337825 
L 211.872336 -207.369738 
L 212.937257 -208.415759 
L 214.002178 -197.898815 
L 215.067099 -190.080251 
L 216.13202 -206.263437 
L 217.19694 -207.181808 
L 218.261861 -201.689312 
L 219.326782 -208.415759 
L 220.391703 -207.337825 
L 221.456624 -206.174792 
L 222.521545 -208.415759 
L 223.586466 -208.415759 
L 224.651386 -207.497388 
L 225.716307 -208.415759 
L 226.781228 -179.269004 
L 227.846149 -190.480931 
L 228.91107 -207.337825 
L 229.975991 -209.025642 
L 231.040911 -198.760453 
L 232.105832 -208.415759 
L 233.170753 -178.758404 
L 234.235674 -207.703046 
L 235.300595 -208.415759 
L 236.365516 -207.337825 
L 237.430436 -207.766871 
L 238.495357 -204.132391 
L 239.560278 -201.040424 
L 240.625199 -208.415759 
L 241.69012 -206.979696 
L 242.755041 -208.054084 
L 243.819962 -208.415759 
L 244.884882 -185.839434 
L 245.949803 -208.355479 
L 247.014724 -203.093462 
L 248.079645 -207.543484 
L 249.144566 -208.242013 
L 250.209487 -186.43868 
L 251.274407 -206.263437 
L 252.339328 -207.337825 
L 253.404249 -195.157886 
L 254.46917 -207.344917 
L 255.534091 -207.405196 
L 256.599012 -207.646313 
L 257.663932 -175.964287 
L 258.728853 -207.412288 
L 259.793774 -199.51217 
L 260.858695 -206.97615 
L 261.923616 -208.415759 
L 262.988537 -206.618021 
L 264.053457 -198.565432 
L 265.118378 -203.072187 
L 266.183299 -201.902062 
L 267.24822 -207.653404 
L 268.313141 -208.415759 
L 269.378062 -207.738504 
L 270.442983 -194.427444 
L 271.507903 -204.011833 
L 272.572824 -208.415759 
L 273.637745 -206.291804 
L 274.702666 -208.415759 
L 275.767587 -194.207602 
L 276.832508 -193.484252 
L 277.897428 -186.296847 
L 278.962349 -207.646313 
L 280.02727 -208.415759 
L 281.092191 -203.416133 
L 282.157112 -187.931476 
L 283.222033 -203.12892 
L 284.286953 -199.671732 
L 285.351874 -207.575396 
L 286.416795 -208.415759 
L 287.481716 -195.044419 
L 288.546637 -189.569651 
L 289.611558 -189.62993 
L 290.676478 -195.693307 
L 291.741399 -208.415759 
L 292.80632 -194.282065 
L 293.871241 -208.415759 
L 294.936162 -208.415759 
L 296.001083 -203.228204 
L 297.066004 -207.91225 
L 298.130924 -208.415759 
L 299.195845 -206.281167 
L 300.260766 -208.142729 
L 301.325687 -208.415759 
L 302.390608 -207.561213 
L 303.455529 -206.540013 
L 304.520449 -208.415759 
L 305.58537 -195.583386 
L 306.650291 -208.86608 
L 307.715212 -192.707714 
L 308.780133 -193.324689 
L 309.845054 -207.362646 
L 310.909974 -186.818084 
L 311.974895 -207.472567 
L 313.039816 -208.415759 
L 314.104737 -207.362646 
L 315.169658 -207.603763 
L 316.234579 -202.70342 
L 317.299499 -205.724471 
L 318.36442 -208.415759 
L 319.429341 -208.415759 
L 320.494262 -208.415759 
L 321.559183 -208.415759 
L 322.624104 -189.296622 
L 323.689025 -205.809571 
L 324.753945 -203.465774 
L 325.818866 -189.601564 
L 325.818866 -216.322968 
L 325.818866 -216.322968 
L 324.753945 -211.202784 
L 323.689025 -220.120556 
L 322.624104 -216.450618 
L 321.559183 -208.415759 
L 320.494262 -208.415759 
L 319.429341 -208.415759 
L 318.36442 -208.415759 
L 317.299499 -211.199238 
L 316.234579 -212.27008 
L 315.169658 -212.18498 
L 314.104737 -210.922663 
L 313.039816 -208.415759 
L 311.974895 -210.656726 
L 310.909974 -246.239169 
L 309.845054 -210.922663 
L 308.780133 -223.081328 
L 307.715212 -248.675157 
L 306.650291 -212.986339 
L 305.58537 -267.223414 
L 304.520449 -208.415759 
L 303.455529 -212.241713 
L 302.390608 -210.454613 
L 301.325687 -208.415759 
L 300.260766 -211.610555 
L 299.195845 -213.493393 
L 298.130924 -208.415759 
L 297.066004 -210.748917 
L 296.001083 -213.816064 
L 294.936162 -208.415759 
L 293.871241 -208.415759 
L 292.80632 -213.067893 
L 291.741399 -208.415759 
L 290.676478 -211.408443 
L 289.611558 -215.415235 
L 288.546637 -212.65303 
L 287.481716 -214.035905 
L 286.416795 -208.415759 
L 285.351874 -210.412063 
L 284.286953 -212.089243 
L 283.222033 -220.992832 
L 282.157112 -210.334055 
L 281.092191 -215.720177 
L 280.02727 -208.415759 
L 278.962349 -210.248955 
L 277.897428 -218.067519 
L 276.832508 -280.343 
L 275.767587 -214.383397 
L 274.702666 -208.415759 
L 273.637745 -213.468572 
L 272.572824 -208.415759 
L 271.507903 -210.266684 
L 270.442983 -241.707593 
L 269.378062 -210.029113 
L 268.313141 -208.415759 
L 267.24822 -210.86593 
L 266.183299 -212.433189 
L 265.118378 -210.660272 
L 264.053457 -213.287734 
L 262.988537 -210.319871 
L 261.923616 -208.415759 
L 260.858695 -214.691885 
L 259.793774 -215.050014 
L 258.728853 -210.802105 
L 257.663932 -216.365518 
L 256.599012 -210.248955 
L 255.534091 -210.82338 
L 254.46917 -210.961667 
L 253.404249 -209.03628 
L 252.339328 -210.982942 
L 251.274407 -213.532397 
L 250.209487 -217.64911 
L 249.144566 -208.82353 
L 248.079645 -210.493617 
L 247.014724 -210.65318 
L 245.949803 -208.44058 
L 244.884882 -214.447222 
L 243.819962 -208.415759 
L 242.755041 -210.103576 
L 241.69012 -208.731338 
L 240.625199 -208.415759 
L 239.560278 -215.64926 
L 238.495357 -218.606485 
L 237.430436 -209.965288 
L 236.365516 -210.982942 
L 235.300595 -208.415759 
L 234.235674 -210.107121 
L 233.170753 -209.862459 
L 232.105832 -208.415759 
L 231.040911 -213.298372 
L 229.975991 -213.39411 
L 228.91107 -210.982942 
L 227.846149 -242.540864 
L 226.781228 -214.854993 
L 225.716307 -208.415759 
L 224.651386 -210.596447 
L 223.586466 -208.415759 
L 222.521545 -208.415759 
L 221.456624 -216.273327 
L 220.391703 -210.982942 
L 219.326782 -208.415759 
L 218.261861 -211.241788 
L 217.19694 -211.351709 
L 216.13202 -213.532397 
L 215.067099 -260.351588 
L 214.002178 -212.209801 
L 212.937257 -208.415759 
L 211.872336 -210.901388 
L 210.807415 -210.982942 
L 209.742495 -208.415759 
L 208.677574 -211.20633 
L 207.612653 -211.88713 
L 206.547732 -208.415759 
L 205.482811 -210.99358 
L 204.41789 -208.415759 
L 203.35297 -208.415759 
L 202.288049 -209.84473 
L 201.223128 -208.415759 
L 200.158207 -210.922663 
L 199.093286 -208.415759 
L 198.028365 -208.415759 
L 196.963445 -211.80203 
L 195.898524 -208.936996 
L 194.833603 -208.415759 
L 193.768682 -210.982942 
L 192.703761 -210.479434 
L 191.63884 -212.248805 
L 190.573919 -208.415759 
L 189.508999 -211.146051 
L 188.444078 -216.298148 
L 187.379157 -208.415759 
L 186.314236 -208.415759 
L 185.249315 -208.415759 
L 184.184394 -210.22768 
L 183.119474 -209.752538 
L 182.054553 -211.755934 
L 180.989632 -208.415759 
L 179.924711 -211.833943 
L 178.85979 -217.915048 
L 177.794869 -209.050463 
L 176.729949 -208.415759 
L 175.665028 -210.004292 
L 174.600107 -208.415759 
L 173.535186 -211.677926 
L 172.470265 -208.929905 
L 171.405344 -208.415759 
L 170.340424 -215.571252 
L 169.275503 -208.415759 
L 168.210582 -208.415759 
L 167.145661 -210.982942 
L 166.08074 -208.415759 
L 165.015819 -211.312705 
L 163.950898 -211.146051 
L 162.885978 -208.415759 
L 161.821057 -208.415759 
L 160.756136 -208.415759 
L 159.691215 -210.982942 
L 158.626294 -209.862459 
L 157.561373 -211.950955 
L 156.496453 -208.415759 
L 155.431532 -208.415759 
L 154.366611 -208.415759 
L 153.30169 -208.415759 
L 152.236769 -210.539713 
L 151.171848 -209.454688 
L 150.106928 -208.415759 
L 149.042007 -210.717005 
L 147.977086 -210.90848 
L 146.912165 -208.415759 
L 145.847244 -208.415759 
L 144.782323 -208.415759 
L 143.717403 -210.961667 
L 142.652482 -217.220064 
L 141.587561 -208.415759 
L 140.52264 -208.415759 
L 139.457719 -210.982942 
L 138.392798 -208.415759 
L 137.327877 -208.415759 
L 136.262957 -208.415759 
L 135.198036 -239.870851 
L 134.133115 -208.415759 
L 133.068194 -255.344871 
L 132.003273 -208.415759 
L 130.938352 -208.415759 
L 129.873432 -245.150598 
L 128.808511 -210.961667 
L 127.74359 -208.415759 
L 126.678669 -208.415759 
L 125.613748 -208.415759 
L 124.548827 -255.933479 
L 123.483907 -208.415759 
L 122.418986 -208.415759 
L 121.354065 -208.415759 
L 120.289144 -208.415759 
L 119.224223 -210.472342 
L 118.159302 -209.178113 
L 117.094382 -208.415759 
L 116.029461 -210.451067 
L 114.96454 -215.77691 
L 113.899619 -208.415759 
L 112.834698 -210.915572 
L 111.769777 -208.415759 
L 110.704856 -212.61048 
L 109.639936 -210.961667 
L 108.575015 -208.415759 
L 107.510094 -208.415759 
L 106.445173 -212.631755 
L 105.380252 -208.415759 
L 104.315331 -211.380076 
L 103.250411 -208.415759 
L 102.18549 -214.308935 
L 101.120569 -209.610705 
L 100.055648 -208.415759 
L 98.990727 -209.514967 
L 97.925806 -214.436585 
L 96.860886 -213.220364 
L 95.795965 -271.375586 
L 94.731044 -208.139184 
L 93.666123 -210.092938 
L 92.601202 -208.858988 
L 91.536281 -212.436734 
L 90.47136 -209.397955 
L 89.40644 -218.581665 
L 88.341519 -209.511421 
L 87.276598 -213.372835 
L 86.211677 -221.826103 
L 85.146756 -211.33398 
L 84.081835 -217.964689 
L 83.016915 -212.206255 
L 81.951994 -277.882191 
L 80.887073 -215.312406 
L 79.822152 -219.099356 
L 78.757231 -278.176495 
L 77.69231 -251.252978 
L 76.62739 -209.015005 
L 75.562469 -216.684643 
L 74.497548 -211.411988 
L 73.432627 -211.67438 
L 72.367706 -246.381003 
L 71.302785 -258.738234 
L 70.237865 -213.592676 
L 69.172944 -254.830725 
L 68.108023 -209.766721 
L 67.043102 -214.113914 
L 65.978181 -241.342373 
L 64.91326 -210.252501 
L 63.848339 -213.794789 
L 62.783419 -214.33021 
L 61.718498 -252.11107 
L 60.653577 -208.4654 
z
" style="stroke: #e8a48f; stroke-opacity: 0.3"/>
    </defs>
    <g clip-path="url(#pf7135910fc)">
     <use xlink:href="#m520cb98967" x="0" y="342.983" style="fill: #e8a48f; fill-opacity: 0.3; stroke: #e8a48f; stroke-opacity: 0.3"/>
    </g>
   </g>
   <g id="line2d_14">
    <path d="M 60.653577 145.016814 
L 61.718498 126.387002 
L 62.783419 142.509909 
L 63.848339 140.400138 
L 64.91326 137.62375 
L 65.978181 126.69549 
L 67.043102 138.343554 
L 68.108023 148.626473 
L 69.172944 119.947768 
L 70.237865 138.64495 
L 71.302785 116.306197 
L 72.367706 124.968669 
L 73.432627 137.8365 
L 74.497548 142.357438 
L 75.562469 132.535478 
L 76.62739 138.102438 
L 77.69231 125.731023 
L 78.757231 111.100912 
L 79.822152 138.8577 
L 80.887073 139.417942 
L 81.951994 107.771374 
L 83.016915 133.79425 
L 84.081835 133.581499 
L 85.146756 138.283275 
L 86.211677 130.950491 
L 87.276598 142.853855 
L 88.341519 136.535179 
L 89.40644 138.343554 
L 90.47136 135.248041 
L 91.536281 137.237254 
L 92.601202 135.212583 
L 93.666123 140.056192 
L 94.731044 138.421563 
L 95.795965 178.003707 
L 96.860886 137.882596 
L 97.925806 134.531783 
L 98.990727 136.258604 
L 100.055648 134.567241 
L 101.120569 135.950117 
L 102.18549 142.343255 
L 103.250411 134.567241 
L 104.315331 136.613188 
L 105.380252 134.567241 
L 106.445173 137.474825 
L 107.510094 134.567241 
L 108.575015 134.567241 
L 109.639936 133.829708 
L 110.704856 137.464188 
L 111.769777 134.567241 
L 112.834698 136.294062 
L 113.899619 134.567241 
L 114.96454 132.432649 
L 116.029461 134.56015 
L 117.094382 134.567241 
L 118.159302 135.092025 
L 119.224223 133.971541 
L 120.289144 134.567241 
L 123.483907 134.567241 
L 124.548827 120.791677 
L 125.613748 134.567241 
L 127.74359 134.567241 
L 128.808511 133.829708 
L 129.873432 123.919102 
L 130.938352 134.567241 
L 132.003273 134.567241 
L 133.068194 120.961877 
L 134.133115 134.567241 
L 135.198036 125.447356 
L 136.262957 134.567241 
L 138.392798 134.567241 
L 139.457719 133.822616 
L 140.52264 134.567241 
L 141.587561 134.567241 
L 142.652482 140.003005 
L 143.717403 133.829708 
L 144.782323 134.567241 
L 146.912165 134.567241 
L 147.977086 136.286971 
L 149.042007 133.900625 
L 150.106928 134.567241 
L 151.171848 134.265845 
L 152.236769 136.031671 
L 153.30169 134.567241 
L 156.496453 134.567241 
L 157.561373 135.779917 
L 158.626294 135.567166 
L 159.691215 133.822616 
L 160.756136 134.567241 
L 162.885978 134.567241 
L 163.950898 133.77652 
L 165.015819 136.563546 
L 166.08074 134.567241 
L 167.145661 133.822616 
L 168.210582 134.567241 
L 169.275503 134.567241 
L 170.340424 132.492928 
L 171.405344 134.567241 
L 172.470265 134.921825 
L 173.535186 136.818846 
L 174.600107 134.567241 
L 175.665028 134.106283 
L 176.729949 134.567241 
L 177.794869 134.382858 
L 178.85979 131.812128 
L 180.989632 134.567241 
L 182.054553 136.872033 
L 184.184394 134.042458 
L 185.249315 134.567241 
L 187.379157 134.567241 
L 188.444078 138.414471 
L 189.508999 133.599229 
L 190.573919 134.567241 
L 191.63884 133.457395 
L 192.703761 135.992667 
L 193.768682 133.822616 
L 194.833603 134.567241 
L 195.898524 134.928916 
L 196.963445 136.9004 
L 198.028365 134.567241 
L 199.093286 134.567241 
L 200.158207 133.840345 
L 201.223128 134.567241 
L 202.288049 134.152379 
L 203.35297 134.567241 
L 204.41789 134.567241 
L 205.482811 136.34725 
L 206.547732 134.567241 
L 207.612653 133.209187 
L 208.677574 133.758791 
L 209.742495 134.567241 
L 210.807415 133.822616 
L 211.872336 133.847437 
L 212.937257 134.567241 
L 214.002178 137.928692 
L 215.067099 117.76708 
L 216.13202 133.085083 
L 217.19694 133.716241 
L 218.261861 136.51745 
L 219.326782 134.567241 
L 220.391703 133.822616 
L 221.456624 131.758941 
L 222.521545 134.567241 
L 223.586466 134.567241 
L 224.651386 133.936083 
L 225.716307 134.567241 
L 226.781228 145.921002 
L 227.846149 126.472102 
L 228.91107 133.822616 
L 229.975991 131.773124 
L 231.040911 136.953588 
L 232.105832 134.567241 
L 233.170753 148.672569 
L 234.235674 134.077916 
L 235.300595 134.567241 
L 236.365516 133.822616 
L 237.430436 134.11692 
L 238.495357 131.613562 
L 239.560278 134.638158 
L 240.625199 134.567241 
L 241.69012 135.127483 
L 242.755041 133.90417 
L 243.819962 134.567241 
L 244.884882 142.839672 
L 245.949803 134.58497 
L 247.014724 136.109679 
L 248.079645 133.96445 
L 249.144566 134.450229 
L 250.209487 140.939105 
L 251.274407 133.085083 
L 252.339328 133.822616 
L 253.404249 140.885917 
L 254.46917 133.829708 
L 255.534091 133.868712 
L 256.599012 134.035366 
L 257.663932 146.818098 
L 258.728853 133.875804 
L 259.793774 135.701908 
L 260.858695 132.148983 
L 261.923616 134.567241 
L 262.988537 134.514054 
L 264.053457 137.056417 
L 265.118378 136.116771 
L 266.183299 135.815375 
L 267.24822 133.723333 
L 268.313141 134.567241 
L 269.378062 134.099191 
L 270.442983 124.915481 
L 271.507903 135.843742 
L 272.572824 134.567241 
L 273.637745 133.102812 
L 274.702666 134.567241 
L 275.767587 138.6875 
L 276.832508 106.069374 
L 277.897428 140.800817 
L 278.962349 134.035366 
L 280.02727 134.567241 
L 281.092191 133.414845 
L 282.157112 143.850235 
L 283.222033 130.922124 
L 284.286953 137.102513 
L 285.351874 133.98927 
L 286.416795 134.567241 
L 287.481716 138.442838 
L 288.546637 141.871659 
L 289.611558 140.460417 
L 290.676478 139.432125 
L 291.741399 134.567241 
L 292.80632 139.308021 
L 293.871241 134.567241 
L 296.001083 134.460866 
L 297.066004 133.652416 
L 298.130924 134.567241 
L 299.195845 133.09572 
L 300.260766 133.106358 
L 301.325687 134.567241 
L 302.390608 133.975087 
L 303.455529 133.592137 
L 304.520449 134.567241 
L 305.58537 111.5796 
L 306.650291 132.056791 
L 307.715212 122.291564 
L 308.780133 134.779991 
L 309.845054 133.840345 
L 310.909974 126.454373 
L 311.974895 133.918354 
L 313.039816 134.567241 
L 315.169658 133.088629 
L 316.234579 135.49625 
L 317.299499 134.521145 
L 320.494262 134.567241 
L 321.559183 134.567241 
L 322.624104 140.10938 
L 323.689025 130.017936 
L 324.753945 135.648721 
L 325.818866 140.020734 
L 325.818866 140.020734 
" clip-path="url(#pf7135910fc)" style="fill: none; stroke: #e8a48f; stroke-opacity: 0.8; stroke-width: 0.9; stroke-linecap: round"/>
   </g>
   <g id="line2d_15">
    <path d="M 60.653577 135.588119 
L 61.718498 135.93142 
L 62.783419 137.209532 
L 63.848339 135.880489 
L 64.91326 136.25119 
L 67.043102 132.768536 
L 68.108023 133.8094 
L 69.172944 133.795539 
L 70.237865 133.08057 
L 71.302785 133.124087 
L 72.367706 133.036408 
L 73.432627 130.559804 
L 74.497548 129.671734 
L 75.562469 131.44175 
L 76.62739 128.635061 
L 77.69231 130.224884 
L 78.757231 131.007869 
L 79.822152 131.048485 
L 80.887073 130.011489 
L 81.951994 130.949524 
L 83.016915 130.807046 
L 84.081835 131.953639 
L 85.146756 134.148833 
L 86.211677 134.00152 
L 87.276598 133.619214 
L 88.341519 136.554198 
L 89.40644 136.974863 
L 90.47136 141.013245 
L 91.536281 140.97682 
L 92.601202 141.302392 
L 93.666123 140.702823 
L 95.795965 140.306335 
L 96.860886 140.951354 
L 97.925806 140.708626 
L 98.990727 140.835953 
L 100.055648 140.336958 
L 101.120569 140.250891 
L 102.18549 136.302121 
L 103.250411 136.000725 
L 104.315331 135.9369 
L 106.445173 136.046499 
L 107.510094 136.077767 
L 108.575015 135.370856 
L 110.704856 134.990163 
L 111.769777 134.990163 
L 112.834698 134.773544 
L 114.96454 134.71939 
L 116.029461 134.786438 
L 117.094382 134.52308 
L 118.159302 134.52308 
L 119.224223 133.113772 
L 120.289144 133.113772 
L 121.354065 133.307826 
L 123.483907 133.241422 
L 124.548827 132.225702 
L 126.678669 132.279856 
L 127.74359 131.043005 
L 128.808511 131.043005 
L 129.873432 130.213924 
L 130.938352 131.466248 
L 135.198036 131.465604 
L 136.262957 132.433616 
L 137.327877 132.927777 
L 138.392798 132.860728 
L 139.457719 134.09758 
L 140.52264 134.09758 
L 141.587561 134.92666 
L 142.652482 135.082999 
L 144.782323 135.022397 
L 147.977086 135.195821 
L 149.042007 134.701661 
L 153.30169 134.969855 
L 154.366611 134.745822 
L 157.561373 134.833824 
L 158.626294 134.62881 
L 159.691215 134.810292 
L 162.885978 134.742599 
L 163.950898 134.632356 
L 165.015819 134.35288 
L 170.340424 134.687477 
L 171.405344 134.505995 
L 172.470265 134.489233 
L 174.600107 134.184614 
L 175.665028 134.184614 
L 176.729949 134.582714 
L 177.794869 134.666525 
L 178.85979 134.586582 
L 179.924711 134.381891 
L 182.054553 134.423796 
L 183.119474 134.773544 
L 184.184394 134.702305 
L 185.249315 134.95277 
L 187.379157 135.103307 
L 188.444078 134.826087 
L 189.508999 134.742277 
L 190.573919 134.822864 
L 191.63884 135.034969 
L 193.768682 135.034969 
L 194.833603 134.619139 
L 195.898524 134.707141 
L 196.963445 134.669426 
L 198.028365 134.770321 
L 199.093286 134.640737 
L 200.158207 134.870249 
L 201.223128 134.870249 
L 202.288049 134.71391 
L 203.35297 134.428309 
L 207.612653 134.361261 
L 208.677574 134.704562 
L 209.742495 133.177274 
L 211.872336 132.80335 
L 214.002178 133.104101 
L 215.067099 133.109904 
L 216.13202 132.854604 
L 218.261861 132.987733 
L 219.326782 132.930355 
L 220.391703 132.624769 
L 221.456624 135.184216 
L 222.521545 134.583036 
L 223.586466 134.592707 
L 224.651386 134.161405 
L 225.716307 134.378345 
L 226.781228 134.446038 
L 227.846149 135.983641 
L 232.105832 135.887903 
L 233.170753 134.587227 
L 234.235674 135.329596 
L 235.300595 135.397289 
L 236.365516 135.702231 
L 237.430436 135.425011 
L 238.495357 135.425011 
L 239.560278 134.894747 
L 243.819962 135.12426 
L 244.884882 135.972036 
L 247.014724 135.763154 
L 248.079645 136.286648 
L 250.209487 136.216376 
L 251.274407 135.415985 
L 252.339328 136.528087 
L 253.404249 136.325008 
L 254.46917 136.482959 
L 255.534091 136.273754 
L 256.599012 135.694494 
L 257.663932 135.824401 
L 258.728853 136.118383 
L 259.793774 135.684824 
L 260.858695 135.865339 
L 262.988537 135.900475 
L 264.053457 134.744211 
L 265.118378 133.929636 
L 266.183299 133.94253 
L 267.24822 134.162372 
L 268.313141 134.029242 
L 269.378062 134.034077 
L 270.442983 134.182357 
L 271.507903 131.450776 
L 272.572824 131.903998 
L 274.702666 131.932364 
L 275.767587 131.870151 
L 276.832508 133.591492 
L 277.897428 133.144073 
L 278.962349 133.374552 
L 281.092191 133.455139 
L 282.157112 133.432897 
L 283.222033 136.68765 
L 284.286953 136.656705 
L 285.351874 137.147319 
L 286.416795 137.147319 
L 287.481716 137.683062 
L 288.546637 136.839154 
L 289.611558 137.170528 
L 290.676478 136.930378 
L 292.80632 136.899755 
L 293.871241 136.413654 
L 294.936162 135.616808 
L 297.066004 134.58497 
L 298.130924 134.496325 
L 299.195845 134.065345 
L 300.260766 131.975559 
L 301.325687 131.747336 
L 302.390608 130.641036 
L 303.455529 130.743543 
L 304.520449 130.677462 
L 305.58537 130.073703 
L 307.715212 130.147521 
L 310.909974 130.173953 
L 311.974895 132.259548 
L 313.039816 132.487771 
L 314.104737 133.603742 
L 316.234579 133.650482 
L 317.299499 134.891846 
L 318.36442 134.537263 
L 319.429341 134.635579 
L 320.494262 135.197433 
L 321.559183 135.331852 
L 323.689025 135.251587 
L 325.818866 135.251587 
L 325.818866 135.251587 
" clip-path="url(#pf7135910fc)" style="fill: none; stroke: #c8421a; stroke-width: 2.4; stroke-linecap: round"/>
   </g>
   <g id="line2d_16">
    <path d="M 47.395313 134.567241 
L 339.077131 134.567241 
" clip-path="url(#pf7135910fc)" style="fill: none; stroke: #0a0a0a; stroke-linecap: round"/>
   </g>
   <g id="patch_3">
    <path d="M 47.395313 295.488 
L 47.395313 51.552 
" style="fill: none; stroke: #e5e5e5; stroke-width: 1.25; stroke-linejoin: miter; stroke-linecap: square"/>
   </g>
   <g id="patch_4">
    <path d="M 47.395313 295.488 
L 339.077131 295.488 
" style="fill: none; stroke: #e5e5e5; stroke-width: 1.25; stroke-linejoin: miter; stroke-linecap: square"/>
   </g>
   <g id="patch_5">
    <path d="M 235.353878 97.559742 
Q 255.114708 101.608747 273.78026 105.433329 
" style="fill: none; stroke: #0a0a0a; stroke-linecap: round"/>
    <path d="M 270.614847 102.947337 
L 273.78026 105.433329 
L 269.892218 106.474065 
" style="fill: none; stroke: #0a0a0a; stroke-linecap: round"/>
   </g>
   <g id="text_16">
    <text style="font-size: 9px; font-family: 'Geist', 'Inter', 'Helvetica Neue', 'Arial', 'DejaVu Sans', sans-serif; fill: #0a0a0a" transform="translate(187.379157 90.144819)">best group</text>
    <text style="font-size: 9px; font-family: 'Geist', 'Inter', 'Helvetica Neue', 'Arial', 'DejaVu Sans', sans-serif; fill: #0a0a0a" transform="translate(187.379157 100.881819)">(step 204)</text>
   </g>
   <g id="text_17">
    <text style="font-weight: 700; font-size: 14px; font-family: 'Geist', 'Inter', 'Helvetica Neue', 'Arial', 'DejaVu Sans', sans-serif; text-anchor: middle; fill: #0a0a0a" x="193.236222" y="45.552" transform="rotate(-0 193.236222 45.552)">Reward: noisy, format-driven, slowly rising</text>
   </g>
   <g id="PathCollection_1">
    <defs>
     <path id="m7abc9f0ee4" d="M 0 2.645751 
C 0.701661 2.645751 1.374679 2.366978 1.870829 1.870829 
C 2.366978 1.374679 2.645751 0.701661 2.645751 0 
C 2.645751 -0.701661 2.366978 -1.374679 1.870829 -1.870829 
C 1.374679 -2.366978 0.701661 -2.645751 0 -2.645751 
C -0.701661 -2.645751 -1.374679 -2.366978 -1.870829 -1.870829 
C -2.366978 -1.374679 -2.645751 -0.701661 -2.645751 0 
C -2.645751 0.701661 -2.366978 1.374679 -1.870829 1.870829 
C -1.374679 2.366978 -0.701661 2.645751 0 2.645751 
z
" style="stroke: #0a0a0a"/>
    </defs>
    <g clip-path="url(#pf7135910fc)">
     <use xlink:href="#m7abc9f0ee4" x="276.832508" y="106.058737" style="fill: #0a0a0a; stroke: #0a0a0a"/>
    </g>
   </g>
   <g id="legend_1">
    <g id="patch_6">
     <path d="M 190.497131 271.875 
L 207.497131 271.875 
L 207.497131 265.925 
L 190.497131 265.925 
z
" style="fill: #e8a48f; fill-opacity: 0.3; stroke: #e8a48f; stroke-opacity: 0.3; stroke-linejoin: miter"/>
    </g>
    <g id="text_18">
     <!-- $\pm$ reward std (in-group spread) -->
     <g style="fill: #0a0a0a" transform="translate(214.297131 271.875)">
      <text>
       <tspan x="0" y="-0.78125" style="font-size: 8.5px; font-family: 'DejaVu Sans'; fill: #0a0a0a">±</tspan>
       <tspan x="7.12207" y="-0.78125" style="font-size: 8.5px; font-family: 'Helvetica Neue'; fill: #0a0a0a"> </tspan>
       <tspan x="9.485092" y="-0.78125" style="font-size: 8.5px; font-family: 'Helvetica Neue'; fill: #0a0a0a">r</tspan>
       <tspan x="12.315628" y="-0.78125" style="font-size: 8.5px; font-family: 'Helvetica Neue'; fill: #0a0a0a">e</tspan>
       <tspan x="16.880188" y="-0.78125" style="font-size: 8.5px; font-family: 'Helvetica Neue'; fill: #0a0a0a">w</tspan>
       <tspan x="23.323257" y="-0.78125" style="font-size: 8.5px; font-family: 'Helvetica Neue'; fill: #0a0a0a">a</tspan>
       <tspan x="27.887817" y="-0.78125" style="font-size: 8.5px; font-family: 'Helvetica Neue'; fill: #0a0a0a">r</tspan>
       <tspan x="30.718353" y="-0.78125" style="font-size: 8.5px; font-family: 'Helvetica Neue'; fill: #0a0a0a">d</tspan>
       <tspan x="35.758911" y="-0.78125" style="font-size: 8.5px; font-family: 'Helvetica Neue'; fill: #0a0a0a"> </tspan>
       <tspan x="38.121933" y="-0.78125" style="font-size: 8.5px; font-family: 'Helvetica Neue'; fill: #0a0a0a">s</tspan>
       <tspan x="42.371979" y="-0.78125" style="font-size: 8.5px; font-family: 'Helvetica Neue'; fill: #0a0a0a">t</tspan>
       <tspan x="45.049515" y="-0.78125" style="font-size: 8.5px; font-family: 'Helvetica Neue'; fill: #0a0a0a">d</tspan>
       <tspan x="50.090073" y="-0.78125" style="font-size: 8.5px; font-family: 'Helvetica Neue'; fill: #0a0a0a"> </tspan>
       <tspan x="52.453094" y="-0.78125" style="font-size: 8.5px; font-family: 'Helvetica Neue'; fill: #0a0a0a">(</tspan>
       <tspan x="54.654617" y="-0.78125" style="font-size: 8.5px; font-family: 'Helvetica Neue'; fill: #0a0a0a">i</tspan>
       <tspan x="56.541641" y="-0.78125" style="font-size: 8.5px; font-family: 'Helvetica Neue'; fill: #0a0a0a">n</tspan>
       <tspan x="61.2677" y="-0.78125" style="font-size: 8.5px; font-family: 'Helvetica Neue'; fill: #0a0a0a">-</tspan>
       <tspan x="64.574234" y="-0.78125" style="font-size: 8.5px; font-family: 'Helvetica Neue'; fill: #0a0a0a">g</tspan>
       <tspan x="69.453293" y="-0.78125" style="font-size: 8.5px; font-family: 'Helvetica Neue'; fill: #0a0a0a">r</tspan>
       <tspan x="72.283829" y="-0.78125" style="font-size: 8.5px; font-family: 'Helvetica Neue'; fill: #0a0a0a">o</tspan>
       <tspan x="77.162888" y="-0.78125" style="font-size: 8.5px; font-family: 'Helvetica Neue'; fill: #0a0a0a">u</tspan>
       <tspan x="81.888947" y="-0.78125" style="font-size: 8.5px; font-family: 'Helvetica Neue'; fill: #0a0a0a">p</tspan>
       <tspan x="86.929504" y="-0.78125" style="font-size: 8.5px; font-family: 'Helvetica Neue'; fill: #0a0a0a"> </tspan>
       <tspan x="89.292526" y="-0.78125" style="font-size: 8.5px; font-family: 'Helvetica Neue'; fill: #0a0a0a">s</tspan>
       <tspan x="93.542572" y="-0.78125" style="font-size: 8.5px; font-family: 'Helvetica Neue'; fill: #0a0a0a">p</tspan>
       <tspan x="98.58313" y="-0.78125" style="font-size: 8.5px; font-family: 'Helvetica Neue'; fill: #0a0a0a">r</tspan>
       <tspan x="101.413666" y="-0.78125" style="font-size: 8.5px; font-family: 'Helvetica Neue'; fill: #0a0a0a">e</tspan>
       <tspan x="105.978226" y="-0.78125" style="font-size: 8.5px; font-family: 'Helvetica Neue'; fill: #0a0a0a">a</tspan>
       <tspan x="110.542786" y="-0.78125" style="font-size: 8.5px; font-family: 'Helvetica Neue'; fill: #0a0a0a">d</tspan>
       <tspan x="115.583344" y="-0.78125" style="font-size: 8.5px; font-family: 'Helvetica Neue'; fill: #0a0a0a">)</tspan>
      </text>
     </g>
    </g>
    <g id="line2d_17">
     <path d="M 190.497131 283.0525 
L 198.997131 283.0525 
L 207.497131 283.0525 
" style="fill: none; stroke: #c8421a; stroke-width: 2.4; stroke-linecap: round"/>
    </g>
    <g id="text_19">
     <text style="font-size: 8.5px; font-family: 'Geist', 'Inter', 'Helvetica Neue', 'Arial', 'DejaVu Sans', sans-serif; text-anchor: start; fill: #0a0a0a" x="214.297131" y="286.0275" transform="rotate(-0 214.297131 286.0275)">reward (smoothed)</text>
    </g>
   </g>
  </g>
  <g id="axes_2">
   <g id="patch_7">
    <path d="M 397.413494 295.488 
L 689.095312 295.488 
L 689.095312 51.552 
L 397.413494 51.552 
z
" style="fill: #fafafa"/>
   </g>
   <g id="matplotlib.axis_3">
    <g id="xtick_7">
     <g id="line2d_18">
      <path d="M 409.606838 295.488 
L 409.606838 51.552 
" clip-path="url(#p3de4252f90)" style="fill: none; stroke: #e5e5e5; stroke-width: 0.8; stroke-linecap: round"/>
     </g>
     <g id="text_20">
      <text style="font-size: 11px; font-family: 'Geist', 'Inter', 'Helvetica Neue', 'Arial', 'DejaVu Sans', sans-serif; text-anchor: middle; fill: #525252" x="409.606838" y="315.46" transform="rotate(-0 409.606838 315.46)">0</text>
     </g>
    </g>
    <g id="xtick_8">
     <g id="line2d_19">
      <path d="M 462.85288 295.488 
L 462.85288 51.552 
" clip-path="url(#p3de4252f90)" style="fill: none; stroke: #e5e5e5; stroke-width: 0.8; stroke-linecap: round"/>
     </g>
     <g id="text_21">
      <text style="font-size: 11px; font-family: 'Geist', 'Inter', 'Helvetica Neue', 'Arial', 'DejaVu Sans', sans-serif; text-anchor: middle; fill: #525252" x="462.85288" y="315.46" transform="rotate(-0 462.85288 315.46)">50</text>
     </g>
    </g>
    <g id="xtick_9">
     <g id="line2d_20">
      <path d="M 516.098922 295.488 
L 516.098922 51.552 
" clip-path="url(#p3de4252f90)" style="fill: none; stroke: #e5e5e5; stroke-width: 0.8; stroke-linecap: round"/>
     </g>
     <g id="text_22">
      <text style="font-size: 11px; font-family: 'Geist', 'Inter', 'Helvetica Neue', 'Arial', 'DejaVu Sans', sans-serif; text-anchor: middle; fill: #525252" x="516.098922" y="315.46" transform="rotate(-0 516.098922 315.46)">100</text>
     </g>
    </g>
    <g id="xtick_10">
     <g id="line2d_21">
      <path d="M 569.344964 295.488 
L 569.344964 51.552 
" clip-path="url(#p3de4252f90)" style="fill: none; stroke: #e5e5e5; stroke-width: 0.8; stroke-linecap: round"/>
     </g>
     <g id="text_23">
      <text style="font-size: 11px; font-family: 'Geist', 'Inter', 'Helvetica Neue', 'Arial', 'DejaVu Sans', sans-serif; text-anchor: middle; fill: #525252" x="569.344964" y="315.46" transform="rotate(-0 569.344964 315.46)">150</text>
     </g>
    </g>
    <g id="xtick_11">
     <g id="line2d_22">
      <path d="M 622.591006 295.488 
L 622.591006 51.552 
" clip-path="url(#p3de4252f90)" style="fill: none; stroke: #e5e5e5; stroke-width: 0.8; stroke-linecap: round"/>
     </g>
     <g id="text_24">
      <text style="font-size: 11px; font-family: 'Geist', 'Inter', 'Helvetica Neue', 'Arial', 'DejaVu Sans', sans-serif; text-anchor: middle; fill: #525252" x="622.591006" y="315.46" transform="rotate(-0 622.591006 315.46)">200</text>
     </g>
    </g>
    <g id="xtick_12">
     <g id="line2d_23">
      <path d="M 675.837048 295.488 
L 675.837048 51.552 
" clip-path="url(#p3de4252f90)" style="fill: none; stroke: #e5e5e5; stroke-width: 0.8; stroke-linecap: round"/>
     </g>
     <g id="text_25">
      <text style="font-size: 11px; font-family: 'Geist', 'Inter', 'Helvetica Neue', 'Arial', 'DejaVu Sans', sans-serif; text-anchor: middle; fill: #525252" x="675.837048" y="315.46" transform="rotate(-0 675.837048 315.46)">250</text>
     </g>
    </g>
    <g id="text_26">
     <text style="font-size: 12px; font-family: 'Geist', 'Inter', 'Helvetica Neue', 'Arial', 'DejaVu Sans', sans-serif; text-anchor: middle; fill: #0a0a0a" x="543.254403" y="333.227" transform="rotate(-0 543.254403 333.227)">GRPO step</text>
    </g>
   </g>
   <g id="matplotlib.axis_4">
    <g id="ytick_8">
     <g id="line2d_24">
      <path d="M 397.413494 284.4 
L 689.095312 284.4 
" clip-path="url(#p3de4252f90)" style="fill: none; stroke: #e5e5e5; stroke-width: 0.8; stroke-linecap: round"/>
     </g>
     <g id="text_27">
      <!-- $\mathdefault{10^{-6}}$ -->
      <g style="fill: #525252" transform="translate(366.353494 289.636)">
       <text>
        <tspan x="0" y="-0.999188" style="font-size: 11px; font-family: 'Helvetica Neue'; fill: #525252">1</tspan>
        <tspan x="6.115952" y="-0.999188" style="font-size: 11px; font-family: 'Helvetica Neue'; fill: #525252">0</tspan>
        <tspan x="12.337177" y="-5.542188" style="font-size: 7.7px; font-family: 'Helvetica Neue'; fill: #525252">−</tspan>
        <tspan x="16.957138" y="-5.542188" style="font-size: 7.7px; font-family: 'Helvetica Neue'; fill: #525252">6</tspan>
       </text>
      </g>
     </g>
    </g>
    <g id="ytick_9">
     <g id="line2d_25">
      <path d="M 397.413494 249.252611 
L 689.095312 249.252611 
" clip-path="url(#p3de4252f90)" style="fill: none; stroke: #e5e5e5; stroke-width: 0.8; stroke-linecap: round"/>
     </g>
     <g id="text_28">
      <!-- $\mathdefault{10^{-5}}$ -->
      <g style="fill: #525252" transform="translate(366.353494 254.488611)">
       <text>
        <tspan x="0" y="-0.086688" style="font-size: 11px; font-family: 'Helvetica Neue'; fill: #525252">1</tspan>
        <tspan x="6.115952" y="-0.086688" style="font-size: 11px; font-family: 'Helvetica Neue'; fill: #525252">0</tspan>
        <tspan x="12.337177" y="-4.629688" style="font-size: 7.7px; font-family: 'Helvetica Neue'; fill: #525252">−</tspan>
        <tspan x="16.957138" y="-4.629688" style="font-size: 7.7px; font-family: 'Helvetica Neue'; fill: #525252">5</tspan>
       </text>
      </g>
     </g>
    </g>
    <g id="ytick_10">
     <g id="line2d_26">
      <path d="M 397.413494 214.105221 
L 689.095312 214.105221 
" clip-path="url(#p3de4252f90)" style="fill: none; stroke: #e5e5e5; stroke-width: 0.8; stroke-linecap: round"/>
     </g>
     <g id="text_29">
      <!-- $\mathdefault{10^{-4}}$ -->
      <g style="fill: #525252" transform="translate(366.353494 219.341221)">
       <text>
        <tspan x="0" y="-0.999188" style="font-size: 11px; font-family: 'Helvetica Neue'; fill: #525252">1</tspan>
        <tspan x="6.115952" y="-0.999188" style="font-size: 11px; font-family: 'Helvetica Neue'; fill: #525252">0</tspan>
        <tspan x="12.337177" y="-5.542188" style="font-size: 7.7px; font-family: 'Helvetica Neue'; fill: #525252">−</tspan>
        <tspan x="16.957138" y="-5.542188" style="font-size: 7.7px; font-family: 'Helvetica Neue'; fill: #525252">4</tspan>
       </text>
      </g>
     </g>
    </g>
    <g id="ytick_11">
     <g id="line2d_27">
      <path d="M 397.413494 178.957832 
L 689.095312 178.957832 
" clip-path="url(#p3de4252f90)" style="fill: none; stroke: #e5e5e5; stroke-width: 0.8; stroke-linecap: round"/>
     </g>
     <g id="text_30">
      <!-- $\mathdefault{10^{-3}}$ -->
      <g style="fill: #525252" transform="translate(366.353494 184.193832)">
       <text>
        <tspan x="0" y="-0.999188" style="font-size: 11px; font-family: 'Helvetica Neue'; fill: #525252">1</tspan>
        <tspan x="6.115952" y="-0.999188" style="font-size: 11px; font-family: 'Helvetica Neue'; fill: #525252">0</tspan>
        <tspan x="12.337177" y="-5.542188" style="font-size: 7.7px; font-family: 'Helvetica Neue'; fill: #525252">−</tspan>
        <tspan x="16.957138" y="-5.542188" style="font-size: 7.7px; font-family: 'Helvetica Neue'; fill: #525252">3</tspan>
       </text>
      </g>
     </g>
    </g>
    <g id="ytick_12">
     <g id="line2d_28">
      <path d="M 397.413494 143.810443 
L 689.095312 143.810443 
" clip-path="url(#p3de4252f90)" style="fill: none; stroke: #e5e5e5; stroke-width: 0.8; stroke-linecap: round"/>
     </g>
     <g id="text_31">
      <!-- $\mathdefault{10^{-2}}$ -->
      <g style="fill: #525252" transform="translate(366.353494 149.046443)">
       <text>
        <tspan x="0" y="-0.999188" style="font-size: 11px; font-family: 'Helvetica Neue'; fill: #525252">1</tspan>
        <tspan x="6.115952" y="-0.999188" style="font-size: 11px; font-family: 'Helvetica Neue'; fill: #525252">0</tspan>
        <tspan x="12.337177" y="-5.542188" style="font-size: 7.7px; font-family: 'Helvetica Neue'; fill: #525252">−</tspan>
        <tspan x="16.957138" y="-5.542188" style="font-size: 7.7px; font-family: 'Helvetica Neue'; fill: #525252">2</tspan>
       </text>
      </g>
     </g>
    </g>
    <g id="ytick_13">
     <g id="line2d_29">
      <path d="M 397.413494 108.663054 
L 689.095312 108.663054 
" clip-path="url(#p3de4252f90)" style="fill: none; stroke: #e5e5e5; stroke-width: 0.8; stroke-linecap: round"/>
     </g>
     <g id="text_32">
      <!-- $\mathdefault{10^{-1}}$ -->
      <g style="fill: #525252" transform="translate(366.353494 113.899054)">
       <text>
        <tspan x="0" y="-0.999188" style="font-size: 11px; font-family: 'Helvetica Neue'; fill: #525252">1</tspan>
        <tspan x="6.115952" y="-0.999188" style="font-size: 11px; font-family: 'Helvetica Neue'; fill: #525252">0</tspan>
        <tspan x="12.337177" y="-5.542188" style="font-size: 7.7px; font-family: 'Helvetica Neue'; fill: #525252">−</tspan>
        <tspan x="16.957138" y="-5.542188" style="font-size: 7.7px; font-family: 'Helvetica Neue'; fill: #525252">1</tspan>
       </text>
      </g>
     </g>
    </g>
    <g id="ytick_14">
     <g id="line2d_30">
      <path d="M 397.413494 73.515664 
L 689.095312 73.515664 
" clip-path="url(#p3de4252f90)" style="fill: none; stroke: #e5e5e5; stroke-width: 0.8; stroke-linecap: round"/>
     </g>
     <g id="text_33">
      <!-- $\mathdefault{10^{0}}$ -->
      <g style="fill: #525252" transform="translate(370.973494 78.751664)">
       <text>
        <tspan x="0" y="-0.999188" style="font-size: 11px; font-family: 'Helvetica Neue'; fill: #525252">1</tspan>
        <tspan x="6.115952" y="-0.999188" style="font-size: 11px; font-family: 'Helvetica Neue'; fill: #525252">0</tspan>
        <tspan x="12.337177" y="-5.542188" style="font-size: 7.7px; font-family: 'Helvetica Neue'; fill: #525252">0</tspan>
       </text>
      </g>
     </g>
    </g>
    <g id="ytick_15"/>
    <g id="ytick_16"/>
    <g id="ytick_17"/>
    <g id="ytick_18"/>
    <g id="ytick_19"/>
    <g id="ytick_20"/>
    <g id="ytick_21"/>
    <g id="ytick_22"/>
    <g id="ytick_23"/>
    <g id="ytick_24"/>
    <g id="ytick_25"/>
    <g id="ytick_26"/>
    <g id="ytick_27"/>
    <g id="ytick_28"/>
    <g id="ytick_29"/>
    <g id="ytick_30"/>
    <g id="ytick_31"/>
    <g id="ytick_32"/>
    <g id="ytick_33"/>
    <g id="ytick_34"/>
    <g id="ytick_35"/>
    <g id="ytick_36"/>
    <g id="ytick_37"/>
    <g id="ytick_38"/>
    <g id="ytick_39"/>
    <g id="ytick_40"/>
    <g id="ytick_41"/>
    <g id="ytick_42"/>
    <g id="ytick_43"/>
    <g id="ytick_44"/>
    <g id="ytick_45"/>
    <g id="ytick_46"/>
    <g id="ytick_47"/>
    <g id="ytick_48"/>
    <g id="ytick_49"/>
    <g id="ytick_50"/>
    <g id="ytick_51"/>
    <g id="ytick_52"/>
    <g id="ytick_53"/>
    <g id="ytick_54"/>
    <g id="ytick_55"/>
    <g id="ytick_56"/>
    <g id="ytick_57"/>
    <g id="ytick_58"/>
    <g id="ytick_59"/>
    <g id="ytick_60"/>
    <g id="ytick_61"/>
    <g id="ytick_62"/>
    <g id="ytick_63"/>
    <g id="ytick_64"/>
    <g id="ytick_65"/>
    <g id="ytick_66"/>
    <g id="ytick_67"/>
    <g id="ytick_68"/>
    <g id="ytick_69"/>
    <g id="ytick_70"/>
    <g id="text_34">
     <text style="font-size: 12px; font-family: 'Geist', 'Inter', 'Helvetica Neue', 'Arial', 'DejaVu Sans', sans-serif; text-anchor: middle; fill: #0a0a0a" x="359.797494" y="173.52" transform="rotate(-90 359.797494 173.52)">KL to reference (log)</text>
    </g>
   </g>
   <g id="line2d_31">
    <path d="M 410.671759 284.4 
L 411.73668 284.4 
L 412.8016 247.797766 
L 420.256046 247.797766 
L 421.320967 237.927444 
L 425.580651 237.927444 
L 426.645571 221.650317 
L 427.710492 219.333102 
L 429.840334 215.54481 
L 431.970176 212.512237 
L 433.035096 224.383366 
L 434.100017 206.835832 
L 435.164938 219.333102 
L 436.229859 209.983442 
L 437.29478 196.302892 
L 438.359701 202.70754 
L 439.424621 182.927576 
L 440.489542 194.093215 
L 441.554463 182.536663 
L 442.619384 165.779967 
L 443.684305 190.450294 
L 444.749226 162.543445 
L 445.814147 166.30389 
L 446.879067 165.844482 
L 447.943988 168.369783 
L 449.008909 163.12734 
L 450.07383 162.753195 
L 451.138751 149.4944 
L 452.203672 146.235615 
L 453.268592 162.64796 
L 454.333513 128.552764 
L 456.463355 167.844927 
L 457.528276 167.408982 
L 458.593197 146.856424 
L 459.658117 93.528281 
L 460.723038 119.733295 
L 461.787959 158.778062 
L 462.85288 99.878519 
L 463.917801 156.725052 
L 464.982722 130.996768 
L 466.047642 93.16343 
L 467.112563 136.933834 
L 468.177484 69.911035 
L 469.242405 159.874562 
L 470.307326 161.150748 
L 471.372247 154.915716 
L 472.437168 136.568573 
L 473.502088 146.652798 
L 474.567009 131.809215 
L 475.63193 145.759998 
L 476.696851 146.415599 
L 477.761772 153.441064 
L 478.826693 117.139065 
L 479.891613 155.042629 
L 480.956534 158.859668 
L 482.021455 155.528176 
L 483.086376 158.81881 
L 484.151297 144.591793 
L 485.216218 144.656193 
L 486.281138 144.883756 
L 487.346059 153.072617 
L 488.41098 165.909271 
L 489.475901 158.416141 
L 490.540822 148.90774 
L 491.605743 146.057728 
L 492.670663 90.886853 
L 493.735584 155.793591 
L 494.800505 151.681804 
L 495.865426 138.695154 
L 496.930347 145.265135 
L 497.995268 123.872262 
L 499.060189 152.82265 
L 500.125109 145.604696 
L 501.19003 139.571428 
L 502.254951 104.825774 
L 503.319872 141.141061 
L 504.384793 140.439763 
L 505.449714 157.194649 
L 506.514634 147.138547 
L 507.579555 154.758545 
L 508.644476 153.936703 
L 509.709397 145.015332 
L 510.774318 139.816203 
L 511.839239 147.272011 
L 512.904159 139.082145 
L 513.96908 145.829531 
L 515.034001 150.933525 
L 516.098922 149.516567 
L 517.163843 121.045968 
L 518.228764 157.52843 
L 519.293685 138.870848 
L 520.358605 136.036564 
L 521.423526 149.209118 
L 522.488447 151.478649 
L 523.553368 132.770681 
L 525.68321 158.416141 
L 526.74813 139.330516 
L 527.813051 145.864417 
L 528.877972 91.145783 
L 529.942893 119.952376 
L 531.007814 143.747987 
L 532.072735 138.022373 
L 533.137655 144.30531 
L 535.267497 161.584697 
L 536.332418 155.96185 
L 537.397339 149.079227 
L 538.46226 119.124569 
L 539.52718 140.076915 
L 540.592101 155.3321 
L 541.657022 146.561131 
L 542.721943 151.810162 
L 543.786864 156.338682 
L 544.851785 148.57044 
L 545.916706 100.346642 
L 546.981626 153.185041 
L 548.046547 163.455499 
L 549.111468 150.572707 
L 550.176389 156.760666 
L 551.24131 169.641883 
L 552.306231 149.989672 
L 553.371151 143.732793 
L 554.436072 131.169165 
L 555.500993 105.459627 
L 556.565914 147.406651 
L 557.630835 62.64 
L 558.695756 82.482732 
L 559.760676 151.42828 
L 560.825597 149.144034 
L 561.890518 160.775108 
L 562.955439 153.128726 
L 564.02036 151.031202 
L 565.085281 146.597732 
L 566.150201 153.213277 
L 567.215122 95.232922 
L 568.280043 152.096409 
L 569.344964 151.453444 
L 570.409885 147.857595 
L 571.474806 136.351666 
L 572.539727 139.525246 
L 573.604647 157.084991 
L 574.669568 144.949402 
L 575.734489 144.273808 
L 576.79941 143.977737 
L 577.864331 98.623217 
L 578.929252 147.176561 
L 579.994172 140.861696 
L 581.059093 163.073326 
L 582.124014 147.387344 
L 583.188935 121.770615 
L 585.318777 147.798015 
L 586.383697 157.52843 
L 587.448618 162.859161 
L 588.513539 136.33295 
L 589.57846 64.753029 
L 590.643381 154.633963 
L 591.708302 137.722373 
L 592.773222 103.268543 
L 593.838143 135.620345 
L 594.903064 152.877846 
L 595.967985 119.221812 
L 597.032906 129.119318 
L 598.097827 143.611779 
L 599.162748 131.878912 
L 600.227668 153.614164 
L 601.292589 144.559695 
L 602.35751 149.516567 
L 603.422431 93.318489 
L 604.487352 135.781864 
L 605.552273 157.490981 
L 606.617193 141.517304 
L 607.682114 145.298753 
L 608.747035 116.480569 
L 609.811956 107.892015 
L 610.876877 92.870431 
L 611.941798 152.877846 
L 613.006718 103.925688 
L 614.071639 149.100798 
L 615.13656 149.898419 
L 616.201481 148.057891 
L 617.266402 129.939727 
L 618.331323 144.982331 
L 619.396243 113.79428 
L 620.461164 156.478051 
L 621.526085 146.89374 
L 622.591006 141.715614 
L 623.655927 99.444339 
L 624.720848 137.980641 
L 625.785769 144.656193 
L 626.850689 101.774679 
L 627.91561 141.970561 
L 628.980531 141.141061 
L 630.045452 139.3647 
L 631.110373 131.492645 
L 632.175294 92.937297 
L 633.240214 132.225105 
L 634.305135 148.549604 
L 635.370056 135.111224 
L 636.434977 135.557991 
L 637.499898 140.736383 
L 638.564819 120.612438 
L 639.629739 104.492297 
L 640.69466 137.080457 
L 641.759581 148.301767 
L 642.824502 137.650834 
L 643.889423 136.924109 
L 644.954344 159.274372 
L 646.019265 82.529221 
L 648.149106 146.325342 
L 649.214027 131.670769 
L 650.278948 142.161181 
L 651.343869 128.191901 
L 652.40879 147.817849 
L 653.47371 139.003958 
L 654.538631 152.905518 
L 655.603552 138.001493 
L 656.668473 99.391861 
L 657.733394 121.684398 
L 658.798315 111.510742 
L 659.863235 133.336482 
L 660.928156 105.650143 
L 661.993077 137.169112 
L 663.057998 146.146412 
L 664.122919 143.839473 
L 665.18784 148.342795 
L 666.25276 111.253552 
L 667.317681 141.835848 
L 668.382602 133.328798 
L 669.447523 141.334511 
L 670.512444 145.690779 
L 671.577365 160.682624 
L 672.642286 145.708054 
L 673.707206 139.082145 
L 674.772127 122.109382 
L 675.837048 144.623959 
L 675.837048 144.623959 
" clip-path="url(#p3de4252f90)" style="fill: none; stroke: #525252; stroke-width: 1.6; stroke-linecap: round"/>
   </g>
   <g id="patch_8">
    <path d="M 397.413494 295.488 
L 397.413494 51.552 
" style="fill: none; stroke: #e5e5e5; stroke-width: 1.25; stroke-linejoin: miter; stroke-linecap: square"/>
   </g>
   <g id="patch_9">
    <path d="M 397.413494 295.488 
L 689.095312 295.488 
" style="fill: none; stroke: #e5e5e5; stroke-width: 1.25; stroke-linejoin: miter; stroke-linecap: square"/>
   </g>
   <g id="text_35">
    <text style="font-weight: 700; font-size: 14px; font-family: 'Geist', 'Inter', 'Helvetica Neue', 'Arial', 'DejaVu Sans', sans-serif; text-anchor: middle; fill: #0a0a0a" x="543.254403" y="45.552" transform="rotate(-0 543.254403 45.552)">KL stays tiny: the policy never bolts</text>
   </g>
  </g>
  <g id="text_36">
   <text style="font-weight: 700; font-size: 12.5px; font-family: 'Geist', 'Inter', 'Helvetica Neue', 'Arial', 'DejaVu Sans', sans-serif; text-anchor: middle; fill: #0a0a0a" x="357.895312" y="19.3875" transform="rotate(-0 357.895312 19.3875)">The real assignment: 250 GRPO steps on GSM8K (Llama-3.2-3B)</text>
  </g>
 </g>
 <defs>
  <clipPath id="pf7135910fc">
   <rect x="47.395313" y="51.552" width="291.681818" height="243.936"/>
  </clipPath>
  <clipPath id="p3de4252f90">
   <rect x="397.413494" y="51.552" width="291.681818" height="243.936"/>
  </clipPath>
 </defs>
</svg>
