<?xml version="1.0" encoding="utf-8" standalone="no"?>
<!DOCTYPE svg PUBLIC "-//W3C//DTD SVG 1.1//EN"
  "http://www.w3.org/Graphics/SVG/1.1/DTD/svg11.dtd">
<svg xmlns:xlink="http://www.w3.org/1999/xlink" width="575.14125pt" height="329.369pt" viewBox="0 0 575.14125 329.369" xmlns="http://www.w3.org/2000/svg" version="1.1">
 <metadata>
  <rdf:RDF xmlns:dc="http://purl.org/dc/elements/1.1/" xmlns:cc="http://creativecommons.org/ns#" xmlns:rdf="http://www.w3.org/1999/02/22-rdf-syntax-ns#">
   <cc:Work>
    <dc:type rdf:resource="http://purl.org/dc/dcmitype/StillImage"/>
    <dc:date>2026-06-29T17:09:56.875776</dc:date>
    <dc:format>image/svg+xml</dc:format>
    <dc:creator>
     <cc:Agent>
      <dc:title>Matplotlib v3.11.0, https://matplotlib.org/</dc:title>
     </cc:Agent>
    </dc:creator>
   </cc:Work>
  </rdf:RDF>
 </metadata>
 <defs>
  <style type="text/css">*{stroke-linejoin: round; stroke-linecap: butt}</style>
 </defs>
 <g id="figure_1">
  <g id="patch_1">
   <path d="M 0 329.369 
L 575.14125 329.369 
L 575.14125 0 
L 0 0 
z
" style="fill: #fafafa"/>
  </g>
  <g id="axes_1">
   <g id="patch_2">
    <path d="M 65.74125 281.874 
L 567.94125 281.874 
L 567.94125 26.85 
L 65.74125 26.85 
z
" style="fill: #fafafa"/>
   </g>
   <g id="matplotlib.axis_1">
    <g id="xtick_1">
     <g id="line2d_1">
      <path d="M 88.568523 281.874 
L 88.568523 26.85 
" clip-path="url(#pfc8243ac1d)" style="fill: none; stroke: #e5e5e5; stroke-width: 0.8; stroke-linecap: round"/>
     </g>
     <g id="text_1">
      <text style="font-size: 11px; font-family: 'Geist', 'Inter', 'Helvetica Neue', 'Arial', 'DejaVu Sans', sans-serif; text-anchor: middle; fill: #525252" x="88.568523" y="301.846" transform="rotate(-0 88.568523 301.846)">0</text>
     </g>
    </g>
    <g id="xtick_2">
     <g id="line2d_2">
      <path d="M 165.949108 281.874 
L 165.949108 26.85 
" clip-path="url(#pfc8243ac1d)" style="fill: none; stroke: #e5e5e5; stroke-width: 0.8; stroke-linecap: round"/>
     </g>
     <g id="text_2">
      <text style="font-size: 11px; font-family: 'Geist', 'Inter', 'Helvetica Neue', 'Arial', 'DejaVu Sans', sans-serif; text-anchor: middle; fill: #525252" x="165.949108" y="301.846" transform="rotate(-0 165.949108 301.846)">10</text>
     </g>
    </g>
    <g id="xtick_3">
     <g id="line2d_3">
      <path d="M 243.329694 281.874 
L 243.329694 26.85 
" clip-path="url(#pfc8243ac1d)" style="fill: none; stroke: #e5e5e5; stroke-width: 0.8; stroke-linecap: round"/>
     </g>
     <g id="text_3">
      <text style="font-size: 11px; font-family: 'Geist', 'Inter', 'Helvetica Neue', 'Arial', 'DejaVu Sans', sans-serif; text-anchor: middle; fill: #525252" x="243.329694" y="301.846" transform="rotate(-0 243.329694 301.846)">20</text>
     </g>
    </g>
    <g id="xtick_4">
     <g id="line2d_4">
      <path d="M 320.710279 281.874 
L 320.710279 26.85 
" clip-path="url(#pfc8243ac1d)" style="fill: none; stroke: #e5e5e5; stroke-width: 0.8; stroke-linecap: round"/>
     </g>
     <g id="text_4">
      <text style="font-size: 11px; font-family: 'Geist', 'Inter', 'Helvetica Neue', 'Arial', 'DejaVu Sans', sans-serif; text-anchor: middle; fill: #525252" x="320.710279" y="301.846" transform="rotate(-0 320.710279 301.846)">30</text>
     </g>
    </g>
    <g id="xtick_5">
     <g id="line2d_5">
      <path d="M 398.090865 281.874 
L 398.090865 26.85 
" clip-path="url(#pfc8243ac1d)" style="fill: none; stroke: #e5e5e5; stroke-width: 0.8; stroke-linecap: round"/>
     </g>
     <g id="text_5">
      <text style="font-size: 11px; font-family: 'Geist', 'Inter', 'Helvetica Neue', 'Arial', 'DejaVu Sans', sans-serif; text-anchor: middle; fill: #525252" x="398.090865" y="301.846" transform="rotate(-0 398.090865 301.846)">40</text>
     </g>
    </g>
    <g id="xtick_6">
     <g id="line2d_6">
      <path d="M 475.47145 281.874 
L 475.47145 26.85 
" clip-path="url(#pfc8243ac1d)" style="fill: none; stroke: #e5e5e5; stroke-width: 0.8; stroke-linecap: round"/>
     </g>
     <g id="text_6">
      <text style="font-size: 11px; font-family: 'Geist', 'Inter', 'Helvetica Neue', 'Arial', 'DejaVu Sans', sans-serif; text-anchor: middle; fill: #525252" x="475.47145" y="301.846" transform="rotate(-0 475.47145 301.846)">50</text>
     </g>
    </g>
    <g id="xtick_7">
     <g id="line2d_7">
      <path d="M 552.852036 281.874 
L 552.852036 26.85 
" clip-path="url(#pfc8243ac1d)" style="fill: none; stroke: #e5e5e5; stroke-width: 0.8; stroke-linecap: round"/>
     </g>
     <g id="text_7">
      <text style="font-size: 11px; font-family: 'Geist', 'Inter', 'Helvetica Neue', 'Arial', 'DejaVu Sans', sans-serif; text-anchor: middle; fill: #525252" x="552.852036" y="301.846" transform="rotate(-0 552.852036 301.846)">60</text>
     </g>
    </g>
    <g id="text_8">
     <text style="font-size: 12px; font-family: 'Geist', 'Inter', 'Helvetica Neue', 'Arial', 'DejaVu Sans', sans-serif; text-anchor: middle; fill: #0a0a0a" x="316.84125" y="319.613" transform="rotate(-0 316.84125 319.613)">PPO iteration</text>
    </g>
   </g>
   <g id="matplotlib.axis_2">
    <g id="ytick_1">
     <g id="line2d_8">
      <path d="M 65.74125 263.654598 
L 567.94125 263.654598 
" clip-path="url(#pfc8243ac1d)" style="fill: none; stroke: #e5e5e5; stroke-width: 0.8; stroke-linecap: round"/>
     </g>
     <g id="text_9">
      <text style="font-size: 11px; font-family: 'Geist', 'Inter', 'Helvetica Neue', 'Arial', 'DejaVu Sans', sans-serif; text-anchor: end; fill: #525252" x="56.24125" y="268.890598" transform="rotate(-0 56.24125 268.890598)">−1300</text>
     </g>
    </g>
    <g id="ytick_2">
     <g id="line2d_9">
      <path d="M 65.74125 230.583732 
L 567.94125 230.583732 
" clip-path="url(#pfc8243ac1d)" style="fill: none; stroke: #e5e5e5; stroke-width: 0.8; stroke-linecap: round"/>
     </g>
     <g id="text_10">
      <text style="font-size: 11px; font-family: 'Geist', 'Inter', 'Helvetica Neue', 'Arial', 'DejaVu Sans', sans-serif; text-anchor: end; fill: #525252" x="56.24125" y="235.819732" transform="rotate(-0 56.24125 235.819732)">−1200</text>
     </g>
    </g>
    <g id="ytick_3">
     <g id="line2d_10">
      <path d="M 65.74125 197.512866 
L 567.94125 197.512866 
" clip-path="url(#pfc8243ac1d)" style="fill: none; stroke: #e5e5e5; stroke-width: 0.8; stroke-linecap: round"/>
     </g>
     <g id="text_11">
      <text style="font-size: 11px; font-family: 'Geist', 'Inter', 'Helvetica Neue', 'Arial', 'DejaVu Sans', sans-serif; text-anchor: end; fill: #525252" x="56.24125" y="202.748866" transform="rotate(-0 56.24125 202.748866)">−1100</text>
     </g>
    </g>
    <g id="ytick_4">
     <g id="line2d_11">
      <path d="M 65.74125 164.442 
L 567.94125 164.442 
" clip-path="url(#pfc8243ac1d)" style="fill: none; stroke: #e5e5e5; stroke-width: 0.8; stroke-linecap: round"/>
     </g>
     <g id="text_12">
      <text style="font-size: 11px; font-family: 'Geist', 'Inter', 'Helvetica Neue', 'Arial', 'DejaVu Sans', sans-serif; text-anchor: end; fill: #525252" x="56.24125" y="169.678" transform="rotate(-0 56.24125 169.678)">−1000</text>
     </g>
    </g>
    <g id="ytick_5">
     <g id="line2d_12">
      <path d="M 65.74125 131.371134 
L 567.94125 131.371134 
" clip-path="url(#pfc8243ac1d)" style="fill: none; stroke: #e5e5e5; stroke-width: 0.8; stroke-linecap: round"/>
     </g>
     <g id="text_13">
      <text style="font-size: 11px; font-family: 'Geist', 'Inter', 'Helvetica Neue', 'Arial', 'DejaVu Sans', sans-serif; text-anchor: end; fill: #525252" x="56.24125" y="136.607134" transform="rotate(-0 56.24125 136.607134)">−900</text>
     </g>
    </g>
    <g id="ytick_6">
     <g id="line2d_13">
      <path d="M 65.74125 98.300268 
L 567.94125 98.300268 
" clip-path="url(#pfc8243ac1d)" style="fill: none; stroke: #e5e5e5; stroke-width: 0.8; stroke-linecap: round"/>
     </g>
     <g id="text_14">
      <text style="font-size: 11px; font-family: 'Geist', 'Inter', 'Helvetica Neue', 'Arial', 'DejaVu Sans', sans-serif; text-anchor: end; fill: #525252" x="56.24125" y="103.536268" transform="rotate(-0 56.24125 103.536268)">−800</text>
     </g>
    </g>
    <g id="ytick_7">
     <g id="line2d_14">
      <path d="M 65.74125 65.229402 
L 567.94125 65.229402 
" clip-path="url(#pfc8243ac1d)" style="fill: none; stroke: #e5e5e5; stroke-width: 0.8; stroke-linecap: round"/>
     </g>
     <g id="text_15">
      <text style="font-size: 11px; font-family: 'Geist', 'Inter', 'Helvetica Neue', 'Arial', 'DejaVu Sans', sans-serif; text-anchor: end; fill: #525252" x="56.24125" y="70.465402" transform="rotate(-0 56.24125 70.465402)">−700</text>
     </g>
    </g>
    <g id="ytick_8">
     <g id="line2d_15">
      <path d="M 65.74125 32.158535 
L 567.94125 32.158535 
" clip-path="url(#pfc8243ac1d)" style="fill: none; stroke: #e5e5e5; stroke-width: 0.8; stroke-linecap: round"/>
     </g>
     <g id="text_16">
      <text style="font-size: 11px; font-family: 'Geist', 'Inter', 'Helvetica Neue', 'Arial', 'DejaVu Sans', sans-serif; text-anchor: end; fill: #525252" x="56.24125" y="37.394535" transform="rotate(-0 56.24125 37.394535)">−600</text>
     </g>
    </g>
    <g id="text_17">
     <text style="font-size: 12px; font-family: 'Geist', 'Inter', 'Helvetica Neue', 'Arial', 'DejaVu Sans', sans-serif; text-anchor: middle; fill: #0a0a0a" x="18.624" y="154.362" transform="rotate(-90 18.624 154.362)">mean episode return</text>
    </g>
   </g>
   <g id="line2d_16">
    <path d="M 88.568523 226.039795 
L 96.306581 200.515701 
L 104.04464 202.976173 
L 111.782698 181.291606 
L 119.520757 270.282 
L 127.258815 255.575386 
L 134.996874 258.111921 
L 142.734933 213.826724 
L 150.472991 242.181685 
L 158.21105 219.729874 
L 165.949108 217.957276 
L 173.687167 203.915386 
L 181.425225 217.735701 
L 189.163284 202.030346 
L 196.901342 197.750976 
L 204.639401 218.807197 
L 212.37746 214.372394 
L 220.115518 236.52326 
L 227.853577 231.519638 
L 235.591635 177.078378 
L 243.329694 208.14515 
L 251.067752 178.774913 
L 258.805811 200.257748 
L 266.543869 176.56578 
L 274.281928 197.896488 
L 282.019987 167.114126 
L 289.758045 207.877276 
L 297.496104 203.181213 
L 305.234162 190.842472 
L 312.972221 188.623417 
L 320.710279 186.17948 
L 328.448338 191.768457 
L 336.186396 180.081213 
L 343.924455 194.033811 
L 351.662513 174.019323 
L 359.400572 191.523732 
L 367.138631 175.285937 
L 374.876689 180.349087 
L 382.614748 170.84452 
L 390.352806 137.750504 
L 398.090865 140.316803 
L 405.828923 135.207354 
L 413.566982 119.713654 
L 421.30504 132.958535 
L 429.043099 117.097748 
L 436.781158 126.377433 
L 444.519216 135.20074 
L 452.257275 120.861213 
L 459.995333 152.754756 
L 467.733392 96.001843 
L 475.47145 122.676803 
L 483.209509 129.231449 
L 490.947567 89.440583 
L 498.685626 99.490819 
L 506.423685 95.694283 
L 514.161743 83.299323 
L 521.899802 90.287197 
L 529.63786 88.250031 
L 537.375919 55.271764 
L 545.113977 55.959638 
" clip-path="url(#pfc8243ac1d)" style="fill: none; stroke: #e8a48f; stroke-opacity: 0.5; stroke-linecap: round"/>
   </g>
   <g id="line2d_17">
    <path d="M 119.520757 216.221055 
L 127.258815 222.128173 
L 134.996874 233.647417 
L 142.734933 235.817528 
L 150.472991 247.995543 
L 158.21105 237.885118 
L 165.949108 230.361496 
L 173.687167 219.522189 
L 181.425225 220.303984 
L 189.163284 212.273717 
L 196.901342 207.877937 
L 204.639401 208.047921 
L 212.37746 210.139323 
L 220.115518 213.896835 
L 227.853577 219.794693 
L 235.591635 215.660173 
L 243.329694 213.527764 
L 251.067752 206.408268 
L 258.805811 199.155165 
L 266.543869 188.164394 
L 274.281928 192.328016 
L 282.019987 184.121811 
L 289.758045 189.942283 
L 297.496104 190.526976 
L 305.234162 193.382315 
L 312.972221 191.527701 
L 320.710279 195.340772 
L 328.448338 192.119008 
L 336.186396 187.499008 
L 343.924455 188.137276 
L 351.662513 185.216457 
L 359.400572 186.285307 
L 367.138631 182.988803 
L 374.876689 183.042378 
L 382.614748 178.40452 
L 390.352806 171.150756 
L 398.090865 160.90937 
L 405.828923 152.893654 
L 413.566982 140.766567 
L 421.30504 133.18937 
L 429.043099 129.058819 
L 436.781158 126.270945 
L 444.519216 126.269622 
L 452.257275 126.499134 
L 459.995333 130.458378 
L 467.733392 126.239197 
L 475.47145 125.499071 
L 483.209509 124.305213 
L 490.947567 118.021087 
L 498.685626 107.368299 
L 506.423685 107.306787 
L 514.161743 99.431291 
L 521.899802 91.642441 
L 529.63786 91.404331 
L 537.375919 82.56052 
L 545.113977 74.613591 
" clip-path="url(#pfc8243ac1d)" style="fill: none; stroke: #c8421a; stroke-width: 2.4; stroke-linecap: round"/>
   </g>
   <g id="line2d_18">
    <path d="M 65.74125 38.442 
L 567.94125 38.442 
" clip-path="url(#pfc8243ac1d)" style="fill: none; stroke-dasharray: 6.66,2.88; stroke-dashoffset: 0; stroke: #0a0a0a; stroke-width: 1.8"/>
   </g>
   <g id="patch_3">
    <path d="M 65.74125 281.874 
L 65.74125 26.85 
" style="fill: none; stroke: #e5e5e5; stroke-width: 1.25; stroke-linejoin: miter; stroke-linecap: square"/>
   </g>
   <g id="patch_4">
    <path d="M 65.74125 281.874 
L 567.94125 281.874 
" style="fill: none; stroke: #e5e5e5; stroke-width: 1.25; stroke-linejoin: miter; stroke-linecap: square"/>
   </g>
   <g id="text_18">
    <text style="font-weight: 700; font-size: 14px; font-family: 'Geist', 'Inter', 'Helvetica Neue', 'Arial', 'DejaVu Sans', sans-serif; text-anchor: middle; fill: #0a0a0a" x="316.84125" y="20.85" transform="rotate(-0 316.84125 20.85)">Pendulum-v1: PPO learning curve</text>
   </g>
   <g id="legend_1">
    <g id="line2d_19">
     <path d="M 445.40625 238.737 
L 454.40625 238.737 
L 463.40625 238.737 
" style="fill: none; stroke: #e8a48f; stroke-opacity: 0.5; stroke-linecap: round"/>
    </g>
    <g id="text_19">
     <text style="font-size: 9px; font-family: 'Geist', 'Inter', 'Helvetica Neue', 'Arial', 'DejaVu Sans', sans-serif; text-anchor: start; fill: #0a0a0a" x="470.60625" y="241.887" transform="rotate(-0 470.60625 241.887)">raw</text>
    </g>
    <g id="line2d_20">
     <path d="M 445.40625 253.722 
L 454.40625 253.722 
L 463.40625 253.722 
" style="fill: none; stroke: #c8421a; stroke-width: 2.4; stroke-linecap: round"/>
    </g>
    <g id="text_20">
     <text style="font-size: 9px; font-family: 'Geist', 'Inter', 'Helvetica Neue', 'Arial', 'DejaVu Sans', sans-serif; text-anchor: start; fill: #0a0a0a" x="470.60625" y="256.872" transform="rotate(-0 470.60625 256.872)">smoothed (window=5)</text>
    </g>
    <g id="line2d_21">
     <path d="M 445.40625 268.707 
L 454.40625 268.707 
L 463.40625 268.707 
" style="fill: none; stroke-dasharray: 6.66,2.88; stroke-dashoffset: 0; stroke: #0a0a0a; stroke-width: 1.8"/>
    </g>
    <g id="text_21">
     <text style="font-size: 9px; font-family: 'Geist', 'Inter', 'Helvetica Neue', 'Arial', 'DejaVu Sans', sans-serif; text-anchor: start; fill: #0a0a0a" x="470.60625" y="271.857" transform="rotate(-0 470.60625 271.857)">greedy eval = -619</text>
    </g>
   </g>
  </g>
 </g>
 <defs>
  <clipPath id="pfc8243ac1d">
   <rect x="65.74125" y="26.85" width="502.2" height="255.024"/>
  </clipPath>
 </defs>
</svg>
