<?xml version="1.0" encoding="utf-8" standalone="no"?>
<!DOCTYPE svg PUBLIC "-//W3C//DTD SVG 1.1//EN"
  "http://www.w3.org/Graphics/SVG/1.1/DTD/svg11.dtd">
<svg xmlns:xlink="http://www.w3.org/1999/xlink" width="575.14125pt" height="329.369pt" viewBox="0 0 575.14125 329.369" xmlns="http://www.w3.org/2000/svg" version="1.1">
 <metadata>
  <rdf:RDF xmlns:dc="http://purl.org/dc/elements/1.1/" xmlns:cc="http://creativecommons.org/ns#" xmlns:rdf="http://www.w3.org/1999/02/22-rdf-syntax-ns#">
   <cc:Work>
    <dc:type rdf:resource="http://purl.org/dc/dcmitype/StillImage"/>
    <dc:date>2026-06-29T17:09:56.911643</dc:date>
    <dc:format>image/svg+xml</dc:format>
    <dc:creator>
     <cc:Agent>
      <dc:title>Matplotlib v3.11.0, https://matplotlib.org/</dc:title>
     </cc:Agent>
    </dc:creator>
   </cc:Work>
  </rdf:RDF>
 </metadata>
 <defs>
  <style type="text/css">*{stroke-linejoin: round; stroke-linecap: butt}</style>
 </defs>
 <g id="figure_1">
  <g id="patch_1">
   <path d="M 0 329.369 
L 575.14125 329.369 
L 575.14125 0 
L 0 0 
z
" style="fill: #fafafa"/>
  </g>
  <g id="axes_1">
   <g id="patch_2">
    <path d="M 65.74125 281.874 
L 567.94125 281.874 
L 567.94125 26.85 
L 65.74125 26.85 
z
" style="fill: #fafafa"/>
   </g>
   <g id="matplotlib.axis_1">
    <g id="xtick_1">
     <g id="line2d_1">
      <path d="M 101.612679 281.874 
L 101.612679 26.85 
" clip-path="url(#pd044c5a268)" style="fill: none; stroke: #e5e5e5; stroke-width: 0.8; stroke-linecap: round"/>
     </g>
     <g id="text_1">
      <text style="font-size: 11px; font-family: 'Geist', 'Inter', 'Helvetica Neue', 'Arial', 'DejaVu Sans', sans-serif; text-anchor: middle; fill: #525252" x="101.612679" y="301.846" transform="rotate(-0 101.612679 301.846)">5</text>
     </g>
    </g>
    <g id="xtick_2">
     <g id="line2d_2">
      <path d="M 166.833458 281.874 
L 166.833458 26.85 
" clip-path="url(#pd044c5a268)" style="fill: none; stroke: #e5e5e5; stroke-width: 0.8; stroke-linecap: round"/>
     </g>
     <g id="text_2">
      <text style="font-size: 11px; font-family: 'Geist', 'Inter', 'Helvetica Neue', 'Arial', 'DejaVu Sans', sans-serif; text-anchor: middle; fill: #525252" x="166.833458" y="301.846" transform="rotate(-0 166.833458 301.846)">10</text>
     </g>
    </g>
    <g id="xtick_3">
     <g id="line2d_3">
      <path d="M 232.054237 281.874 
L 232.054237 26.85 
" clip-path="url(#pd044c5a268)" style="fill: none; stroke: #e5e5e5; stroke-width: 0.8; stroke-linecap: round"/>
     </g>
     <g id="text_3">
      <text style="font-size: 11px; font-family: 'Geist', 'Inter', 'Helvetica Neue', 'Arial', 'DejaVu Sans', sans-serif; text-anchor: middle; fill: #525252" x="232.054237" y="301.846" transform="rotate(-0 232.054237 301.846)">15</text>
     </g>
    </g>
    <g id="xtick_4">
     <g id="line2d_4">
      <path d="M 297.275016 281.874 
L 297.275016 26.85 
" clip-path="url(#pd044c5a268)" style="fill: none; stroke: #e5e5e5; stroke-width: 0.8; stroke-linecap: round"/>
     </g>
     <g id="text_4">
      <text style="font-size: 11px; font-family: 'Geist', 'Inter', 'Helvetica Neue', 'Arial', 'DejaVu Sans', sans-serif; text-anchor: middle; fill: #525252" x="297.275016" y="301.846" transform="rotate(-0 297.275016 301.846)">20</text>
     </g>
    </g>
    <g id="xtick_5">
     <g id="line2d_5">
      <path d="M 362.495795 281.874 
L 362.495795 26.85 
" clip-path="url(#pd044c5a268)" style="fill: none; stroke: #e5e5e5; stroke-width: 0.8; stroke-linecap: round"/>
     </g>
     <g id="text_5">
      <text style="font-size: 11px; font-family: 'Geist', 'Inter', 'Helvetica Neue', 'Arial', 'DejaVu Sans', sans-serif; text-anchor: middle; fill: #525252" x="362.495795" y="301.846" transform="rotate(-0 362.495795 301.846)">25</text>
     </g>
    </g>
    <g id="xtick_6">
     <g id="line2d_6">
      <path d="M 427.716575 281.874 
L 427.716575 26.85 
" clip-path="url(#pd044c5a268)" style="fill: none; stroke: #e5e5e5; stroke-width: 0.8; stroke-linecap: round"/>
     </g>
     <g id="text_6">
      <text style="font-size: 11px; font-family: 'Geist', 'Inter', 'Helvetica Neue', 'Arial', 'DejaVu Sans', sans-serif; text-anchor: middle; fill: #525252" x="427.716575" y="301.846" transform="rotate(-0 427.716575 301.846)">30</text>
     </g>
    </g>
    <g id="xtick_7">
     <g id="line2d_7">
      <path d="M 492.937354 281.874 
L 492.937354 26.85 
" clip-path="url(#pd044c5a268)" style="fill: none; stroke: #e5e5e5; stroke-width: 0.8; stroke-linecap: round"/>
     </g>
     <g id="text_7">
      <text style="font-size: 11px; font-family: 'Geist', 'Inter', 'Helvetica Neue', 'Arial', 'DejaVu Sans', sans-serif; text-anchor: middle; fill: #525252" x="492.937354" y="301.846" transform="rotate(-0 492.937354 301.846)">35</text>
     </g>
    </g>
    <g id="xtick_8">
     <g id="line2d_8">
      <path d="M 558.158133 281.874 
L 558.158133 26.85 
" clip-path="url(#pd044c5a268)" style="fill: none; stroke: #e5e5e5; stroke-width: 0.8; stroke-linecap: round"/>
     </g>
     <g id="text_8">
      <text style="font-size: 11px; font-family: 'Geist', 'Inter', 'Helvetica Neue', 'Arial', 'DejaVu Sans', sans-serif; text-anchor: middle; fill: #525252" x="558.158133" y="301.846" transform="rotate(-0 558.158133 301.846)">40</text>
     </g>
    </g>
    <g id="text_9">
     <text style="font-size: 12px; font-family: 'Geist', 'Inter', 'Helvetica Neue', 'Arial', 'DejaVu Sans', sans-serif; text-anchor: middle; fill: #0a0a0a" x="316.84125" y="319.613" transform="rotate(-0 316.84125 319.613)">PPO iteration</text>
    </g>
   </g>
   <g id="matplotlib.axis_2">
    <g id="ytick_1">
     <g id="line2d_9">
      <path d="M 65.74125 265.206234 
L 567.94125 265.206234 
" clip-path="url(#pd044c5a268)" style="fill: none; stroke: #e5e5e5; stroke-width: 0.8; stroke-linecap: round"/>
     </g>
     <g id="text_10">
      <text style="font-size: 11px; font-family: 'Geist', 'Inter', 'Helvetica Neue', 'Arial', 'DejaVu Sans', sans-serif; text-anchor: end; fill: #525252" x="56.24125" y="270.442234" transform="rotate(-0 56.24125 270.442234)">−1600</text>
     </g>
    </g>
    <g id="ytick_2">
     <g id="line2d_10">
      <path d="M 65.74125 226.089664 
L 567.94125 226.089664 
" clip-path="url(#pd044c5a268)" style="fill: none; stroke: #e5e5e5; stroke-width: 0.8; stroke-linecap: round"/>
     </g>
     <g id="text_11">
      <text style="font-size: 11px; font-family: 'Geist', 'Inter', 'Helvetica Neue', 'Arial', 'DejaVu Sans', sans-serif; text-anchor: end; fill: #525252" x="56.24125" y="231.325664" transform="rotate(-0 56.24125 231.325664)">−1500</text>
     </g>
    </g>
    <g id="ytick_3">
     <g id="line2d_11">
      <path d="M 65.74125 186.973093 
L 567.94125 186.973093 
" clip-path="url(#pd044c5a268)" style="fill: none; stroke: #e5e5e5; stroke-width: 0.8; stroke-linecap: round"/>
     </g>
     <g id="text_12">
      <text style="font-size: 11px; font-family: 'Geist', 'Inter', 'Helvetica Neue', 'Arial', 'DejaVu Sans', sans-serif; text-anchor: end; fill: #525252" x="56.24125" y="192.209093" transform="rotate(-0 56.24125 192.209093)">−1400</text>
     </g>
    </g>
    <g id="ytick_4">
     <g id="line2d_12">
      <path d="M 65.74125 147.856523 
L 567.94125 147.856523 
" clip-path="url(#pd044c5a268)" style="fill: none; stroke: #e5e5e5; stroke-width: 0.8; stroke-linecap: round"/>
     </g>
     <g id="text_13">
      <text style="font-size: 11px; font-family: 'Geist', 'Inter', 'Helvetica Neue', 'Arial', 'DejaVu Sans', sans-serif; text-anchor: end; fill: #525252" x="56.24125" y="153.092523" transform="rotate(-0 56.24125 153.092523)">−1300</text>
     </g>
    </g>
    <g id="ytick_5">
     <g id="line2d_13">
      <path d="M 65.74125 108.739953 
L 567.94125 108.739953 
" clip-path="url(#pd044c5a268)" style="fill: none; stroke: #e5e5e5; stroke-width: 0.8; stroke-linecap: round"/>
     </g>
     <g id="text_14">
      <text style="font-size: 11px; font-family: 'Geist', 'Inter', 'Helvetica Neue', 'Arial', 'DejaVu Sans', sans-serif; text-anchor: end; fill: #525252" x="56.24125" y="113.975953" transform="rotate(-0 56.24125 113.975953)">−1200</text>
     </g>
    </g>
    <g id="ytick_6">
     <g id="line2d_14">
      <path d="M 65.74125 69.623383 
L 567.94125 69.623383 
" clip-path="url(#pd044c5a268)" style="fill: none; stroke: #e5e5e5; stroke-width: 0.8; stroke-linecap: round"/>
     </g>
     <g id="text_15">
      <text style="font-size: 11px; font-family: 'Geist', 'Inter', 'Helvetica Neue', 'Arial', 'DejaVu Sans', sans-serif; text-anchor: end; fill: #525252" x="56.24125" y="74.859383" transform="rotate(-0 56.24125 74.859383)">−1100</text>
     </g>
    </g>
    <g id="ytick_7">
     <g id="line2d_15">
      <path d="M 65.74125 30.506813 
L 567.94125 30.506813 
" clip-path="url(#pd044c5a268)" style="fill: none; stroke: #e5e5e5; stroke-width: 0.8; stroke-linecap: round"/>
     </g>
     <g id="text_16">
      <text style="font-size: 11px; font-family: 'Geist', 'Inter', 'Helvetica Neue', 'Arial', 'DejaVu Sans', sans-serif; text-anchor: end; fill: #525252" x="56.24125" y="35.742813" transform="rotate(-0 56.24125 35.742813)">−1000</text>
     </g>
    </g>
    <g id="text_17">
     <text style="font-size: 12px; font-family: 'Geist', 'Inter', 'Helvetica Neue', 'Arial', 'DejaVu Sans', sans-serif; text-anchor: middle; fill: #0a0a0a" x="18.624" y="154.362" transform="rotate(-90 18.624 154.362)">mean episode return</text>
    </g>
   </g>
   <g id="line2d_16">
    <path d="M 88.568523 91.751627 
L 101.612679 98.738628 
L 114.656834 112.363712 
L 127.70099 114.930541 
L 140.745146 129.334827 
L 153.789302 117.376109 
L 166.833458 108.47709 
L 179.877614 95.656243 
L 192.921769 96.580958 
L 205.965925 87.082673 
L 219.010081 81.883298 
L 232.054237 82.084357 
L 245.098393 84.558089 
L 258.142549 89.002514 
L 271.186705 95.978563 
L 284.23086 91.08821 
L 297.275016 88.565973 
L 310.319172 80.144958 
L 323.363328 71.565912 
L 336.407484 58.565911 
L 349.45164 63.490687 
L 362.495795 53.784301 
L 375.539951 60.668818 
L 388.584107 61.360398 
L 401.628263 64.737723 
L 414.672419 62.544066 
L 427.716575 67.054206 
L 440.760731 63.24347 
L 453.804886 57.778885 
L 466.849042 58.533835 
L 479.893198 55.07906 
L 492.937354 56.343307 
L 505.98151 52.444167 
L 519.025666 52.507536 
L 532.069821 47.021829 
L 545.113977 38.442 
" clip-path="url(#pd044c5a268)" style="fill: none; stroke: #c8421a; stroke-width: 2.4; stroke-linecap: round"/>
   </g>
   <g id="line2d_17">
    <path d="M 88.568523 195.372203 
L 101.612679 239.221096 
L 114.656834 236.44382 
L 127.70099 230.972194 
L 140.745146 210.091769 
L 153.789302 230.498883 
L 166.833458 219.025993 
L 179.877614 230.901002 
L 192.921769 242.145451 
L 205.965925 266.076186 
L 219.010081 269.256364 
L 232.054237 270.282 
L 245.098393 269.520009 
L 258.142549 268.667268 
L 271.186705 255.364505 
L 284.23086 246.391946 
L 297.275016 236.087077 
L 310.319172 232.079193 
L 323.363328 216.486546 
L 336.407484 208.491901 
L 349.45164 191.972191 
L 362.495795 174.770288 
L 375.539951 162.870245 
L 388.584107 161.870426 
L 401.628263 158.319423 
L 414.672419 167.331099 
L 427.716575 176.829384 
L 440.760731 161.103741 
L 453.804886 175.38833 
L 466.849042 190.473244 
L 479.893198 198.233972 
L 492.937354 204.342415 
L 505.98151 222.23277 
L 519.025666 215.774624 
L 532.069821 205.172469 
L 545.113977 171.590893 
" clip-path="url(#pd044c5a268)" style="fill: none; stroke: #525252; stroke-width: 2.4; stroke-linecap: round"/>
   </g>
   <g id="line2d_18">
    <path d="M 88.568523 100.709321 
L 101.612679 106.019787 
L 114.656834 120.9232 
L 127.70099 121.075755 
L 140.745146 133.909901 
L 153.789302 135.755421 
L 166.833458 137.171441 
L 179.877614 135.796102 
L 192.921769 142.053189 
L 205.965925 134.423111 
L 219.010081 117.214167 
L 232.054237 110.266282 
L 245.098393 103.42714 
L 258.142549 108.782981 
L 271.186705 123.535405 
L 284.23086 120.034471 
L 297.275016 129.179926 
L 310.319172 128.270857 
L 323.363328 123.385979 
L 336.407484 102.048672 
L 349.45164 105.354023 
L 362.495795 89.421061 
L 375.539951 95.288547 
L 388.584107 94.126002 
L 401.628263 99.479496 
L 414.672419 103.201829 
L 427.716575 108.808016 
L 440.760731 98.350592 
L 453.804886 105.227285 
L 466.849042 119.014311 
L 479.893198 130.444173 
L 492.937354 143.193828 
L 505.98151 158.377316 
L 519.025666 156.308832 
L 532.069821 150.152666 
L 545.113977 136.253766 
" clip-path="url(#pd044c5a268)" style="fill: none; stroke: #e8a48f; stroke-width: 2.4; stroke-linecap: round"/>
   </g>
   <g id="patch_3">
    <path d="M 65.74125 281.874 
L 65.74125 26.85 
" style="fill: none; stroke: #e5e5e5; stroke-width: 1.25; stroke-linejoin: miter; stroke-linecap: square"/>
   </g>
   <g id="patch_4">
    <path d="M 65.74125 281.874 
L 567.94125 281.874 
" style="fill: none; stroke: #e5e5e5; stroke-width: 1.25; stroke-linejoin: miter; stroke-linecap: square"/>
   </g>
   <g id="text_18">
    <text style="font-weight: 700; font-size: 14px; font-family: 'Geist', 'Inter', 'Helvetica Neue', 'Arial', 'DejaVu Sans', sans-serif; text-anchor: middle; fill: #0a0a0a" x="316.84125" y="20.85" transform="rotate(-0 316.84125 20.85)">Ablation: clip and reuse each matter</text>
   </g>
   <g id="legend_1">
    <g id="line2d_19">
     <path d="M 73.84125 40.368 
L 82.84125 40.368 
L 91.84125 40.368 
" style="fill: none; stroke: #c8421a; stroke-width: 2.4; stroke-linecap: round"/>
    </g>
    <g id="text_19">
     <text style="font-size: 9px; font-family: 'Geist', 'Inter', 'Helvetica Neue', 'Arial', 'DejaVu Sans', sans-serif; text-anchor: start; fill: #0a0a0a" x="99.04125" y="43.518" transform="rotate(-0 99.04125 43.518)">full PPO</text>
    </g>
    <g id="line2d_20">
     <path d="M 73.84125 55.353 
L 82.84125 55.353 
L 91.84125 55.353 
" style="fill: none; stroke: #525252; stroke-width: 2.4; stroke-linecap: round"/>
    </g>
    <g id="text_20">
     <text style="font-size: 9px; font-family: 'Geist', 'Inter', 'Helvetica Neue', 'Arial', 'DejaVu Sans', sans-serif; text-anchor: start; fill: #0a0a0a" x="99.04125" y="58.503" transform="rotate(-0 99.04125 58.503)">NO clip</text>
    </g>
    <g id="line2d_21">
     <path d="M 73.84125 70.338 
L 82.84125 70.338 
L 91.84125 70.338 
" style="fill: none; stroke: #e8a48f; stroke-width: 2.4; stroke-linecap: round"/>
    </g>
    <g id="text_21">
     <text style="font-size: 9px; font-family: 'Geist', 'Inter', 'Helvetica Neue', 'Arial', 'DejaVu Sans', sans-serif; text-anchor: start; fill: #0a0a0a" x="99.04125" y="73.488" transform="rotate(-0 99.04125 73.488)">NO reuse</text>
    </g>
   </g>
  </g>
 </g>
 <defs>
  <clipPath id="pd044c5a268">
   <rect x="65.74125" y="26.85" width="502.2" height="255.024"/>
  </clipPath>
 </defs>
</svg>
